<mxfile host="app.diagrams.net" modified="2024-03-31T18:31:53.548Z" agent="Mozilla/5.0 (Macintosh; Intel Mac OS X 10_15_7) AppleWebKit/537.36 (KHTML, like Gecko) Chrome/123.0.0.0 Safari/537.36" etag="SKLLfXT0g2Hpvr2U_Vi8" version="24.1.0" type="github" pages="12">
  <diagram name="1" id="k4LvFsc2_msPHZ2i63cR">
    <mxGraphModel dx="2639" dy="1136" grid="1" gridSize="10" guides="1" tooltips="1" connect="1" arrows="1" fold="1" page="1" pageScale="1" pageWidth="850" pageHeight="1100" math="0" shadow="0">
      <root>
        <mxCell id="0" />
        <mxCell id="1" parent="0" />
        <mxCell id="YHxWx3inXGz0M5JeoGKb-2" value="&lt;font style=&quot;font-size: 16px;&quot;&gt;18 31 10 75 100 16 14 17 29 32 42 44 85 23 34 85 95 77 88 28 101&lt;/font&gt;" style="rounded=1;whiteSpace=wrap;html=1;" vertex="1" parent="1">
          <mxGeometry x="-140" y="80" width="520" height="40" as="geometry" />
        </mxCell>
        <mxCell id="YHxWx3inXGz0M5JeoGKb-65" style="edgeStyle=orthogonalEdgeStyle;rounded=0;orthogonalLoop=1;jettySize=auto;html=1;exitX=0;exitY=1;exitDx=0;exitDy=0;entryX=0.5;entryY=0;entryDx=0;entryDy=0;" edge="1" parent="1" source="YHxWx3inXGz0M5JeoGKb-5" target="YHxWx3inXGz0M5JeoGKb-6">
          <mxGeometry relative="1" as="geometry" />
        </mxCell>
        <mxCell id="YHxWx3inXGz0M5JeoGKb-66" style="edgeStyle=orthogonalEdgeStyle;rounded=0;orthogonalLoop=1;jettySize=auto;html=1;exitX=1;exitY=1;exitDx=0;exitDy=0;entryX=0.5;entryY=0;entryDx=0;entryDy=0;" edge="1" parent="1" source="YHxWx3inXGz0M5JeoGKb-5" target="YHxWx3inXGz0M5JeoGKb-41">
          <mxGeometry relative="1" as="geometry" />
        </mxCell>
        <mxCell id="YHxWx3inXGz0M5JeoGKb-5" value="18" style="ellipse;whiteSpace=wrap;html=1;aspect=fixed;" vertex="1" parent="1">
          <mxGeometry x="90" y="160" width="60" height="60" as="geometry" />
        </mxCell>
        <mxCell id="YHxWx3inXGz0M5JeoGKb-16" style="edgeStyle=orthogonalEdgeStyle;rounded=0;orthogonalLoop=1;jettySize=auto;html=1;exitX=0;exitY=1;exitDx=0;exitDy=0;entryX=0.5;entryY=0;entryDx=0;entryDy=0;" edge="1" parent="1" source="YHxWx3inXGz0M5JeoGKb-6" target="YHxWx3inXGz0M5JeoGKb-8">
          <mxGeometry relative="1" as="geometry" />
        </mxCell>
        <mxCell id="YHxWx3inXGz0M5JeoGKb-38" style="edgeStyle=orthogonalEdgeStyle;rounded=0;orthogonalLoop=1;jettySize=auto;html=1;exitX=1;exitY=1;exitDx=0;exitDy=0;entryX=0.5;entryY=0;entryDx=0;entryDy=0;" edge="1" parent="1" source="YHxWx3inXGz0M5JeoGKb-6" target="YHxWx3inXGz0M5JeoGKb-27">
          <mxGeometry relative="1" as="geometry" />
        </mxCell>
        <mxCell id="YHxWx3inXGz0M5JeoGKb-6" value="31" style="ellipse;whiteSpace=wrap;html=1;aspect=fixed;" vertex="1" parent="1">
          <mxGeometry x="-280" y="320" width="60" height="60" as="geometry" />
        </mxCell>
        <mxCell id="YHxWx3inXGz0M5JeoGKb-17" style="edgeStyle=orthogonalEdgeStyle;rounded=0;orthogonalLoop=1;jettySize=auto;html=1;exitX=0;exitY=1;exitDx=0;exitDy=0;entryX=0.5;entryY=0;entryDx=0;entryDy=0;" edge="1" parent="1" source="YHxWx3inXGz0M5JeoGKb-8" target="YHxWx3inXGz0M5JeoGKb-9">
          <mxGeometry relative="1" as="geometry" />
        </mxCell>
        <mxCell id="YHxWx3inXGz0M5JeoGKb-18" style="edgeStyle=orthogonalEdgeStyle;rounded=0;orthogonalLoop=1;jettySize=auto;html=1;exitX=1;exitY=1;exitDx=0;exitDy=0;" edge="1" parent="1" source="YHxWx3inXGz0M5JeoGKb-8" target="YHxWx3inXGz0M5JeoGKb-12">
          <mxGeometry relative="1" as="geometry" />
        </mxCell>
        <mxCell id="YHxWx3inXGz0M5JeoGKb-8" value="75" style="ellipse;whiteSpace=wrap;html=1;aspect=fixed;" vertex="1" parent="1">
          <mxGeometry x="-520" y="410" width="60" height="60" as="geometry" />
        </mxCell>
        <mxCell id="YHxWx3inXGz0M5JeoGKb-22" style="edgeStyle=orthogonalEdgeStyle;rounded=0;orthogonalLoop=1;jettySize=auto;html=1;exitX=1;exitY=1;exitDx=0;exitDy=0;entryX=0.5;entryY=0;entryDx=0;entryDy=0;" edge="1" parent="1" source="YHxWx3inXGz0M5JeoGKb-9" target="YHxWx3inXGz0M5JeoGKb-10">
          <mxGeometry relative="1" as="geometry" />
        </mxCell>
        <mxCell id="YHxWx3inXGz0M5JeoGKb-24" style="edgeStyle=orthogonalEdgeStyle;rounded=0;orthogonalLoop=1;jettySize=auto;html=1;exitX=0;exitY=1;exitDx=0;exitDy=0;entryX=0.5;entryY=0;entryDx=0;entryDy=0;" edge="1" parent="1" source="YHxWx3inXGz0M5JeoGKb-9" target="YHxWx3inXGz0M5JeoGKb-23">
          <mxGeometry relative="1" as="geometry" />
        </mxCell>
        <mxCell id="YHxWx3inXGz0M5JeoGKb-9" value="17" style="ellipse;whiteSpace=wrap;html=1;aspect=fixed;" vertex="1" parent="1">
          <mxGeometry x="-650" y="490" width="60" height="60" as="geometry" />
        </mxCell>
        <mxCell id="YHxWx3inXGz0M5JeoGKb-10" value="95" style="ellipse;whiteSpace=wrap;html=1;aspect=fixed;" vertex="1" parent="1">
          <mxGeometry x="-560" y="570" width="60" height="60" as="geometry" />
        </mxCell>
        <mxCell id="YHxWx3inXGz0M5JeoGKb-20" style="edgeStyle=orthogonalEdgeStyle;rounded=0;orthogonalLoop=1;jettySize=auto;html=1;exitX=1;exitY=1;exitDx=0;exitDy=0;entryX=0.5;entryY=0;entryDx=0;entryDy=0;" edge="1" parent="1" source="YHxWx3inXGz0M5JeoGKb-12" target="YHxWx3inXGz0M5JeoGKb-13">
          <mxGeometry relative="1" as="geometry" />
        </mxCell>
        <mxCell id="YHxWx3inXGz0M5JeoGKb-21" style="edgeStyle=orthogonalEdgeStyle;rounded=0;orthogonalLoop=1;jettySize=auto;html=1;exitX=0;exitY=1;exitDx=0;exitDy=0;entryX=0.5;entryY=0;entryDx=0;entryDy=0;" edge="1" parent="1" source="YHxWx3inXGz0M5JeoGKb-12" target="YHxWx3inXGz0M5JeoGKb-19">
          <mxGeometry relative="1" as="geometry" />
        </mxCell>
        <mxCell id="YHxWx3inXGz0M5JeoGKb-12" value="29" style="ellipse;whiteSpace=wrap;html=1;aspect=fixed;" vertex="1" parent="1">
          <mxGeometry x="-385" y="490" width="60" height="60" as="geometry" />
        </mxCell>
        <mxCell id="YHxWx3inXGz0M5JeoGKb-13" value="88" style="ellipse;whiteSpace=wrap;html=1;aspect=fixed;" vertex="1" parent="1">
          <mxGeometry x="-315" y="570" width="60" height="60" as="geometry" />
        </mxCell>
        <mxCell id="YHxWx3inXGz0M5JeoGKb-19" value="77" style="ellipse;whiteSpace=wrap;html=1;aspect=fixed;" vertex="1" parent="1">
          <mxGeometry x="-455" y="570" width="60" height="60" as="geometry" />
        </mxCell>
        <mxCell id="YHxWx3inXGz0M5JeoGKb-23" value="85" style="ellipse;whiteSpace=wrap;html=1;aspect=fixed;" vertex="1" parent="1">
          <mxGeometry x="-740" y="570" width="60" height="60" as="geometry" />
        </mxCell>
        <mxCell id="YHxWx3inXGz0M5JeoGKb-25" style="edgeStyle=orthogonalEdgeStyle;rounded=0;orthogonalLoop=1;jettySize=auto;html=1;exitX=0;exitY=1;exitDx=0;exitDy=0;entryX=0.5;entryY=0;entryDx=0;entryDy=0;" edge="1" parent="1" source="YHxWx3inXGz0M5JeoGKb-27" target="YHxWx3inXGz0M5JeoGKb-30">
          <mxGeometry relative="1" as="geometry" />
        </mxCell>
        <mxCell id="YHxWx3inXGz0M5JeoGKb-26" style="edgeStyle=orthogonalEdgeStyle;rounded=0;orthogonalLoop=1;jettySize=auto;html=1;exitX=1;exitY=1;exitDx=0;exitDy=0;" edge="1" parent="1" source="YHxWx3inXGz0M5JeoGKb-27" target="YHxWx3inXGz0M5JeoGKb-34">
          <mxGeometry relative="1" as="geometry" />
        </mxCell>
        <mxCell id="YHxWx3inXGz0M5JeoGKb-27" value="100" style="ellipse;whiteSpace=wrap;html=1;aspect=fixed;" vertex="1" parent="1">
          <mxGeometry x="-20" y="410" width="60" height="60" as="geometry" />
        </mxCell>
        <mxCell id="YHxWx3inXGz0M5JeoGKb-28" style="edgeStyle=orthogonalEdgeStyle;rounded=0;orthogonalLoop=1;jettySize=auto;html=1;exitX=1;exitY=1;exitDx=0;exitDy=0;entryX=0.5;entryY=0;entryDx=0;entryDy=0;" edge="1" parent="1" source="YHxWx3inXGz0M5JeoGKb-30" target="YHxWx3inXGz0M5JeoGKb-31">
          <mxGeometry relative="1" as="geometry" />
        </mxCell>
        <mxCell id="YHxWx3inXGz0M5JeoGKb-29" style="edgeStyle=orthogonalEdgeStyle;rounded=0;orthogonalLoop=1;jettySize=auto;html=1;exitX=0;exitY=1;exitDx=0;exitDy=0;entryX=0.5;entryY=0;entryDx=0;entryDy=0;" edge="1" parent="1" source="YHxWx3inXGz0M5JeoGKb-30" target="YHxWx3inXGz0M5JeoGKb-37">
          <mxGeometry relative="1" as="geometry" />
        </mxCell>
        <mxCell id="YHxWx3inXGz0M5JeoGKb-30" value="32" style="ellipse;whiteSpace=wrap;html=1;aspect=fixed;" vertex="1" parent="1">
          <mxGeometry x="-150" y="490" width="60" height="60" as="geometry" />
        </mxCell>
        <mxCell id="YHxWx3inXGz0M5JeoGKb-31" value="101" style="ellipse;whiteSpace=wrap;html=1;aspect=fixed;" vertex="1" parent="1">
          <mxGeometry x="-60" y="570" width="60" height="60" as="geometry" />
        </mxCell>
        <mxCell id="YHxWx3inXGz0M5JeoGKb-34" value="42" style="ellipse;whiteSpace=wrap;html=1;aspect=fixed;" vertex="1" parent="1">
          <mxGeometry x="115" y="490" width="60" height="60" as="geometry" />
        </mxCell>
        <mxCell id="YHxWx3inXGz0M5JeoGKb-37" value="28" style="ellipse;whiteSpace=wrap;html=1;aspect=fixed;" vertex="1" parent="1">
          <mxGeometry x="-240" y="570" width="60" height="60" as="geometry" />
        </mxCell>
        <mxCell id="YHxWx3inXGz0M5JeoGKb-39" style="edgeStyle=orthogonalEdgeStyle;rounded=0;orthogonalLoop=1;jettySize=auto;html=1;exitX=0;exitY=1;exitDx=0;exitDy=0;entryX=0.5;entryY=0;entryDx=0;entryDy=0;" edge="1" parent="1" source="YHxWx3inXGz0M5JeoGKb-41" target="YHxWx3inXGz0M5JeoGKb-44">
          <mxGeometry relative="1" as="geometry" />
        </mxCell>
        <mxCell id="YHxWx3inXGz0M5JeoGKb-40" style="edgeStyle=orthogonalEdgeStyle;rounded=0;orthogonalLoop=1;jettySize=auto;html=1;exitX=1;exitY=1;exitDx=0;exitDy=0;entryX=0.5;entryY=0;entryDx=0;entryDy=0;" edge="1" parent="1" source="YHxWx3inXGz0M5JeoGKb-41" target="YHxWx3inXGz0M5JeoGKb-57">
          <mxGeometry relative="1" as="geometry" />
        </mxCell>
        <mxCell id="YHxWx3inXGz0M5JeoGKb-41" value="10" style="ellipse;whiteSpace=wrap;html=1;aspect=fixed;" vertex="1" parent="1">
          <mxGeometry x="430" y="320" width="60" height="60" as="geometry" />
        </mxCell>
        <mxCell id="YHxWx3inXGz0M5JeoGKb-42" style="edgeStyle=orthogonalEdgeStyle;rounded=0;orthogonalLoop=1;jettySize=auto;html=1;exitX=0;exitY=1;exitDx=0;exitDy=0;entryX=0.5;entryY=0;entryDx=0;entryDy=0;" edge="1" parent="1" source="YHxWx3inXGz0M5JeoGKb-44" target="YHxWx3inXGz0M5JeoGKb-47">
          <mxGeometry relative="1" as="geometry" />
        </mxCell>
        <mxCell id="YHxWx3inXGz0M5JeoGKb-43" style="edgeStyle=orthogonalEdgeStyle;rounded=0;orthogonalLoop=1;jettySize=auto;html=1;exitX=1;exitY=1;exitDx=0;exitDy=0;" edge="1" parent="1" source="YHxWx3inXGz0M5JeoGKb-44" target="YHxWx3inXGz0M5JeoGKb-51">
          <mxGeometry relative="1" as="geometry" />
        </mxCell>
        <mxCell id="YHxWx3inXGz0M5JeoGKb-44" value="16" style="ellipse;whiteSpace=wrap;html=1;aspect=fixed;" vertex="1" parent="1">
          <mxGeometry x="300" y="420" width="60" height="60" as="geometry" />
        </mxCell>
        <mxCell id="YHxWx3inXGz0M5JeoGKb-47" value="44" style="ellipse;whiteSpace=wrap;html=1;aspect=fixed;" vertex="1" parent="1">
          <mxGeometry x="220" y="490" width="60" height="60" as="geometry" />
        </mxCell>
        <mxCell id="YHxWx3inXGz0M5JeoGKb-51" value="85" style="ellipse;whiteSpace=wrap;html=1;aspect=fixed;" vertex="1" parent="1">
          <mxGeometry x="380" y="490" width="60" height="60" as="geometry" />
        </mxCell>
        <mxCell id="YHxWx3inXGz0M5JeoGKb-55" style="edgeStyle=orthogonalEdgeStyle;rounded=0;orthogonalLoop=1;jettySize=auto;html=1;exitX=0;exitY=1;exitDx=0;exitDy=0;entryX=0.5;entryY=0;entryDx=0;entryDy=0;" edge="1" parent="1" source="YHxWx3inXGz0M5JeoGKb-57" target="YHxWx3inXGz0M5JeoGKb-60">
          <mxGeometry relative="1" as="geometry" />
        </mxCell>
        <mxCell id="YHxWx3inXGz0M5JeoGKb-56" style="edgeStyle=orthogonalEdgeStyle;rounded=0;orthogonalLoop=1;jettySize=auto;html=1;exitX=1;exitY=1;exitDx=0;exitDy=0;" edge="1" parent="1" source="YHxWx3inXGz0M5JeoGKb-57" target="YHxWx3inXGz0M5JeoGKb-62">
          <mxGeometry relative="1" as="geometry" />
        </mxCell>
        <mxCell id="YHxWx3inXGz0M5JeoGKb-57" value="14" style="ellipse;whiteSpace=wrap;html=1;aspect=fixed;" vertex="1" parent="1">
          <mxGeometry x="570" y="430" width="60" height="60" as="geometry" />
        </mxCell>
        <mxCell id="YHxWx3inXGz0M5JeoGKb-60" value="23" style="ellipse;whiteSpace=wrap;html=1;aspect=fixed;" vertex="1" parent="1">
          <mxGeometry x="500" y="500" width="60" height="60" as="geometry" />
        </mxCell>
        <mxCell id="YHxWx3inXGz0M5JeoGKb-62" value="34" style="ellipse;whiteSpace=wrap;html=1;aspect=fixed;" vertex="1" parent="1">
          <mxGeometry x="650" y="510" width="60" height="60" as="geometry" />
        </mxCell>
        <mxCell id="YHxWx3inXGz0M5JeoGKb-67" value="21 Elementos" style="text;html=1;align=center;verticalAlign=middle;resizable=0;points=[];autosize=1;strokeColor=none;fillColor=none;" vertex="1" parent="1">
          <mxGeometry x="280" y="50" width="100" height="30" as="geometry" />
        </mxCell>
      </root>
    </mxGraphModel>
  </diagram>
  <diagram name="2" id="iUQSv7ZriuRSzuN2_nuK">
    <mxGraphModel dx="2639" dy="1136" grid="1" gridSize="10" guides="1" tooltips="1" connect="1" arrows="1" fold="1" page="1" pageScale="1" pageWidth="850" pageHeight="1100" math="0" shadow="0">
      <root>
        <mxCell id="4IvjjZiTX-jgVRNFYqZQ-0" />
        <mxCell id="4IvjjZiTX-jgVRNFYqZQ-1" parent="4IvjjZiTX-jgVRNFYqZQ-0" />
        <mxCell id="4IvjjZiTX-jgVRNFYqZQ-2" value="&lt;font style=&quot;font-size: 16px;&quot;&gt;18 31 10 75 100 16 14 17 29 32 42 44 85 23 34 85 95 77 88 28 101&lt;/font&gt;" style="rounded=1;whiteSpace=wrap;html=1;" vertex="1" parent="4IvjjZiTX-jgVRNFYqZQ-1">
          <mxGeometry x="-140" y="80" width="520" height="40" as="geometry" />
        </mxCell>
        <mxCell id="4IvjjZiTX-jgVRNFYqZQ-3" style="edgeStyle=orthogonalEdgeStyle;rounded=0;orthogonalLoop=1;jettySize=auto;html=1;exitX=0;exitY=1;exitDx=0;exitDy=0;entryX=0.5;entryY=0;entryDx=0;entryDy=0;" edge="1" parent="4IvjjZiTX-jgVRNFYqZQ-1" source="4IvjjZiTX-jgVRNFYqZQ-5" target="4IvjjZiTX-jgVRNFYqZQ-8">
          <mxGeometry relative="1" as="geometry" />
        </mxCell>
        <mxCell id="4IvjjZiTX-jgVRNFYqZQ-4" style="edgeStyle=orthogonalEdgeStyle;rounded=0;orthogonalLoop=1;jettySize=auto;html=1;exitX=1;exitY=1;exitDx=0;exitDy=0;entryX=0.5;entryY=0;entryDx=0;entryDy=0;" edge="1" parent="4IvjjZiTX-jgVRNFYqZQ-1" source="4IvjjZiTX-jgVRNFYqZQ-5" target="4IvjjZiTX-jgVRNFYqZQ-33">
          <mxGeometry relative="1" as="geometry" />
        </mxCell>
        <mxCell id="4IvjjZiTX-jgVRNFYqZQ-5" value="18" style="ellipse;whiteSpace=wrap;html=1;aspect=fixed;" vertex="1" parent="4IvjjZiTX-jgVRNFYqZQ-1">
          <mxGeometry x="90" y="160" width="60" height="60" as="geometry" />
        </mxCell>
        <mxCell id="4IvjjZiTX-jgVRNFYqZQ-6" style="edgeStyle=orthogonalEdgeStyle;rounded=0;orthogonalLoop=1;jettySize=auto;html=1;exitX=0;exitY=1;exitDx=0;exitDy=0;entryX=0.5;entryY=0;entryDx=0;entryDy=0;" edge="1" parent="4IvjjZiTX-jgVRNFYqZQ-1" source="4IvjjZiTX-jgVRNFYqZQ-8" target="4IvjjZiTX-jgVRNFYqZQ-11">
          <mxGeometry relative="1" as="geometry" />
        </mxCell>
        <mxCell id="4IvjjZiTX-jgVRNFYqZQ-7" style="edgeStyle=orthogonalEdgeStyle;rounded=0;orthogonalLoop=1;jettySize=auto;html=1;exitX=1;exitY=1;exitDx=0;exitDy=0;entryX=0.5;entryY=0;entryDx=0;entryDy=0;" edge="1" parent="4IvjjZiTX-jgVRNFYqZQ-1" source="4IvjjZiTX-jgVRNFYqZQ-8" target="4IvjjZiTX-jgVRNFYqZQ-24">
          <mxGeometry relative="1" as="geometry" />
        </mxCell>
        <mxCell id="4IvjjZiTX-jgVRNFYqZQ-8" value="31" style="ellipse;whiteSpace=wrap;html=1;aspect=fixed;" vertex="1" parent="4IvjjZiTX-jgVRNFYqZQ-1">
          <mxGeometry x="-280" y="320" width="60" height="60" as="geometry" />
        </mxCell>
        <mxCell id="4IvjjZiTX-jgVRNFYqZQ-9" style="edgeStyle=orthogonalEdgeStyle;rounded=0;orthogonalLoop=1;jettySize=auto;html=1;exitX=0;exitY=1;exitDx=0;exitDy=0;entryX=0.5;entryY=0;entryDx=0;entryDy=0;" edge="1" parent="4IvjjZiTX-jgVRNFYqZQ-1" source="4IvjjZiTX-jgVRNFYqZQ-11" target="4IvjjZiTX-jgVRNFYqZQ-14">
          <mxGeometry relative="1" as="geometry" />
        </mxCell>
        <mxCell id="4IvjjZiTX-jgVRNFYqZQ-10" style="edgeStyle=orthogonalEdgeStyle;rounded=0;orthogonalLoop=1;jettySize=auto;html=1;exitX=1;exitY=1;exitDx=0;exitDy=0;" edge="1" parent="4IvjjZiTX-jgVRNFYqZQ-1" source="4IvjjZiTX-jgVRNFYqZQ-11" target="4IvjjZiTX-jgVRNFYqZQ-18">
          <mxGeometry relative="1" as="geometry" />
        </mxCell>
        <mxCell id="4IvjjZiTX-jgVRNFYqZQ-11" value="75" style="ellipse;whiteSpace=wrap;html=1;aspect=fixed;" vertex="1" parent="4IvjjZiTX-jgVRNFYqZQ-1">
          <mxGeometry x="-520" y="410" width="60" height="60" as="geometry" />
        </mxCell>
        <mxCell id="4IvjjZiTX-jgVRNFYqZQ-12" style="edgeStyle=orthogonalEdgeStyle;rounded=0;orthogonalLoop=1;jettySize=auto;html=1;exitX=1;exitY=1;exitDx=0;exitDy=0;entryX=0.5;entryY=0;entryDx=0;entryDy=0;" edge="1" parent="4IvjjZiTX-jgVRNFYqZQ-1" source="4IvjjZiTX-jgVRNFYqZQ-14" target="4IvjjZiTX-jgVRNFYqZQ-15">
          <mxGeometry relative="1" as="geometry" />
        </mxCell>
        <mxCell id="4IvjjZiTX-jgVRNFYqZQ-13" style="edgeStyle=orthogonalEdgeStyle;rounded=0;orthogonalLoop=1;jettySize=auto;html=1;exitX=0;exitY=1;exitDx=0;exitDy=0;entryX=0.5;entryY=0;entryDx=0;entryDy=0;" edge="1" parent="4IvjjZiTX-jgVRNFYqZQ-1" source="4IvjjZiTX-jgVRNFYqZQ-14" target="4IvjjZiTX-jgVRNFYqZQ-21">
          <mxGeometry relative="1" as="geometry" />
        </mxCell>
        <mxCell id="4IvjjZiTX-jgVRNFYqZQ-14" value="17" style="ellipse;whiteSpace=wrap;html=1;aspect=fixed;" vertex="1" parent="4IvjjZiTX-jgVRNFYqZQ-1">
          <mxGeometry x="-650" y="490" width="60" height="60" as="geometry" />
        </mxCell>
        <mxCell id="4IvjjZiTX-jgVRNFYqZQ-15" value="95" style="ellipse;whiteSpace=wrap;html=1;aspect=fixed;" vertex="1" parent="4IvjjZiTX-jgVRNFYqZQ-1">
          <mxGeometry x="-560" y="570" width="60" height="60" as="geometry" />
        </mxCell>
        <mxCell id="4IvjjZiTX-jgVRNFYqZQ-16" style="edgeStyle=orthogonalEdgeStyle;rounded=0;orthogonalLoop=1;jettySize=auto;html=1;exitX=1;exitY=1;exitDx=0;exitDy=0;entryX=0.5;entryY=0;entryDx=0;entryDy=0;" edge="1" parent="4IvjjZiTX-jgVRNFYqZQ-1" source="4IvjjZiTX-jgVRNFYqZQ-18" target="4IvjjZiTX-jgVRNFYqZQ-19">
          <mxGeometry relative="1" as="geometry" />
        </mxCell>
        <mxCell id="4IvjjZiTX-jgVRNFYqZQ-17" style="edgeStyle=orthogonalEdgeStyle;rounded=0;orthogonalLoop=1;jettySize=auto;html=1;exitX=0;exitY=1;exitDx=0;exitDy=0;entryX=0.5;entryY=0;entryDx=0;entryDy=0;" edge="1" parent="4IvjjZiTX-jgVRNFYqZQ-1" source="4IvjjZiTX-jgVRNFYqZQ-18" target="4IvjjZiTX-jgVRNFYqZQ-20">
          <mxGeometry relative="1" as="geometry" />
        </mxCell>
        <mxCell id="4IvjjZiTX-jgVRNFYqZQ-18" value="29" style="ellipse;whiteSpace=wrap;html=1;aspect=fixed;" vertex="1" parent="4IvjjZiTX-jgVRNFYqZQ-1">
          <mxGeometry x="-385" y="490" width="60" height="60" as="geometry" />
        </mxCell>
        <mxCell id="4IvjjZiTX-jgVRNFYqZQ-19" value="88" style="ellipse;whiteSpace=wrap;html=1;aspect=fixed;" vertex="1" parent="4IvjjZiTX-jgVRNFYqZQ-1">
          <mxGeometry x="-315" y="570" width="60" height="60" as="geometry" />
        </mxCell>
        <mxCell id="4IvjjZiTX-jgVRNFYqZQ-20" value="77" style="ellipse;whiteSpace=wrap;html=1;aspect=fixed;" vertex="1" parent="4IvjjZiTX-jgVRNFYqZQ-1">
          <mxGeometry x="-455" y="570" width="60" height="60" as="geometry" />
        </mxCell>
        <mxCell id="4IvjjZiTX-jgVRNFYqZQ-21" value="85" style="ellipse;whiteSpace=wrap;html=1;aspect=fixed;" vertex="1" parent="4IvjjZiTX-jgVRNFYqZQ-1">
          <mxGeometry x="-740" y="570" width="60" height="60" as="geometry" />
        </mxCell>
        <mxCell id="4IvjjZiTX-jgVRNFYqZQ-22" style="edgeStyle=orthogonalEdgeStyle;rounded=0;orthogonalLoop=1;jettySize=auto;html=1;exitX=0;exitY=1;exitDx=0;exitDy=0;entryX=0.5;entryY=0;entryDx=0;entryDy=0;" edge="1" parent="4IvjjZiTX-jgVRNFYqZQ-1" source="4IvjjZiTX-jgVRNFYqZQ-24" target="4IvjjZiTX-jgVRNFYqZQ-27">
          <mxGeometry relative="1" as="geometry" />
        </mxCell>
        <mxCell id="4IvjjZiTX-jgVRNFYqZQ-23" style="edgeStyle=orthogonalEdgeStyle;rounded=0;orthogonalLoop=1;jettySize=auto;html=1;exitX=1;exitY=1;exitDx=0;exitDy=0;" edge="1" parent="4IvjjZiTX-jgVRNFYqZQ-1" source="4IvjjZiTX-jgVRNFYqZQ-24" target="4IvjjZiTX-jgVRNFYqZQ-29">
          <mxGeometry relative="1" as="geometry" />
        </mxCell>
        <mxCell id="4IvjjZiTX-jgVRNFYqZQ-24" value="100" style="ellipse;whiteSpace=wrap;html=1;aspect=fixed;" vertex="1" parent="4IvjjZiTX-jgVRNFYqZQ-1">
          <mxGeometry x="-20" y="410" width="60" height="60" as="geometry" />
        </mxCell>
        <mxCell id="4IvjjZiTX-jgVRNFYqZQ-25" style="edgeStyle=orthogonalEdgeStyle;rounded=0;orthogonalLoop=1;jettySize=auto;html=1;exitX=1;exitY=1;exitDx=0;exitDy=0;entryX=0.5;entryY=0;entryDx=0;entryDy=0;" edge="1" parent="4IvjjZiTX-jgVRNFYqZQ-1" source="4IvjjZiTX-jgVRNFYqZQ-27" target="4IvjjZiTX-jgVRNFYqZQ-28">
          <mxGeometry relative="1" as="geometry" />
        </mxCell>
        <mxCell id="4IvjjZiTX-jgVRNFYqZQ-26" style="edgeStyle=orthogonalEdgeStyle;rounded=0;orthogonalLoop=1;jettySize=auto;html=1;exitX=0;exitY=1;exitDx=0;exitDy=0;entryX=0.5;entryY=0;entryDx=0;entryDy=0;" edge="1" parent="4IvjjZiTX-jgVRNFYqZQ-1" source="4IvjjZiTX-jgVRNFYqZQ-27" target="4IvjjZiTX-jgVRNFYqZQ-30">
          <mxGeometry relative="1" as="geometry" />
        </mxCell>
        <mxCell id="4IvjjZiTX-jgVRNFYqZQ-27" value="101" style="ellipse;whiteSpace=wrap;html=1;aspect=fixed;fillColor=#dae8fc;strokeColor=#6c8ebf;" vertex="1" parent="4IvjjZiTX-jgVRNFYqZQ-1">
          <mxGeometry x="-150" y="490" width="60" height="60" as="geometry" />
        </mxCell>
        <mxCell id="4IvjjZiTX-jgVRNFYqZQ-28" value="32" style="ellipse;whiteSpace=wrap;html=1;aspect=fixed;fillColor=#dae8fc;strokeColor=#6c8ebf;" vertex="1" parent="4IvjjZiTX-jgVRNFYqZQ-1">
          <mxGeometry x="-60" y="570" width="60" height="60" as="geometry" />
        </mxCell>
        <mxCell id="4IvjjZiTX-jgVRNFYqZQ-29" value="42" style="ellipse;whiteSpace=wrap;html=1;aspect=fixed;" vertex="1" parent="4IvjjZiTX-jgVRNFYqZQ-1">
          <mxGeometry x="115" y="490" width="60" height="60" as="geometry" />
        </mxCell>
        <mxCell id="4IvjjZiTX-jgVRNFYqZQ-30" value="28" style="ellipse;whiteSpace=wrap;html=1;aspect=fixed;" vertex="1" parent="4IvjjZiTX-jgVRNFYqZQ-1">
          <mxGeometry x="-240" y="570" width="60" height="60" as="geometry" />
        </mxCell>
        <mxCell id="4IvjjZiTX-jgVRNFYqZQ-31" style="edgeStyle=orthogonalEdgeStyle;rounded=0;orthogonalLoop=1;jettySize=auto;html=1;exitX=0;exitY=1;exitDx=0;exitDy=0;entryX=0.5;entryY=0;entryDx=0;entryDy=0;" edge="1" parent="4IvjjZiTX-jgVRNFYqZQ-1" source="4IvjjZiTX-jgVRNFYqZQ-33" target="4IvjjZiTX-jgVRNFYqZQ-36">
          <mxGeometry relative="1" as="geometry" />
        </mxCell>
        <mxCell id="4IvjjZiTX-jgVRNFYqZQ-32" style="edgeStyle=orthogonalEdgeStyle;rounded=0;orthogonalLoop=1;jettySize=auto;html=1;exitX=1;exitY=1;exitDx=0;exitDy=0;entryX=0.5;entryY=0;entryDx=0;entryDy=0;" edge="1" parent="4IvjjZiTX-jgVRNFYqZQ-1" source="4IvjjZiTX-jgVRNFYqZQ-33" target="4IvjjZiTX-jgVRNFYqZQ-41">
          <mxGeometry relative="1" as="geometry" />
        </mxCell>
        <mxCell id="4IvjjZiTX-jgVRNFYqZQ-33" value="10" style="ellipse;whiteSpace=wrap;html=1;aspect=fixed;" vertex="1" parent="4IvjjZiTX-jgVRNFYqZQ-1">
          <mxGeometry x="430" y="320" width="60" height="60" as="geometry" />
        </mxCell>
        <mxCell id="4IvjjZiTX-jgVRNFYqZQ-34" style="edgeStyle=orthogonalEdgeStyle;rounded=0;orthogonalLoop=1;jettySize=auto;html=1;exitX=0;exitY=1;exitDx=0;exitDy=0;entryX=0.5;entryY=0;entryDx=0;entryDy=0;" edge="1" parent="4IvjjZiTX-jgVRNFYqZQ-1" source="4IvjjZiTX-jgVRNFYqZQ-36" target="4IvjjZiTX-jgVRNFYqZQ-37">
          <mxGeometry relative="1" as="geometry" />
        </mxCell>
        <mxCell id="4IvjjZiTX-jgVRNFYqZQ-35" style="edgeStyle=orthogonalEdgeStyle;rounded=0;orthogonalLoop=1;jettySize=auto;html=1;exitX=1;exitY=1;exitDx=0;exitDy=0;" edge="1" parent="4IvjjZiTX-jgVRNFYqZQ-1" source="4IvjjZiTX-jgVRNFYqZQ-36" target="4IvjjZiTX-jgVRNFYqZQ-38">
          <mxGeometry relative="1" as="geometry" />
        </mxCell>
        <mxCell id="4IvjjZiTX-jgVRNFYqZQ-36" value="16" style="ellipse;whiteSpace=wrap;html=1;aspect=fixed;" vertex="1" parent="4IvjjZiTX-jgVRNFYqZQ-1">
          <mxGeometry x="300" y="420" width="60" height="60" as="geometry" />
        </mxCell>
        <mxCell id="4IvjjZiTX-jgVRNFYqZQ-37" value="44" style="ellipse;whiteSpace=wrap;html=1;aspect=fixed;" vertex="1" parent="4IvjjZiTX-jgVRNFYqZQ-1">
          <mxGeometry x="220" y="490" width="60" height="60" as="geometry" />
        </mxCell>
        <mxCell id="4IvjjZiTX-jgVRNFYqZQ-38" value="85" style="ellipse;whiteSpace=wrap;html=1;aspect=fixed;" vertex="1" parent="4IvjjZiTX-jgVRNFYqZQ-1">
          <mxGeometry x="380" y="490" width="60" height="60" as="geometry" />
        </mxCell>
        <mxCell id="4IvjjZiTX-jgVRNFYqZQ-39" style="edgeStyle=orthogonalEdgeStyle;rounded=0;orthogonalLoop=1;jettySize=auto;html=1;exitX=0;exitY=1;exitDx=0;exitDy=0;entryX=0.5;entryY=0;entryDx=0;entryDy=0;" edge="1" parent="4IvjjZiTX-jgVRNFYqZQ-1" source="4IvjjZiTX-jgVRNFYqZQ-41" target="4IvjjZiTX-jgVRNFYqZQ-42">
          <mxGeometry relative="1" as="geometry" />
        </mxCell>
        <mxCell id="4IvjjZiTX-jgVRNFYqZQ-40" style="edgeStyle=orthogonalEdgeStyle;rounded=0;orthogonalLoop=1;jettySize=auto;html=1;exitX=1;exitY=1;exitDx=0;exitDy=0;" edge="1" parent="4IvjjZiTX-jgVRNFYqZQ-1" source="4IvjjZiTX-jgVRNFYqZQ-41" target="4IvjjZiTX-jgVRNFYqZQ-43">
          <mxGeometry relative="1" as="geometry" />
        </mxCell>
        <mxCell id="4IvjjZiTX-jgVRNFYqZQ-41" value="14" style="ellipse;whiteSpace=wrap;html=1;aspect=fixed;" vertex="1" parent="4IvjjZiTX-jgVRNFYqZQ-1">
          <mxGeometry x="570" y="430" width="60" height="60" as="geometry" />
        </mxCell>
        <mxCell id="4IvjjZiTX-jgVRNFYqZQ-42" value="23" style="ellipse;whiteSpace=wrap;html=1;aspect=fixed;" vertex="1" parent="4IvjjZiTX-jgVRNFYqZQ-1">
          <mxGeometry x="500" y="500" width="60" height="60" as="geometry" />
        </mxCell>
        <mxCell id="4IvjjZiTX-jgVRNFYqZQ-43" value="34" style="ellipse;whiteSpace=wrap;html=1;aspect=fixed;" vertex="1" parent="4IvjjZiTX-jgVRNFYqZQ-1">
          <mxGeometry x="650" y="510" width="60" height="60" as="geometry" />
        </mxCell>
        <mxCell id="4IvjjZiTX-jgVRNFYqZQ-44" value="21 Elementos" style="text;html=1;align=center;verticalAlign=middle;resizable=0;points=[];autosize=1;strokeColor=none;fillColor=none;" vertex="1" parent="4IvjjZiTX-jgVRNFYqZQ-1">
          <mxGeometry x="280" y="50" width="100" height="30" as="geometry" />
        </mxCell>
        <mxCell id="rNG0vXtesThKhH94Wrdj-0" value="Pega o valor do meio para começar, porque tem que ter um filho..." style="text;html=1;align=center;verticalAlign=middle;resizable=0;points=[];autosize=1;strokeColor=none;fillColor=none;" vertex="1" parent="4IvjjZiTX-jgVRNFYqZQ-1">
          <mxGeometry x="-410" y="420" width="380" height="30" as="geometry" />
        </mxCell>
      </root>
    </mxGraphModel>
  </diagram>
  <diagram name="3" id="5z7D6Xfc7oifdqknRf_s">
    <mxGraphModel dx="2639" dy="1136" grid="1" gridSize="10" guides="1" tooltips="1" connect="1" arrows="1" fold="1" page="1" pageScale="1" pageWidth="850" pageHeight="1100" math="0" shadow="0">
      <root>
        <mxCell id="3cv7hSGHBmYV3jYW-ITe-0" />
        <mxCell id="3cv7hSGHBmYV3jYW-ITe-1" parent="3cv7hSGHBmYV3jYW-ITe-0" />
        <mxCell id="3cv7hSGHBmYV3jYW-ITe-2" value="&lt;font style=&quot;font-size: 16px;&quot;&gt;18 31 10 75 100 16 14 17 29 32 42 44 85 23 34 85 95 77 88 28 101&lt;/font&gt;" style="rounded=1;whiteSpace=wrap;html=1;" vertex="1" parent="3cv7hSGHBmYV3jYW-ITe-1">
          <mxGeometry x="-140" y="80" width="520" height="40" as="geometry" />
        </mxCell>
        <mxCell id="3cv7hSGHBmYV3jYW-ITe-3" style="edgeStyle=orthogonalEdgeStyle;rounded=0;orthogonalLoop=1;jettySize=auto;html=1;exitX=0;exitY=1;exitDx=0;exitDy=0;entryX=0.5;entryY=0;entryDx=0;entryDy=0;" edge="1" parent="3cv7hSGHBmYV3jYW-ITe-1" source="3cv7hSGHBmYV3jYW-ITe-5" target="3cv7hSGHBmYV3jYW-ITe-8">
          <mxGeometry relative="1" as="geometry" />
        </mxCell>
        <mxCell id="3cv7hSGHBmYV3jYW-ITe-4" style="edgeStyle=orthogonalEdgeStyle;rounded=0;orthogonalLoop=1;jettySize=auto;html=1;exitX=1;exitY=1;exitDx=0;exitDy=0;entryX=0.5;entryY=0;entryDx=0;entryDy=0;" edge="1" parent="3cv7hSGHBmYV3jYW-ITe-1" source="3cv7hSGHBmYV3jYW-ITe-5" target="3cv7hSGHBmYV3jYW-ITe-33">
          <mxGeometry relative="1" as="geometry" />
        </mxCell>
        <mxCell id="3cv7hSGHBmYV3jYW-ITe-5" value="18" style="ellipse;whiteSpace=wrap;html=1;aspect=fixed;" vertex="1" parent="3cv7hSGHBmYV3jYW-ITe-1">
          <mxGeometry x="90" y="160" width="60" height="60" as="geometry" />
        </mxCell>
        <mxCell id="3cv7hSGHBmYV3jYW-ITe-6" style="edgeStyle=orthogonalEdgeStyle;rounded=0;orthogonalLoop=1;jettySize=auto;html=1;exitX=0;exitY=1;exitDx=0;exitDy=0;entryX=0.5;entryY=0;entryDx=0;entryDy=0;" edge="1" parent="3cv7hSGHBmYV3jYW-ITe-1" source="3cv7hSGHBmYV3jYW-ITe-8" target="3cv7hSGHBmYV3jYW-ITe-11">
          <mxGeometry relative="1" as="geometry" />
        </mxCell>
        <mxCell id="3cv7hSGHBmYV3jYW-ITe-7" style="edgeStyle=orthogonalEdgeStyle;rounded=0;orthogonalLoop=1;jettySize=auto;html=1;exitX=1;exitY=1;exitDx=0;exitDy=0;entryX=0.5;entryY=0;entryDx=0;entryDy=0;" edge="1" parent="3cv7hSGHBmYV3jYW-ITe-1" source="3cv7hSGHBmYV3jYW-ITe-8" target="3cv7hSGHBmYV3jYW-ITe-24">
          <mxGeometry relative="1" as="geometry" />
        </mxCell>
        <mxCell id="3cv7hSGHBmYV3jYW-ITe-8" value="31" style="ellipse;whiteSpace=wrap;html=1;aspect=fixed;" vertex="1" parent="3cv7hSGHBmYV3jYW-ITe-1">
          <mxGeometry x="-280" y="320" width="60" height="60" as="geometry" />
        </mxCell>
        <mxCell id="3cv7hSGHBmYV3jYW-ITe-9" style="edgeStyle=orthogonalEdgeStyle;rounded=0;orthogonalLoop=1;jettySize=auto;html=1;exitX=0;exitY=1;exitDx=0;exitDy=0;entryX=0.5;entryY=0;entryDx=0;entryDy=0;" edge="1" parent="3cv7hSGHBmYV3jYW-ITe-1" source="3cv7hSGHBmYV3jYW-ITe-11" target="3cv7hSGHBmYV3jYW-ITe-14">
          <mxGeometry relative="1" as="geometry" />
        </mxCell>
        <mxCell id="3cv7hSGHBmYV3jYW-ITe-10" style="edgeStyle=orthogonalEdgeStyle;rounded=0;orthogonalLoop=1;jettySize=auto;html=1;exitX=1;exitY=1;exitDx=0;exitDy=0;" edge="1" parent="3cv7hSGHBmYV3jYW-ITe-1" source="3cv7hSGHBmYV3jYW-ITe-11" target="3cv7hSGHBmYV3jYW-ITe-18">
          <mxGeometry relative="1" as="geometry" />
        </mxCell>
        <mxCell id="3cv7hSGHBmYV3jYW-ITe-11" value="75" style="ellipse;whiteSpace=wrap;html=1;aspect=fixed;" vertex="1" parent="3cv7hSGHBmYV3jYW-ITe-1">
          <mxGeometry x="-520" y="410" width="60" height="60" as="geometry" />
        </mxCell>
        <mxCell id="3cv7hSGHBmYV3jYW-ITe-12" style="edgeStyle=orthogonalEdgeStyle;rounded=0;orthogonalLoop=1;jettySize=auto;html=1;exitX=1;exitY=1;exitDx=0;exitDy=0;entryX=0.5;entryY=0;entryDx=0;entryDy=0;" edge="1" parent="3cv7hSGHBmYV3jYW-ITe-1" source="3cv7hSGHBmYV3jYW-ITe-14" target="3cv7hSGHBmYV3jYW-ITe-15">
          <mxGeometry relative="1" as="geometry" />
        </mxCell>
        <mxCell id="3cv7hSGHBmYV3jYW-ITe-13" style="edgeStyle=orthogonalEdgeStyle;rounded=0;orthogonalLoop=1;jettySize=auto;html=1;exitX=0;exitY=1;exitDx=0;exitDy=0;entryX=0.5;entryY=0;entryDx=0;entryDy=0;" edge="1" parent="3cv7hSGHBmYV3jYW-ITe-1" source="3cv7hSGHBmYV3jYW-ITe-14" target="3cv7hSGHBmYV3jYW-ITe-21">
          <mxGeometry relative="1" as="geometry" />
        </mxCell>
        <mxCell id="3cv7hSGHBmYV3jYW-ITe-14" value="17" style="ellipse;whiteSpace=wrap;html=1;aspect=fixed;" vertex="1" parent="3cv7hSGHBmYV3jYW-ITe-1">
          <mxGeometry x="-650" y="490" width="60" height="60" as="geometry" />
        </mxCell>
        <mxCell id="3cv7hSGHBmYV3jYW-ITe-15" value="95" style="ellipse;whiteSpace=wrap;html=1;aspect=fixed;" vertex="1" parent="3cv7hSGHBmYV3jYW-ITe-1">
          <mxGeometry x="-560" y="570" width="60" height="60" as="geometry" />
        </mxCell>
        <mxCell id="3cv7hSGHBmYV3jYW-ITe-16" style="edgeStyle=orthogonalEdgeStyle;rounded=0;orthogonalLoop=1;jettySize=auto;html=1;exitX=1;exitY=1;exitDx=0;exitDy=0;entryX=0.5;entryY=0;entryDx=0;entryDy=0;" edge="1" parent="3cv7hSGHBmYV3jYW-ITe-1" source="3cv7hSGHBmYV3jYW-ITe-18" target="3cv7hSGHBmYV3jYW-ITe-19">
          <mxGeometry relative="1" as="geometry" />
        </mxCell>
        <mxCell id="3cv7hSGHBmYV3jYW-ITe-17" style="edgeStyle=orthogonalEdgeStyle;rounded=0;orthogonalLoop=1;jettySize=auto;html=1;exitX=0;exitY=1;exitDx=0;exitDy=0;entryX=0.5;entryY=0;entryDx=0;entryDy=0;" edge="1" parent="3cv7hSGHBmYV3jYW-ITe-1" source="3cv7hSGHBmYV3jYW-ITe-18" target="3cv7hSGHBmYV3jYW-ITe-20">
          <mxGeometry relative="1" as="geometry" />
        </mxCell>
        <mxCell id="3cv7hSGHBmYV3jYW-ITe-18" value="88" style="ellipse;whiteSpace=wrap;html=1;aspect=fixed;fillColor=#dae8fc;strokeColor=#6c8ebf;" vertex="1" parent="3cv7hSGHBmYV3jYW-ITe-1">
          <mxGeometry x="-385" y="490" width="60" height="60" as="geometry" />
        </mxCell>
        <mxCell id="3cv7hSGHBmYV3jYW-ITe-19" value="29" style="ellipse;whiteSpace=wrap;html=1;aspect=fixed;fillColor=#dae8fc;strokeColor=#6c8ebf;" vertex="1" parent="3cv7hSGHBmYV3jYW-ITe-1">
          <mxGeometry x="-315" y="570" width="60" height="60" as="geometry" />
        </mxCell>
        <mxCell id="3cv7hSGHBmYV3jYW-ITe-20" value="77" style="ellipse;whiteSpace=wrap;html=1;aspect=fixed;" vertex="1" parent="3cv7hSGHBmYV3jYW-ITe-1">
          <mxGeometry x="-455" y="570" width="60" height="60" as="geometry" />
        </mxCell>
        <mxCell id="3cv7hSGHBmYV3jYW-ITe-21" value="85" style="ellipse;whiteSpace=wrap;html=1;aspect=fixed;" vertex="1" parent="3cv7hSGHBmYV3jYW-ITe-1">
          <mxGeometry x="-740" y="570" width="60" height="60" as="geometry" />
        </mxCell>
        <mxCell id="3cv7hSGHBmYV3jYW-ITe-22" style="edgeStyle=orthogonalEdgeStyle;rounded=0;orthogonalLoop=1;jettySize=auto;html=1;exitX=0;exitY=1;exitDx=0;exitDy=0;entryX=0.5;entryY=0;entryDx=0;entryDy=0;" edge="1" parent="3cv7hSGHBmYV3jYW-ITe-1" source="3cv7hSGHBmYV3jYW-ITe-24" target="3cv7hSGHBmYV3jYW-ITe-27">
          <mxGeometry relative="1" as="geometry" />
        </mxCell>
        <mxCell id="3cv7hSGHBmYV3jYW-ITe-23" style="edgeStyle=orthogonalEdgeStyle;rounded=0;orthogonalLoop=1;jettySize=auto;html=1;exitX=1;exitY=1;exitDx=0;exitDy=0;" edge="1" parent="3cv7hSGHBmYV3jYW-ITe-1" source="3cv7hSGHBmYV3jYW-ITe-24" target="3cv7hSGHBmYV3jYW-ITe-29">
          <mxGeometry relative="1" as="geometry" />
        </mxCell>
        <mxCell id="3cv7hSGHBmYV3jYW-ITe-24" value="100" style="ellipse;whiteSpace=wrap;html=1;aspect=fixed;" vertex="1" parent="3cv7hSGHBmYV3jYW-ITe-1">
          <mxGeometry x="-20" y="410" width="60" height="60" as="geometry" />
        </mxCell>
        <mxCell id="3cv7hSGHBmYV3jYW-ITe-25" style="edgeStyle=orthogonalEdgeStyle;rounded=0;orthogonalLoop=1;jettySize=auto;html=1;exitX=1;exitY=1;exitDx=0;exitDy=0;entryX=0.5;entryY=0;entryDx=0;entryDy=0;" edge="1" parent="3cv7hSGHBmYV3jYW-ITe-1" source="3cv7hSGHBmYV3jYW-ITe-27" target="3cv7hSGHBmYV3jYW-ITe-28">
          <mxGeometry relative="1" as="geometry" />
        </mxCell>
        <mxCell id="3cv7hSGHBmYV3jYW-ITe-26" style="edgeStyle=orthogonalEdgeStyle;rounded=0;orthogonalLoop=1;jettySize=auto;html=1;exitX=0;exitY=1;exitDx=0;exitDy=0;entryX=0.5;entryY=0;entryDx=0;entryDy=0;" edge="1" parent="3cv7hSGHBmYV3jYW-ITe-1" source="3cv7hSGHBmYV3jYW-ITe-27" target="3cv7hSGHBmYV3jYW-ITe-30">
          <mxGeometry relative="1" as="geometry" />
        </mxCell>
        <mxCell id="3cv7hSGHBmYV3jYW-ITe-27" value="101" style="ellipse;whiteSpace=wrap;html=1;aspect=fixed;" vertex="1" parent="3cv7hSGHBmYV3jYW-ITe-1">
          <mxGeometry x="-150" y="490" width="60" height="60" as="geometry" />
        </mxCell>
        <mxCell id="3cv7hSGHBmYV3jYW-ITe-28" value="32" style="ellipse;whiteSpace=wrap;html=1;aspect=fixed;" vertex="1" parent="3cv7hSGHBmYV3jYW-ITe-1">
          <mxGeometry x="-60" y="570" width="60" height="60" as="geometry" />
        </mxCell>
        <mxCell id="3cv7hSGHBmYV3jYW-ITe-29" value="42" style="ellipse;whiteSpace=wrap;html=1;aspect=fixed;" vertex="1" parent="3cv7hSGHBmYV3jYW-ITe-1">
          <mxGeometry x="115" y="490" width="60" height="60" as="geometry" />
        </mxCell>
        <mxCell id="3cv7hSGHBmYV3jYW-ITe-30" value="28" style="ellipse;whiteSpace=wrap;html=1;aspect=fixed;" vertex="1" parent="3cv7hSGHBmYV3jYW-ITe-1">
          <mxGeometry x="-240" y="570" width="60" height="60" as="geometry" />
        </mxCell>
        <mxCell id="3cv7hSGHBmYV3jYW-ITe-31" style="edgeStyle=orthogonalEdgeStyle;rounded=0;orthogonalLoop=1;jettySize=auto;html=1;exitX=0;exitY=1;exitDx=0;exitDy=0;entryX=0.5;entryY=0;entryDx=0;entryDy=0;" edge="1" parent="3cv7hSGHBmYV3jYW-ITe-1" source="3cv7hSGHBmYV3jYW-ITe-33" target="3cv7hSGHBmYV3jYW-ITe-36">
          <mxGeometry relative="1" as="geometry" />
        </mxCell>
        <mxCell id="3cv7hSGHBmYV3jYW-ITe-32" style="edgeStyle=orthogonalEdgeStyle;rounded=0;orthogonalLoop=1;jettySize=auto;html=1;exitX=1;exitY=1;exitDx=0;exitDy=0;entryX=0.5;entryY=0;entryDx=0;entryDy=0;" edge="1" parent="3cv7hSGHBmYV3jYW-ITe-1" source="3cv7hSGHBmYV3jYW-ITe-33" target="3cv7hSGHBmYV3jYW-ITe-41">
          <mxGeometry relative="1" as="geometry" />
        </mxCell>
        <mxCell id="3cv7hSGHBmYV3jYW-ITe-33" value="10" style="ellipse;whiteSpace=wrap;html=1;aspect=fixed;" vertex="1" parent="3cv7hSGHBmYV3jYW-ITe-1">
          <mxGeometry x="430" y="320" width="60" height="60" as="geometry" />
        </mxCell>
        <mxCell id="3cv7hSGHBmYV3jYW-ITe-34" style="edgeStyle=orthogonalEdgeStyle;rounded=0;orthogonalLoop=1;jettySize=auto;html=1;exitX=0;exitY=1;exitDx=0;exitDy=0;entryX=0.5;entryY=0;entryDx=0;entryDy=0;" edge="1" parent="3cv7hSGHBmYV3jYW-ITe-1" source="3cv7hSGHBmYV3jYW-ITe-36" target="3cv7hSGHBmYV3jYW-ITe-37">
          <mxGeometry relative="1" as="geometry" />
        </mxCell>
        <mxCell id="3cv7hSGHBmYV3jYW-ITe-35" style="edgeStyle=orthogonalEdgeStyle;rounded=0;orthogonalLoop=1;jettySize=auto;html=1;exitX=1;exitY=1;exitDx=0;exitDy=0;" edge="1" parent="3cv7hSGHBmYV3jYW-ITe-1" source="3cv7hSGHBmYV3jYW-ITe-36" target="3cv7hSGHBmYV3jYW-ITe-38">
          <mxGeometry relative="1" as="geometry" />
        </mxCell>
        <mxCell id="3cv7hSGHBmYV3jYW-ITe-36" value="16" style="ellipse;whiteSpace=wrap;html=1;aspect=fixed;" vertex="1" parent="3cv7hSGHBmYV3jYW-ITe-1">
          <mxGeometry x="300" y="420" width="60" height="60" as="geometry" />
        </mxCell>
        <mxCell id="3cv7hSGHBmYV3jYW-ITe-37" value="44" style="ellipse;whiteSpace=wrap;html=1;aspect=fixed;" vertex="1" parent="3cv7hSGHBmYV3jYW-ITe-1">
          <mxGeometry x="220" y="490" width="60" height="60" as="geometry" />
        </mxCell>
        <mxCell id="3cv7hSGHBmYV3jYW-ITe-38" value="85" style="ellipse;whiteSpace=wrap;html=1;aspect=fixed;" vertex="1" parent="3cv7hSGHBmYV3jYW-ITe-1">
          <mxGeometry x="380" y="490" width="60" height="60" as="geometry" />
        </mxCell>
        <mxCell id="3cv7hSGHBmYV3jYW-ITe-39" style="edgeStyle=orthogonalEdgeStyle;rounded=0;orthogonalLoop=1;jettySize=auto;html=1;exitX=0;exitY=1;exitDx=0;exitDy=0;entryX=0.5;entryY=0;entryDx=0;entryDy=0;" edge="1" parent="3cv7hSGHBmYV3jYW-ITe-1" source="3cv7hSGHBmYV3jYW-ITe-41" target="3cv7hSGHBmYV3jYW-ITe-42">
          <mxGeometry relative="1" as="geometry" />
        </mxCell>
        <mxCell id="3cv7hSGHBmYV3jYW-ITe-40" style="edgeStyle=orthogonalEdgeStyle;rounded=0;orthogonalLoop=1;jettySize=auto;html=1;exitX=1;exitY=1;exitDx=0;exitDy=0;" edge="1" parent="3cv7hSGHBmYV3jYW-ITe-1" source="3cv7hSGHBmYV3jYW-ITe-41" target="3cv7hSGHBmYV3jYW-ITe-43">
          <mxGeometry relative="1" as="geometry" />
        </mxCell>
        <mxCell id="3cv7hSGHBmYV3jYW-ITe-41" value="14" style="ellipse;whiteSpace=wrap;html=1;aspect=fixed;" vertex="1" parent="3cv7hSGHBmYV3jYW-ITe-1">
          <mxGeometry x="570" y="430" width="60" height="60" as="geometry" />
        </mxCell>
        <mxCell id="3cv7hSGHBmYV3jYW-ITe-42" value="23" style="ellipse;whiteSpace=wrap;html=1;aspect=fixed;" vertex="1" parent="3cv7hSGHBmYV3jYW-ITe-1">
          <mxGeometry x="500" y="500" width="60" height="60" as="geometry" />
        </mxCell>
        <mxCell id="3cv7hSGHBmYV3jYW-ITe-43" value="34" style="ellipse;whiteSpace=wrap;html=1;aspect=fixed;" vertex="1" parent="3cv7hSGHBmYV3jYW-ITe-1">
          <mxGeometry x="650" y="510" width="60" height="60" as="geometry" />
        </mxCell>
        <mxCell id="3cv7hSGHBmYV3jYW-ITe-44" value="21 Elementos" style="text;html=1;align=center;verticalAlign=middle;resizable=0;points=[];autosize=1;strokeColor=none;fillColor=none;" vertex="1" parent="3cv7hSGHBmYV3jYW-ITe-1">
          <mxGeometry x="280" y="50" width="100" height="30" as="geometry" />
        </mxCell>
      </root>
    </mxGraphModel>
  </diagram>
  <diagram name="4" id="WztblRUg2ETPNA04r3id">
    <mxGraphModel dx="2639" dy="1136" grid="1" gridSize="10" guides="1" tooltips="1" connect="1" arrows="1" fold="1" page="1" pageScale="1" pageWidth="850" pageHeight="1100" math="0" shadow="0">
      <root>
        <mxCell id="ozZWnLxdd0-_YAzqom9J-0" />
        <mxCell id="ozZWnLxdd0-_YAzqom9J-1" parent="ozZWnLxdd0-_YAzqom9J-0" />
        <mxCell id="ozZWnLxdd0-_YAzqom9J-2" value="&lt;font style=&quot;font-size: 16px;&quot;&gt;18 31 10 75 100 16 14 17 29 32 42 44 85 23 34 85 95 77 88 28 101&lt;/font&gt;" style="rounded=1;whiteSpace=wrap;html=1;" vertex="1" parent="ozZWnLxdd0-_YAzqom9J-1">
          <mxGeometry x="-140" y="80" width="520" height="40" as="geometry" />
        </mxCell>
        <mxCell id="ozZWnLxdd0-_YAzqom9J-3" style="edgeStyle=orthogonalEdgeStyle;rounded=0;orthogonalLoop=1;jettySize=auto;html=1;exitX=0;exitY=1;exitDx=0;exitDy=0;entryX=0.5;entryY=0;entryDx=0;entryDy=0;" edge="1" parent="ozZWnLxdd0-_YAzqom9J-1" source="ozZWnLxdd0-_YAzqom9J-5" target="ozZWnLxdd0-_YAzqom9J-8">
          <mxGeometry relative="1" as="geometry" />
        </mxCell>
        <mxCell id="ozZWnLxdd0-_YAzqom9J-4" style="edgeStyle=orthogonalEdgeStyle;rounded=0;orthogonalLoop=1;jettySize=auto;html=1;exitX=1;exitY=1;exitDx=0;exitDy=0;entryX=0.5;entryY=0;entryDx=0;entryDy=0;" edge="1" parent="ozZWnLxdd0-_YAzqom9J-1" source="ozZWnLxdd0-_YAzqom9J-5" target="ozZWnLxdd0-_YAzqom9J-33">
          <mxGeometry relative="1" as="geometry" />
        </mxCell>
        <mxCell id="ozZWnLxdd0-_YAzqom9J-5" value="18" style="ellipse;whiteSpace=wrap;html=1;aspect=fixed;" vertex="1" parent="ozZWnLxdd0-_YAzqom9J-1">
          <mxGeometry x="90" y="160" width="60" height="60" as="geometry" />
        </mxCell>
        <mxCell id="ozZWnLxdd0-_YAzqom9J-6" style="edgeStyle=orthogonalEdgeStyle;rounded=0;orthogonalLoop=1;jettySize=auto;html=1;exitX=0;exitY=1;exitDx=0;exitDy=0;entryX=0.5;entryY=0;entryDx=0;entryDy=0;" edge="1" parent="ozZWnLxdd0-_YAzqom9J-1" source="ozZWnLxdd0-_YAzqom9J-8" target="ozZWnLxdd0-_YAzqom9J-11">
          <mxGeometry relative="1" as="geometry" />
        </mxCell>
        <mxCell id="ozZWnLxdd0-_YAzqom9J-7" style="edgeStyle=orthogonalEdgeStyle;rounded=0;orthogonalLoop=1;jettySize=auto;html=1;exitX=1;exitY=1;exitDx=0;exitDy=0;entryX=0.5;entryY=0;entryDx=0;entryDy=0;" edge="1" parent="ozZWnLxdd0-_YAzqom9J-1" source="ozZWnLxdd0-_YAzqom9J-8" target="ozZWnLxdd0-_YAzqom9J-24">
          <mxGeometry relative="1" as="geometry" />
        </mxCell>
        <mxCell id="ozZWnLxdd0-_YAzqom9J-8" value="31" style="ellipse;whiteSpace=wrap;html=1;aspect=fixed;" vertex="1" parent="ozZWnLxdd0-_YAzqom9J-1">
          <mxGeometry x="-280" y="320" width="60" height="60" as="geometry" />
        </mxCell>
        <mxCell id="ozZWnLxdd0-_YAzqom9J-9" style="edgeStyle=orthogonalEdgeStyle;rounded=0;orthogonalLoop=1;jettySize=auto;html=1;exitX=0;exitY=1;exitDx=0;exitDy=0;entryX=0.5;entryY=0;entryDx=0;entryDy=0;" edge="1" parent="ozZWnLxdd0-_YAzqom9J-1" source="ozZWnLxdd0-_YAzqom9J-11" target="ozZWnLxdd0-_YAzqom9J-14">
          <mxGeometry relative="1" as="geometry" />
        </mxCell>
        <mxCell id="ozZWnLxdd0-_YAzqom9J-10" style="edgeStyle=orthogonalEdgeStyle;rounded=0;orthogonalLoop=1;jettySize=auto;html=1;exitX=1;exitY=1;exitDx=0;exitDy=0;" edge="1" parent="ozZWnLxdd0-_YAzqom9J-1" source="ozZWnLxdd0-_YAzqom9J-11" target="ozZWnLxdd0-_YAzqom9J-18">
          <mxGeometry relative="1" as="geometry" />
        </mxCell>
        <mxCell id="ozZWnLxdd0-_YAzqom9J-11" value="75" style="ellipse;whiteSpace=wrap;html=1;aspect=fixed;" vertex="1" parent="ozZWnLxdd0-_YAzqom9J-1">
          <mxGeometry x="-520" y="410" width="60" height="60" as="geometry" />
        </mxCell>
        <mxCell id="ozZWnLxdd0-_YAzqom9J-12" style="edgeStyle=orthogonalEdgeStyle;rounded=0;orthogonalLoop=1;jettySize=auto;html=1;exitX=1;exitY=1;exitDx=0;exitDy=0;entryX=0.5;entryY=0;entryDx=0;entryDy=0;" edge="1" parent="ozZWnLxdd0-_YAzqom9J-1" source="ozZWnLxdd0-_YAzqom9J-14" target="ozZWnLxdd0-_YAzqom9J-15">
          <mxGeometry relative="1" as="geometry" />
        </mxCell>
        <mxCell id="ozZWnLxdd0-_YAzqom9J-13" style="edgeStyle=orthogonalEdgeStyle;rounded=0;orthogonalLoop=1;jettySize=auto;html=1;exitX=0;exitY=1;exitDx=0;exitDy=0;entryX=0.5;entryY=0;entryDx=0;entryDy=0;" edge="1" parent="ozZWnLxdd0-_YAzqom9J-1" source="ozZWnLxdd0-_YAzqom9J-14" target="ozZWnLxdd0-_YAzqom9J-21">
          <mxGeometry relative="1" as="geometry" />
        </mxCell>
        <mxCell id="ozZWnLxdd0-_YAzqom9J-14" value="95" style="ellipse;whiteSpace=wrap;html=1;aspect=fixed;fillColor=#dae8fc;strokeColor=#6c8ebf;" vertex="1" parent="ozZWnLxdd0-_YAzqom9J-1">
          <mxGeometry x="-650" y="490" width="60" height="60" as="geometry" />
        </mxCell>
        <mxCell id="ozZWnLxdd0-_YAzqom9J-15" value="17" style="ellipse;whiteSpace=wrap;html=1;aspect=fixed;fillColor=#dae8fc;strokeColor=#6c8ebf;" vertex="1" parent="ozZWnLxdd0-_YAzqom9J-1">
          <mxGeometry x="-560" y="570" width="60" height="60" as="geometry" />
        </mxCell>
        <mxCell id="ozZWnLxdd0-_YAzqom9J-16" style="edgeStyle=orthogonalEdgeStyle;rounded=0;orthogonalLoop=1;jettySize=auto;html=1;exitX=1;exitY=1;exitDx=0;exitDy=0;entryX=0.5;entryY=0;entryDx=0;entryDy=0;" edge="1" parent="ozZWnLxdd0-_YAzqom9J-1" source="ozZWnLxdd0-_YAzqom9J-18" target="ozZWnLxdd0-_YAzqom9J-19">
          <mxGeometry relative="1" as="geometry" />
        </mxCell>
        <mxCell id="ozZWnLxdd0-_YAzqom9J-17" style="edgeStyle=orthogonalEdgeStyle;rounded=0;orthogonalLoop=1;jettySize=auto;html=1;exitX=0;exitY=1;exitDx=0;exitDy=0;entryX=0.5;entryY=0;entryDx=0;entryDy=0;" edge="1" parent="ozZWnLxdd0-_YAzqom9J-1" source="ozZWnLxdd0-_YAzqom9J-18" target="ozZWnLxdd0-_YAzqom9J-20">
          <mxGeometry relative="1" as="geometry" />
        </mxCell>
        <mxCell id="ozZWnLxdd0-_YAzqom9J-18" value="88" style="ellipse;whiteSpace=wrap;html=1;aspect=fixed;" vertex="1" parent="ozZWnLxdd0-_YAzqom9J-1">
          <mxGeometry x="-385" y="490" width="60" height="60" as="geometry" />
        </mxCell>
        <mxCell id="ozZWnLxdd0-_YAzqom9J-19" value="29" style="ellipse;whiteSpace=wrap;html=1;aspect=fixed;" vertex="1" parent="ozZWnLxdd0-_YAzqom9J-1">
          <mxGeometry x="-315" y="570" width="60" height="60" as="geometry" />
        </mxCell>
        <mxCell id="ozZWnLxdd0-_YAzqom9J-20" value="77" style="ellipse;whiteSpace=wrap;html=1;aspect=fixed;" vertex="1" parent="ozZWnLxdd0-_YAzqom9J-1">
          <mxGeometry x="-455" y="570" width="60" height="60" as="geometry" />
        </mxCell>
        <mxCell id="ozZWnLxdd0-_YAzqom9J-21" value="85" style="ellipse;whiteSpace=wrap;html=1;aspect=fixed;" vertex="1" parent="ozZWnLxdd0-_YAzqom9J-1">
          <mxGeometry x="-740" y="570" width="60" height="60" as="geometry" />
        </mxCell>
        <mxCell id="ozZWnLxdd0-_YAzqom9J-22" style="edgeStyle=orthogonalEdgeStyle;rounded=0;orthogonalLoop=1;jettySize=auto;html=1;exitX=0;exitY=1;exitDx=0;exitDy=0;entryX=0.5;entryY=0;entryDx=0;entryDy=0;" edge="1" parent="ozZWnLxdd0-_YAzqom9J-1" source="ozZWnLxdd0-_YAzqom9J-24" target="ozZWnLxdd0-_YAzqom9J-27">
          <mxGeometry relative="1" as="geometry" />
        </mxCell>
        <mxCell id="ozZWnLxdd0-_YAzqom9J-23" style="edgeStyle=orthogonalEdgeStyle;rounded=0;orthogonalLoop=1;jettySize=auto;html=1;exitX=1;exitY=1;exitDx=0;exitDy=0;" edge="1" parent="ozZWnLxdd0-_YAzqom9J-1" source="ozZWnLxdd0-_YAzqom9J-24" target="ozZWnLxdd0-_YAzqom9J-29">
          <mxGeometry relative="1" as="geometry" />
        </mxCell>
        <mxCell id="ozZWnLxdd0-_YAzqom9J-24" value="100" style="ellipse;whiteSpace=wrap;html=1;aspect=fixed;" vertex="1" parent="ozZWnLxdd0-_YAzqom9J-1">
          <mxGeometry x="-20" y="410" width="60" height="60" as="geometry" />
        </mxCell>
        <mxCell id="ozZWnLxdd0-_YAzqom9J-25" style="edgeStyle=orthogonalEdgeStyle;rounded=0;orthogonalLoop=1;jettySize=auto;html=1;exitX=1;exitY=1;exitDx=0;exitDy=0;entryX=0.5;entryY=0;entryDx=0;entryDy=0;" edge="1" parent="ozZWnLxdd0-_YAzqom9J-1" source="ozZWnLxdd0-_YAzqom9J-27" target="ozZWnLxdd0-_YAzqom9J-28">
          <mxGeometry relative="1" as="geometry" />
        </mxCell>
        <mxCell id="ozZWnLxdd0-_YAzqom9J-26" style="edgeStyle=orthogonalEdgeStyle;rounded=0;orthogonalLoop=1;jettySize=auto;html=1;exitX=0;exitY=1;exitDx=0;exitDy=0;entryX=0.5;entryY=0;entryDx=0;entryDy=0;" edge="1" parent="ozZWnLxdd0-_YAzqom9J-1" source="ozZWnLxdd0-_YAzqom9J-27" target="ozZWnLxdd0-_YAzqom9J-30">
          <mxGeometry relative="1" as="geometry" />
        </mxCell>
        <mxCell id="ozZWnLxdd0-_YAzqom9J-27" value="101" style="ellipse;whiteSpace=wrap;html=1;aspect=fixed;" vertex="1" parent="ozZWnLxdd0-_YAzqom9J-1">
          <mxGeometry x="-150" y="490" width="60" height="60" as="geometry" />
        </mxCell>
        <mxCell id="ozZWnLxdd0-_YAzqom9J-28" value="32" style="ellipse;whiteSpace=wrap;html=1;aspect=fixed;" vertex="1" parent="ozZWnLxdd0-_YAzqom9J-1">
          <mxGeometry x="-60" y="570" width="60" height="60" as="geometry" />
        </mxCell>
        <mxCell id="ozZWnLxdd0-_YAzqom9J-29" value="42" style="ellipse;whiteSpace=wrap;html=1;aspect=fixed;" vertex="1" parent="ozZWnLxdd0-_YAzqom9J-1">
          <mxGeometry x="115" y="490" width="60" height="60" as="geometry" />
        </mxCell>
        <mxCell id="ozZWnLxdd0-_YAzqom9J-30" value="28" style="ellipse;whiteSpace=wrap;html=1;aspect=fixed;" vertex="1" parent="ozZWnLxdd0-_YAzqom9J-1">
          <mxGeometry x="-240" y="570" width="60" height="60" as="geometry" />
        </mxCell>
        <mxCell id="ozZWnLxdd0-_YAzqom9J-31" style="edgeStyle=orthogonalEdgeStyle;rounded=0;orthogonalLoop=1;jettySize=auto;html=1;exitX=0;exitY=1;exitDx=0;exitDy=0;entryX=0.5;entryY=0;entryDx=0;entryDy=0;" edge="1" parent="ozZWnLxdd0-_YAzqom9J-1" source="ozZWnLxdd0-_YAzqom9J-33" target="ozZWnLxdd0-_YAzqom9J-36">
          <mxGeometry relative="1" as="geometry" />
        </mxCell>
        <mxCell id="ozZWnLxdd0-_YAzqom9J-32" style="edgeStyle=orthogonalEdgeStyle;rounded=0;orthogonalLoop=1;jettySize=auto;html=1;exitX=1;exitY=1;exitDx=0;exitDy=0;entryX=0.5;entryY=0;entryDx=0;entryDy=0;" edge="1" parent="ozZWnLxdd0-_YAzqom9J-1" source="ozZWnLxdd0-_YAzqom9J-33" target="ozZWnLxdd0-_YAzqom9J-41">
          <mxGeometry relative="1" as="geometry" />
        </mxCell>
        <mxCell id="ozZWnLxdd0-_YAzqom9J-33" value="10" style="ellipse;whiteSpace=wrap;html=1;aspect=fixed;" vertex="1" parent="ozZWnLxdd0-_YAzqom9J-1">
          <mxGeometry x="430" y="320" width="60" height="60" as="geometry" />
        </mxCell>
        <mxCell id="ozZWnLxdd0-_YAzqom9J-34" style="edgeStyle=orthogonalEdgeStyle;rounded=0;orthogonalLoop=1;jettySize=auto;html=1;exitX=0;exitY=1;exitDx=0;exitDy=0;entryX=0.5;entryY=0;entryDx=0;entryDy=0;" edge="1" parent="ozZWnLxdd0-_YAzqom9J-1" source="ozZWnLxdd0-_YAzqom9J-36" target="ozZWnLxdd0-_YAzqom9J-37">
          <mxGeometry relative="1" as="geometry" />
        </mxCell>
        <mxCell id="ozZWnLxdd0-_YAzqom9J-35" style="edgeStyle=orthogonalEdgeStyle;rounded=0;orthogonalLoop=1;jettySize=auto;html=1;exitX=1;exitY=1;exitDx=0;exitDy=0;" edge="1" parent="ozZWnLxdd0-_YAzqom9J-1" source="ozZWnLxdd0-_YAzqom9J-36" target="ozZWnLxdd0-_YAzqom9J-38">
          <mxGeometry relative="1" as="geometry" />
        </mxCell>
        <mxCell id="ozZWnLxdd0-_YAzqom9J-36" value="16" style="ellipse;whiteSpace=wrap;html=1;aspect=fixed;" vertex="1" parent="ozZWnLxdd0-_YAzqom9J-1">
          <mxGeometry x="300" y="420" width="60" height="60" as="geometry" />
        </mxCell>
        <mxCell id="ozZWnLxdd0-_YAzqom9J-37" value="44" style="ellipse;whiteSpace=wrap;html=1;aspect=fixed;" vertex="1" parent="ozZWnLxdd0-_YAzqom9J-1">
          <mxGeometry x="220" y="490" width="60" height="60" as="geometry" />
        </mxCell>
        <mxCell id="ozZWnLxdd0-_YAzqom9J-38" value="85" style="ellipse;whiteSpace=wrap;html=1;aspect=fixed;" vertex="1" parent="ozZWnLxdd0-_YAzqom9J-1">
          <mxGeometry x="380" y="490" width="60" height="60" as="geometry" />
        </mxCell>
        <mxCell id="ozZWnLxdd0-_YAzqom9J-39" style="edgeStyle=orthogonalEdgeStyle;rounded=0;orthogonalLoop=1;jettySize=auto;html=1;exitX=0;exitY=1;exitDx=0;exitDy=0;entryX=0.5;entryY=0;entryDx=0;entryDy=0;" edge="1" parent="ozZWnLxdd0-_YAzqom9J-1" source="ozZWnLxdd0-_YAzqom9J-41" target="ozZWnLxdd0-_YAzqom9J-42">
          <mxGeometry relative="1" as="geometry" />
        </mxCell>
        <mxCell id="ozZWnLxdd0-_YAzqom9J-40" style="edgeStyle=orthogonalEdgeStyle;rounded=0;orthogonalLoop=1;jettySize=auto;html=1;exitX=1;exitY=1;exitDx=0;exitDy=0;" edge="1" parent="ozZWnLxdd0-_YAzqom9J-1" source="ozZWnLxdd0-_YAzqom9J-41" target="ozZWnLxdd0-_YAzqom9J-43">
          <mxGeometry relative="1" as="geometry" />
        </mxCell>
        <mxCell id="ozZWnLxdd0-_YAzqom9J-41" value="14" style="ellipse;whiteSpace=wrap;html=1;aspect=fixed;" vertex="1" parent="ozZWnLxdd0-_YAzqom9J-1">
          <mxGeometry x="570" y="430" width="60" height="60" as="geometry" />
        </mxCell>
        <mxCell id="ozZWnLxdd0-_YAzqom9J-42" value="23" style="ellipse;whiteSpace=wrap;html=1;aspect=fixed;" vertex="1" parent="ozZWnLxdd0-_YAzqom9J-1">
          <mxGeometry x="500" y="500" width="60" height="60" as="geometry" />
        </mxCell>
        <mxCell id="ozZWnLxdd0-_YAzqom9J-43" value="34" style="ellipse;whiteSpace=wrap;html=1;aspect=fixed;" vertex="1" parent="ozZWnLxdd0-_YAzqom9J-1">
          <mxGeometry x="650" y="510" width="60" height="60" as="geometry" />
        </mxCell>
        <mxCell id="ozZWnLxdd0-_YAzqom9J-44" value="21 Elementos" style="text;html=1;align=center;verticalAlign=middle;resizable=0;points=[];autosize=1;strokeColor=none;fillColor=none;" vertex="1" parent="ozZWnLxdd0-_YAzqom9J-1">
          <mxGeometry x="280" y="50" width="100" height="30" as="geometry" />
        </mxCell>
      </root>
    </mxGraphModel>
  </diagram>
  <diagram name="5" id="-UbeGXfO4QnO1bvur-AM">
    <mxGraphModel dx="2639" dy="1136" grid="1" gridSize="10" guides="1" tooltips="1" connect="1" arrows="1" fold="1" page="1" pageScale="1" pageWidth="850" pageHeight="1100" math="0" shadow="0">
      <root>
        <mxCell id="BqjUvejv8e-N4sVfCFiO-0" />
        <mxCell id="BqjUvejv8e-N4sVfCFiO-1" parent="BqjUvejv8e-N4sVfCFiO-0" />
        <mxCell id="BqjUvejv8e-N4sVfCFiO-2" value="&lt;font style=&quot;font-size: 16px;&quot;&gt;18 31 10 75 100 16 14 17 29 32 42 44 85 23 34 85 95 77 88 28 101&lt;/font&gt;" style="rounded=1;whiteSpace=wrap;html=1;" vertex="1" parent="BqjUvejv8e-N4sVfCFiO-1">
          <mxGeometry x="-140" y="80" width="520" height="40" as="geometry" />
        </mxCell>
        <mxCell id="BqjUvejv8e-N4sVfCFiO-3" style="edgeStyle=orthogonalEdgeStyle;rounded=0;orthogonalLoop=1;jettySize=auto;html=1;exitX=0;exitY=1;exitDx=0;exitDy=0;entryX=0.5;entryY=0;entryDx=0;entryDy=0;" edge="1" parent="BqjUvejv8e-N4sVfCFiO-1" source="BqjUvejv8e-N4sVfCFiO-5" target="BqjUvejv8e-N4sVfCFiO-8">
          <mxGeometry relative="1" as="geometry" />
        </mxCell>
        <mxCell id="BqjUvejv8e-N4sVfCFiO-4" style="edgeStyle=orthogonalEdgeStyle;rounded=0;orthogonalLoop=1;jettySize=auto;html=1;exitX=1;exitY=1;exitDx=0;exitDy=0;entryX=0.5;entryY=0;entryDx=0;entryDy=0;" edge="1" parent="BqjUvejv8e-N4sVfCFiO-1" source="BqjUvejv8e-N4sVfCFiO-5" target="BqjUvejv8e-N4sVfCFiO-33">
          <mxGeometry relative="1" as="geometry" />
        </mxCell>
        <mxCell id="BqjUvejv8e-N4sVfCFiO-5" value="18" style="ellipse;whiteSpace=wrap;html=1;aspect=fixed;" vertex="1" parent="BqjUvejv8e-N4sVfCFiO-1">
          <mxGeometry x="90" y="160" width="60" height="60" as="geometry" />
        </mxCell>
        <mxCell id="BqjUvejv8e-N4sVfCFiO-6" style="edgeStyle=orthogonalEdgeStyle;rounded=0;orthogonalLoop=1;jettySize=auto;html=1;exitX=0;exitY=1;exitDx=0;exitDy=0;entryX=0.5;entryY=0;entryDx=0;entryDy=0;" edge="1" parent="BqjUvejv8e-N4sVfCFiO-1" source="BqjUvejv8e-N4sVfCFiO-8" target="BqjUvejv8e-N4sVfCFiO-11">
          <mxGeometry relative="1" as="geometry" />
        </mxCell>
        <mxCell id="BqjUvejv8e-N4sVfCFiO-7" style="edgeStyle=orthogonalEdgeStyle;rounded=0;orthogonalLoop=1;jettySize=auto;html=1;exitX=1;exitY=1;exitDx=0;exitDy=0;entryX=0.5;entryY=0;entryDx=0;entryDy=0;" edge="1" parent="BqjUvejv8e-N4sVfCFiO-1" source="BqjUvejv8e-N4sVfCFiO-8" target="BqjUvejv8e-N4sVfCFiO-24">
          <mxGeometry relative="1" as="geometry" />
        </mxCell>
        <mxCell id="BqjUvejv8e-N4sVfCFiO-8" value="31" style="ellipse;whiteSpace=wrap;html=1;aspect=fixed;" vertex="1" parent="BqjUvejv8e-N4sVfCFiO-1">
          <mxGeometry x="-280" y="320" width="60" height="60" as="geometry" />
        </mxCell>
        <mxCell id="BqjUvejv8e-N4sVfCFiO-9" style="edgeStyle=orthogonalEdgeStyle;rounded=0;orthogonalLoop=1;jettySize=auto;html=1;exitX=0;exitY=1;exitDx=0;exitDy=0;entryX=0.5;entryY=0;entryDx=0;entryDy=0;" edge="1" parent="BqjUvejv8e-N4sVfCFiO-1" source="BqjUvejv8e-N4sVfCFiO-11" target="BqjUvejv8e-N4sVfCFiO-14">
          <mxGeometry relative="1" as="geometry" />
        </mxCell>
        <mxCell id="BqjUvejv8e-N4sVfCFiO-10" style="edgeStyle=orthogonalEdgeStyle;rounded=0;orthogonalLoop=1;jettySize=auto;html=1;exitX=1;exitY=1;exitDx=0;exitDy=0;" edge="1" parent="BqjUvejv8e-N4sVfCFiO-1" source="BqjUvejv8e-N4sVfCFiO-11" target="BqjUvejv8e-N4sVfCFiO-18">
          <mxGeometry relative="1" as="geometry" />
        </mxCell>
        <mxCell id="BqjUvejv8e-N4sVfCFiO-11" value="75" style="ellipse;whiteSpace=wrap;html=1;aspect=fixed;" vertex="1" parent="BqjUvejv8e-N4sVfCFiO-1">
          <mxGeometry x="-520" y="410" width="60" height="60" as="geometry" />
        </mxCell>
        <mxCell id="BqjUvejv8e-N4sVfCFiO-12" style="edgeStyle=orthogonalEdgeStyle;rounded=0;orthogonalLoop=1;jettySize=auto;html=1;exitX=1;exitY=1;exitDx=0;exitDy=0;entryX=0.5;entryY=0;entryDx=0;entryDy=0;" edge="1" parent="BqjUvejv8e-N4sVfCFiO-1" source="BqjUvejv8e-N4sVfCFiO-14" target="BqjUvejv8e-N4sVfCFiO-15">
          <mxGeometry relative="1" as="geometry" />
        </mxCell>
        <mxCell id="BqjUvejv8e-N4sVfCFiO-13" style="edgeStyle=orthogonalEdgeStyle;rounded=0;orthogonalLoop=1;jettySize=auto;html=1;exitX=0;exitY=1;exitDx=0;exitDy=0;entryX=0.5;entryY=0;entryDx=0;entryDy=0;" edge="1" parent="BqjUvejv8e-N4sVfCFiO-1" source="BqjUvejv8e-N4sVfCFiO-14" target="BqjUvejv8e-N4sVfCFiO-21">
          <mxGeometry relative="1" as="geometry" />
        </mxCell>
        <mxCell id="BqjUvejv8e-N4sVfCFiO-14" value="95" style="ellipse;whiteSpace=wrap;html=1;aspect=fixed;" vertex="1" parent="BqjUvejv8e-N4sVfCFiO-1">
          <mxGeometry x="-650" y="490" width="60" height="60" as="geometry" />
        </mxCell>
        <mxCell id="BqjUvejv8e-N4sVfCFiO-15" value="17" style="ellipse;whiteSpace=wrap;html=1;aspect=fixed;" vertex="1" parent="BqjUvejv8e-N4sVfCFiO-1">
          <mxGeometry x="-560" y="570" width="60" height="60" as="geometry" />
        </mxCell>
        <mxCell id="BqjUvejv8e-N4sVfCFiO-16" style="edgeStyle=orthogonalEdgeStyle;rounded=0;orthogonalLoop=1;jettySize=auto;html=1;exitX=1;exitY=1;exitDx=0;exitDy=0;entryX=0.5;entryY=0;entryDx=0;entryDy=0;" edge="1" parent="BqjUvejv8e-N4sVfCFiO-1" source="BqjUvejv8e-N4sVfCFiO-18" target="BqjUvejv8e-N4sVfCFiO-19">
          <mxGeometry relative="1" as="geometry" />
        </mxCell>
        <mxCell id="BqjUvejv8e-N4sVfCFiO-17" style="edgeStyle=orthogonalEdgeStyle;rounded=0;orthogonalLoop=1;jettySize=auto;html=1;exitX=0;exitY=1;exitDx=0;exitDy=0;entryX=0.5;entryY=0;entryDx=0;entryDy=0;" edge="1" parent="BqjUvejv8e-N4sVfCFiO-1" source="BqjUvejv8e-N4sVfCFiO-18" target="BqjUvejv8e-N4sVfCFiO-20">
          <mxGeometry relative="1" as="geometry" />
        </mxCell>
        <mxCell id="BqjUvejv8e-N4sVfCFiO-18" value="88" style="ellipse;whiteSpace=wrap;html=1;aspect=fixed;" vertex="1" parent="BqjUvejv8e-N4sVfCFiO-1">
          <mxGeometry x="-385" y="490" width="60" height="60" as="geometry" />
        </mxCell>
        <mxCell id="BqjUvejv8e-N4sVfCFiO-19" value="29" style="ellipse;whiteSpace=wrap;html=1;aspect=fixed;" vertex="1" parent="BqjUvejv8e-N4sVfCFiO-1">
          <mxGeometry x="-315" y="570" width="60" height="60" as="geometry" />
        </mxCell>
        <mxCell id="BqjUvejv8e-N4sVfCFiO-20" value="77" style="ellipse;whiteSpace=wrap;html=1;aspect=fixed;" vertex="1" parent="BqjUvejv8e-N4sVfCFiO-1">
          <mxGeometry x="-455" y="570" width="60" height="60" as="geometry" />
        </mxCell>
        <mxCell id="BqjUvejv8e-N4sVfCFiO-21" value="85" style="ellipse;whiteSpace=wrap;html=1;aspect=fixed;" vertex="1" parent="BqjUvejv8e-N4sVfCFiO-1">
          <mxGeometry x="-740" y="570" width="60" height="60" as="geometry" />
        </mxCell>
        <mxCell id="BqjUvejv8e-N4sVfCFiO-22" style="edgeStyle=orthogonalEdgeStyle;rounded=0;orthogonalLoop=1;jettySize=auto;html=1;exitX=0;exitY=1;exitDx=0;exitDy=0;entryX=0.5;entryY=0;entryDx=0;entryDy=0;" edge="1" parent="BqjUvejv8e-N4sVfCFiO-1" source="BqjUvejv8e-N4sVfCFiO-24" target="BqjUvejv8e-N4sVfCFiO-27">
          <mxGeometry relative="1" as="geometry" />
        </mxCell>
        <mxCell id="BqjUvejv8e-N4sVfCFiO-23" style="edgeStyle=orthogonalEdgeStyle;rounded=0;orthogonalLoop=1;jettySize=auto;html=1;exitX=1;exitY=1;exitDx=0;exitDy=0;" edge="1" parent="BqjUvejv8e-N4sVfCFiO-1" source="BqjUvejv8e-N4sVfCFiO-24" target="BqjUvejv8e-N4sVfCFiO-29">
          <mxGeometry relative="1" as="geometry" />
        </mxCell>
        <mxCell id="BqjUvejv8e-N4sVfCFiO-24" value="100" style="ellipse;whiteSpace=wrap;html=1;aspect=fixed;" vertex="1" parent="BqjUvejv8e-N4sVfCFiO-1">
          <mxGeometry x="-20" y="410" width="60" height="60" as="geometry" />
        </mxCell>
        <mxCell id="BqjUvejv8e-N4sVfCFiO-25" style="edgeStyle=orthogonalEdgeStyle;rounded=0;orthogonalLoop=1;jettySize=auto;html=1;exitX=1;exitY=1;exitDx=0;exitDy=0;entryX=0.5;entryY=0;entryDx=0;entryDy=0;" edge="1" parent="BqjUvejv8e-N4sVfCFiO-1" source="BqjUvejv8e-N4sVfCFiO-27" target="BqjUvejv8e-N4sVfCFiO-28">
          <mxGeometry relative="1" as="geometry" />
        </mxCell>
        <mxCell id="BqjUvejv8e-N4sVfCFiO-26" style="edgeStyle=orthogonalEdgeStyle;rounded=0;orthogonalLoop=1;jettySize=auto;html=1;exitX=0;exitY=1;exitDx=0;exitDy=0;entryX=0.5;entryY=0;entryDx=0;entryDy=0;" edge="1" parent="BqjUvejv8e-N4sVfCFiO-1" source="BqjUvejv8e-N4sVfCFiO-27" target="BqjUvejv8e-N4sVfCFiO-30">
          <mxGeometry relative="1" as="geometry" />
        </mxCell>
        <mxCell id="BqjUvejv8e-N4sVfCFiO-27" value="101" style="ellipse;whiteSpace=wrap;html=1;aspect=fixed;" vertex="1" parent="BqjUvejv8e-N4sVfCFiO-1">
          <mxGeometry x="-150" y="490" width="60" height="60" as="geometry" />
        </mxCell>
        <mxCell id="BqjUvejv8e-N4sVfCFiO-28" value="32" style="ellipse;whiteSpace=wrap;html=1;aspect=fixed;" vertex="1" parent="BqjUvejv8e-N4sVfCFiO-1">
          <mxGeometry x="-60" y="570" width="60" height="60" as="geometry" />
        </mxCell>
        <mxCell id="BqjUvejv8e-N4sVfCFiO-29" value="42" style="ellipse;whiteSpace=wrap;html=1;aspect=fixed;" vertex="1" parent="BqjUvejv8e-N4sVfCFiO-1">
          <mxGeometry x="115" y="490" width="60" height="60" as="geometry" />
        </mxCell>
        <mxCell id="BqjUvejv8e-N4sVfCFiO-30" value="28" style="ellipse;whiteSpace=wrap;html=1;aspect=fixed;" vertex="1" parent="BqjUvejv8e-N4sVfCFiO-1">
          <mxGeometry x="-240" y="570" width="60" height="60" as="geometry" />
        </mxCell>
        <mxCell id="BqjUvejv8e-N4sVfCFiO-31" style="edgeStyle=orthogonalEdgeStyle;rounded=0;orthogonalLoop=1;jettySize=auto;html=1;exitX=0;exitY=1;exitDx=0;exitDy=0;entryX=0.5;entryY=0;entryDx=0;entryDy=0;" edge="1" parent="BqjUvejv8e-N4sVfCFiO-1" source="BqjUvejv8e-N4sVfCFiO-33" target="BqjUvejv8e-N4sVfCFiO-36">
          <mxGeometry relative="1" as="geometry" />
        </mxCell>
        <mxCell id="BqjUvejv8e-N4sVfCFiO-32" style="edgeStyle=orthogonalEdgeStyle;rounded=0;orthogonalLoop=1;jettySize=auto;html=1;exitX=1;exitY=1;exitDx=0;exitDy=0;entryX=0.5;entryY=0;entryDx=0;entryDy=0;" edge="1" parent="BqjUvejv8e-N4sVfCFiO-1" source="BqjUvejv8e-N4sVfCFiO-33" target="BqjUvejv8e-N4sVfCFiO-41">
          <mxGeometry relative="1" as="geometry" />
        </mxCell>
        <mxCell id="BqjUvejv8e-N4sVfCFiO-33" value="10" style="ellipse;whiteSpace=wrap;html=1;aspect=fixed;" vertex="1" parent="BqjUvejv8e-N4sVfCFiO-1">
          <mxGeometry x="430" y="320" width="60" height="60" as="geometry" />
        </mxCell>
        <mxCell id="BqjUvejv8e-N4sVfCFiO-34" style="edgeStyle=orthogonalEdgeStyle;rounded=0;orthogonalLoop=1;jettySize=auto;html=1;exitX=0;exitY=1;exitDx=0;exitDy=0;entryX=0.5;entryY=0;entryDx=0;entryDy=0;" edge="1" parent="BqjUvejv8e-N4sVfCFiO-1" source="BqjUvejv8e-N4sVfCFiO-36" target="BqjUvejv8e-N4sVfCFiO-37">
          <mxGeometry relative="1" as="geometry" />
        </mxCell>
        <mxCell id="BqjUvejv8e-N4sVfCFiO-35" style="edgeStyle=orthogonalEdgeStyle;rounded=0;orthogonalLoop=1;jettySize=auto;html=1;exitX=1;exitY=1;exitDx=0;exitDy=0;" edge="1" parent="BqjUvejv8e-N4sVfCFiO-1" source="BqjUvejv8e-N4sVfCFiO-36" target="BqjUvejv8e-N4sVfCFiO-38">
          <mxGeometry relative="1" as="geometry" />
        </mxCell>
        <mxCell id="BqjUvejv8e-N4sVfCFiO-36" value="16" style="ellipse;whiteSpace=wrap;html=1;aspect=fixed;" vertex="1" parent="BqjUvejv8e-N4sVfCFiO-1">
          <mxGeometry x="300" y="420" width="60" height="60" as="geometry" />
        </mxCell>
        <mxCell id="BqjUvejv8e-N4sVfCFiO-37" value="44" style="ellipse;whiteSpace=wrap;html=1;aspect=fixed;" vertex="1" parent="BqjUvejv8e-N4sVfCFiO-1">
          <mxGeometry x="220" y="490" width="60" height="60" as="geometry" />
        </mxCell>
        <mxCell id="BqjUvejv8e-N4sVfCFiO-38" value="85" style="ellipse;whiteSpace=wrap;html=1;aspect=fixed;" vertex="1" parent="BqjUvejv8e-N4sVfCFiO-1">
          <mxGeometry x="380" y="490" width="60" height="60" as="geometry" />
        </mxCell>
        <mxCell id="BqjUvejv8e-N4sVfCFiO-39" style="edgeStyle=orthogonalEdgeStyle;rounded=0;orthogonalLoop=1;jettySize=auto;html=1;exitX=0;exitY=1;exitDx=0;exitDy=0;entryX=0.5;entryY=0;entryDx=0;entryDy=0;" edge="1" parent="BqjUvejv8e-N4sVfCFiO-1" source="BqjUvejv8e-N4sVfCFiO-41" target="BqjUvejv8e-N4sVfCFiO-42">
          <mxGeometry relative="1" as="geometry" />
        </mxCell>
        <mxCell id="BqjUvejv8e-N4sVfCFiO-40" style="edgeStyle=orthogonalEdgeStyle;rounded=0;orthogonalLoop=1;jettySize=auto;html=1;exitX=1;exitY=1;exitDx=0;exitDy=0;" edge="1" parent="BqjUvejv8e-N4sVfCFiO-1" source="BqjUvejv8e-N4sVfCFiO-41" target="BqjUvejv8e-N4sVfCFiO-43">
          <mxGeometry relative="1" as="geometry" />
        </mxCell>
        <mxCell id="BqjUvejv8e-N4sVfCFiO-41" value="34" style="ellipse;whiteSpace=wrap;html=1;aspect=fixed;fillColor=#dae8fc;strokeColor=#6c8ebf;" vertex="1" parent="BqjUvejv8e-N4sVfCFiO-1">
          <mxGeometry x="570" y="430" width="60" height="60" as="geometry" />
        </mxCell>
        <mxCell id="BqjUvejv8e-N4sVfCFiO-42" value="23" style="ellipse;whiteSpace=wrap;html=1;aspect=fixed;" vertex="1" parent="BqjUvejv8e-N4sVfCFiO-1">
          <mxGeometry x="500" y="500" width="60" height="60" as="geometry" />
        </mxCell>
        <mxCell id="BqjUvejv8e-N4sVfCFiO-43" value="14" style="ellipse;whiteSpace=wrap;html=1;aspect=fixed;fillColor=#dae8fc;strokeColor=#6c8ebf;" vertex="1" parent="BqjUvejv8e-N4sVfCFiO-1">
          <mxGeometry x="650" y="510" width="60" height="60" as="geometry" />
        </mxCell>
        <mxCell id="BqjUvejv8e-N4sVfCFiO-44" value="21 Elementos" style="text;html=1;align=center;verticalAlign=middle;resizable=0;points=[];autosize=1;strokeColor=none;fillColor=none;" vertex="1" parent="BqjUvejv8e-N4sVfCFiO-1">
          <mxGeometry x="280" y="50" width="100" height="30" as="geometry" />
        </mxCell>
      </root>
    </mxGraphModel>
  </diagram>
  <diagram name="6" id="3jrGHKwoRsDXhcqIeEB4">
    <mxGraphModel dx="1446" dy="379" grid="1" gridSize="10" guides="1" tooltips="1" connect="1" arrows="1" fold="1" page="1" pageScale="1" pageWidth="850" pageHeight="1100" math="0" shadow="0">
      <root>
        <mxCell id="YN-KZAdW_p6ZLURU5EoO-0" />
        <mxCell id="YN-KZAdW_p6ZLURU5EoO-1" parent="YN-KZAdW_p6ZLURU5EoO-0" />
        <mxCell id="YN-KZAdW_p6ZLURU5EoO-2" value="&lt;font style=&quot;font-size: 16px;&quot;&gt;18 31 10 75 100 16 14 17 29 32 42 44 85 23 34 85 95 77 88 28 101&lt;/font&gt;" style="rounded=1;whiteSpace=wrap;html=1;" vertex="1" parent="YN-KZAdW_p6ZLURU5EoO-1">
          <mxGeometry x="-140" y="80" width="520" height="40" as="geometry" />
        </mxCell>
        <mxCell id="YN-KZAdW_p6ZLURU5EoO-3" style="edgeStyle=orthogonalEdgeStyle;rounded=0;orthogonalLoop=1;jettySize=auto;html=1;exitX=0;exitY=1;exitDx=0;exitDy=0;entryX=0.5;entryY=0;entryDx=0;entryDy=0;" edge="1" parent="YN-KZAdW_p6ZLURU5EoO-1" source="YN-KZAdW_p6ZLURU5EoO-5" target="YN-KZAdW_p6ZLURU5EoO-8">
          <mxGeometry relative="1" as="geometry" />
        </mxCell>
        <mxCell id="YN-KZAdW_p6ZLURU5EoO-4" style="edgeStyle=orthogonalEdgeStyle;rounded=0;orthogonalLoop=1;jettySize=auto;html=1;exitX=1;exitY=1;exitDx=0;exitDy=0;entryX=0.5;entryY=0;entryDx=0;entryDy=0;" edge="1" parent="YN-KZAdW_p6ZLURU5EoO-1" source="YN-KZAdW_p6ZLURU5EoO-5" target="YN-KZAdW_p6ZLURU5EoO-33">
          <mxGeometry relative="1" as="geometry" />
        </mxCell>
        <mxCell id="YN-KZAdW_p6ZLURU5EoO-5" value="18" style="ellipse;whiteSpace=wrap;html=1;aspect=fixed;" vertex="1" parent="YN-KZAdW_p6ZLURU5EoO-1">
          <mxGeometry x="90" y="160" width="60" height="60" as="geometry" />
        </mxCell>
        <mxCell id="YN-KZAdW_p6ZLURU5EoO-6" style="edgeStyle=orthogonalEdgeStyle;rounded=0;orthogonalLoop=1;jettySize=auto;html=1;exitX=0;exitY=1;exitDx=0;exitDy=0;entryX=0.5;entryY=0;entryDx=0;entryDy=0;" edge="1" parent="YN-KZAdW_p6ZLURU5EoO-1" source="YN-KZAdW_p6ZLURU5EoO-8" target="YN-KZAdW_p6ZLURU5EoO-11">
          <mxGeometry relative="1" as="geometry" />
        </mxCell>
        <mxCell id="YN-KZAdW_p6ZLURU5EoO-7" style="edgeStyle=orthogonalEdgeStyle;rounded=0;orthogonalLoop=1;jettySize=auto;html=1;exitX=1;exitY=1;exitDx=0;exitDy=0;entryX=0.5;entryY=0;entryDx=0;entryDy=0;" edge="1" parent="YN-KZAdW_p6ZLURU5EoO-1" source="YN-KZAdW_p6ZLURU5EoO-8" target="YN-KZAdW_p6ZLURU5EoO-24">
          <mxGeometry relative="1" as="geometry" />
        </mxCell>
        <mxCell id="YN-KZAdW_p6ZLURU5EoO-8" value="31" style="ellipse;whiteSpace=wrap;html=1;aspect=fixed;" vertex="1" parent="YN-KZAdW_p6ZLURU5EoO-1">
          <mxGeometry x="-280" y="320" width="60" height="60" as="geometry" />
        </mxCell>
        <mxCell id="YN-KZAdW_p6ZLURU5EoO-9" style="edgeStyle=orthogonalEdgeStyle;rounded=0;orthogonalLoop=1;jettySize=auto;html=1;exitX=0;exitY=1;exitDx=0;exitDy=0;entryX=0.5;entryY=0;entryDx=0;entryDy=0;" edge="1" parent="YN-KZAdW_p6ZLURU5EoO-1" source="YN-KZAdW_p6ZLURU5EoO-11" target="YN-KZAdW_p6ZLURU5EoO-14">
          <mxGeometry relative="1" as="geometry" />
        </mxCell>
        <mxCell id="YN-KZAdW_p6ZLURU5EoO-10" style="edgeStyle=orthogonalEdgeStyle;rounded=0;orthogonalLoop=1;jettySize=auto;html=1;exitX=1;exitY=1;exitDx=0;exitDy=0;" edge="1" parent="YN-KZAdW_p6ZLURU5EoO-1" source="YN-KZAdW_p6ZLURU5EoO-11" target="YN-KZAdW_p6ZLURU5EoO-18">
          <mxGeometry relative="1" as="geometry" />
        </mxCell>
        <mxCell id="YN-KZAdW_p6ZLURU5EoO-11" value="75" style="ellipse;whiteSpace=wrap;html=1;aspect=fixed;" vertex="1" parent="YN-KZAdW_p6ZLURU5EoO-1">
          <mxGeometry x="-520" y="410" width="60" height="60" as="geometry" />
        </mxCell>
        <mxCell id="YN-KZAdW_p6ZLURU5EoO-12" style="edgeStyle=orthogonalEdgeStyle;rounded=0;orthogonalLoop=1;jettySize=auto;html=1;exitX=1;exitY=1;exitDx=0;exitDy=0;entryX=0.5;entryY=0;entryDx=0;entryDy=0;" edge="1" parent="YN-KZAdW_p6ZLURU5EoO-1" source="YN-KZAdW_p6ZLURU5EoO-14" target="YN-KZAdW_p6ZLURU5EoO-15">
          <mxGeometry relative="1" as="geometry" />
        </mxCell>
        <mxCell id="YN-KZAdW_p6ZLURU5EoO-13" style="edgeStyle=orthogonalEdgeStyle;rounded=0;orthogonalLoop=1;jettySize=auto;html=1;exitX=0;exitY=1;exitDx=0;exitDy=0;entryX=0.5;entryY=0;entryDx=0;entryDy=0;" edge="1" parent="YN-KZAdW_p6ZLURU5EoO-1" source="YN-KZAdW_p6ZLURU5EoO-14" target="YN-KZAdW_p6ZLURU5EoO-21">
          <mxGeometry relative="1" as="geometry" />
        </mxCell>
        <mxCell id="YN-KZAdW_p6ZLURU5EoO-14" value="95" style="ellipse;whiteSpace=wrap;html=1;aspect=fixed;" vertex="1" parent="YN-KZAdW_p6ZLURU5EoO-1">
          <mxGeometry x="-650" y="490" width="60" height="60" as="geometry" />
        </mxCell>
        <mxCell id="YN-KZAdW_p6ZLURU5EoO-15" value="17" style="ellipse;whiteSpace=wrap;html=1;aspect=fixed;" vertex="1" parent="YN-KZAdW_p6ZLURU5EoO-1">
          <mxGeometry x="-560" y="570" width="60" height="60" as="geometry" />
        </mxCell>
        <mxCell id="YN-KZAdW_p6ZLURU5EoO-16" style="edgeStyle=orthogonalEdgeStyle;rounded=0;orthogonalLoop=1;jettySize=auto;html=1;exitX=1;exitY=1;exitDx=0;exitDy=0;entryX=0.5;entryY=0;entryDx=0;entryDy=0;" edge="1" parent="YN-KZAdW_p6ZLURU5EoO-1" source="YN-KZAdW_p6ZLURU5EoO-18" target="YN-KZAdW_p6ZLURU5EoO-19">
          <mxGeometry relative="1" as="geometry" />
        </mxCell>
        <mxCell id="YN-KZAdW_p6ZLURU5EoO-17" style="edgeStyle=orthogonalEdgeStyle;rounded=0;orthogonalLoop=1;jettySize=auto;html=1;exitX=0;exitY=1;exitDx=0;exitDy=0;entryX=0.5;entryY=0;entryDx=0;entryDy=0;" edge="1" parent="YN-KZAdW_p6ZLURU5EoO-1" source="YN-KZAdW_p6ZLURU5EoO-18" target="YN-KZAdW_p6ZLURU5EoO-20">
          <mxGeometry relative="1" as="geometry" />
        </mxCell>
        <mxCell id="YN-KZAdW_p6ZLURU5EoO-18" value="88" style="ellipse;whiteSpace=wrap;html=1;aspect=fixed;" vertex="1" parent="YN-KZAdW_p6ZLURU5EoO-1">
          <mxGeometry x="-385" y="490" width="60" height="60" as="geometry" />
        </mxCell>
        <mxCell id="YN-KZAdW_p6ZLURU5EoO-19" value="29" style="ellipse;whiteSpace=wrap;html=1;aspect=fixed;" vertex="1" parent="YN-KZAdW_p6ZLURU5EoO-1">
          <mxGeometry x="-315" y="570" width="60" height="60" as="geometry" />
        </mxCell>
        <mxCell id="YN-KZAdW_p6ZLURU5EoO-20" value="77" style="ellipse;whiteSpace=wrap;html=1;aspect=fixed;" vertex="1" parent="YN-KZAdW_p6ZLURU5EoO-1">
          <mxGeometry x="-455" y="570" width="60" height="60" as="geometry" />
        </mxCell>
        <mxCell id="YN-KZAdW_p6ZLURU5EoO-21" value="85" style="ellipse;whiteSpace=wrap;html=1;aspect=fixed;" vertex="1" parent="YN-KZAdW_p6ZLURU5EoO-1">
          <mxGeometry x="-740" y="570" width="60" height="60" as="geometry" />
        </mxCell>
        <mxCell id="YN-KZAdW_p6ZLURU5EoO-22" style="edgeStyle=orthogonalEdgeStyle;rounded=0;orthogonalLoop=1;jettySize=auto;html=1;exitX=0;exitY=1;exitDx=0;exitDy=0;entryX=0.5;entryY=0;entryDx=0;entryDy=0;" edge="1" parent="YN-KZAdW_p6ZLURU5EoO-1" source="YN-KZAdW_p6ZLURU5EoO-24" target="YN-KZAdW_p6ZLURU5EoO-27">
          <mxGeometry relative="1" as="geometry" />
        </mxCell>
        <mxCell id="YN-KZAdW_p6ZLURU5EoO-23" style="edgeStyle=orthogonalEdgeStyle;rounded=0;orthogonalLoop=1;jettySize=auto;html=1;exitX=1;exitY=1;exitDx=0;exitDy=0;" edge="1" parent="YN-KZAdW_p6ZLURU5EoO-1" source="YN-KZAdW_p6ZLURU5EoO-24" target="YN-KZAdW_p6ZLURU5EoO-29">
          <mxGeometry relative="1" as="geometry" />
        </mxCell>
        <mxCell id="YN-KZAdW_p6ZLURU5EoO-24" value="100" style="ellipse;whiteSpace=wrap;html=1;aspect=fixed;" vertex="1" parent="YN-KZAdW_p6ZLURU5EoO-1">
          <mxGeometry x="-20" y="410" width="60" height="60" as="geometry" />
        </mxCell>
        <mxCell id="YN-KZAdW_p6ZLURU5EoO-25" style="edgeStyle=orthogonalEdgeStyle;rounded=0;orthogonalLoop=1;jettySize=auto;html=1;exitX=1;exitY=1;exitDx=0;exitDy=0;entryX=0.5;entryY=0;entryDx=0;entryDy=0;" edge="1" parent="YN-KZAdW_p6ZLURU5EoO-1" source="YN-KZAdW_p6ZLURU5EoO-27" target="YN-KZAdW_p6ZLURU5EoO-28">
          <mxGeometry relative="1" as="geometry" />
        </mxCell>
        <mxCell id="YN-KZAdW_p6ZLURU5EoO-26" style="edgeStyle=orthogonalEdgeStyle;rounded=0;orthogonalLoop=1;jettySize=auto;html=1;exitX=0;exitY=1;exitDx=0;exitDy=0;entryX=0.5;entryY=0;entryDx=0;entryDy=0;" edge="1" parent="YN-KZAdW_p6ZLURU5EoO-1" source="YN-KZAdW_p6ZLURU5EoO-27" target="YN-KZAdW_p6ZLURU5EoO-30">
          <mxGeometry relative="1" as="geometry" />
        </mxCell>
        <mxCell id="YN-KZAdW_p6ZLURU5EoO-27" value="101" style="ellipse;whiteSpace=wrap;html=1;aspect=fixed;" vertex="1" parent="YN-KZAdW_p6ZLURU5EoO-1">
          <mxGeometry x="-150" y="490" width="60" height="60" as="geometry" />
        </mxCell>
        <mxCell id="YN-KZAdW_p6ZLURU5EoO-28" value="32" style="ellipse;whiteSpace=wrap;html=1;aspect=fixed;" vertex="1" parent="YN-KZAdW_p6ZLURU5EoO-1">
          <mxGeometry x="-60" y="570" width="60" height="60" as="geometry" />
        </mxCell>
        <mxCell id="YN-KZAdW_p6ZLURU5EoO-29" value="42" style="ellipse;whiteSpace=wrap;html=1;aspect=fixed;" vertex="1" parent="YN-KZAdW_p6ZLURU5EoO-1">
          <mxGeometry x="115" y="490" width="60" height="60" as="geometry" />
        </mxCell>
        <mxCell id="YN-KZAdW_p6ZLURU5EoO-30" value="28" style="ellipse;whiteSpace=wrap;html=1;aspect=fixed;" vertex="1" parent="YN-KZAdW_p6ZLURU5EoO-1">
          <mxGeometry x="-240" y="570" width="60" height="60" as="geometry" />
        </mxCell>
        <mxCell id="YN-KZAdW_p6ZLURU5EoO-31" style="edgeStyle=orthogonalEdgeStyle;rounded=0;orthogonalLoop=1;jettySize=auto;html=1;exitX=0;exitY=1;exitDx=0;exitDy=0;entryX=0.5;entryY=0;entryDx=0;entryDy=0;" edge="1" parent="YN-KZAdW_p6ZLURU5EoO-1" source="YN-KZAdW_p6ZLURU5EoO-33" target="YN-KZAdW_p6ZLURU5EoO-36">
          <mxGeometry relative="1" as="geometry" />
        </mxCell>
        <mxCell id="YN-KZAdW_p6ZLURU5EoO-32" style="edgeStyle=orthogonalEdgeStyle;rounded=0;orthogonalLoop=1;jettySize=auto;html=1;exitX=1;exitY=1;exitDx=0;exitDy=0;entryX=0.5;entryY=0;entryDx=0;entryDy=0;" edge="1" parent="YN-KZAdW_p6ZLURU5EoO-1" source="YN-KZAdW_p6ZLURU5EoO-33" target="YN-KZAdW_p6ZLURU5EoO-41">
          <mxGeometry relative="1" as="geometry" />
        </mxCell>
        <mxCell id="YN-KZAdW_p6ZLURU5EoO-33" value="10" style="ellipse;whiteSpace=wrap;html=1;aspect=fixed;" vertex="1" parent="YN-KZAdW_p6ZLURU5EoO-1">
          <mxGeometry x="430" y="320" width="60" height="60" as="geometry" />
        </mxCell>
        <mxCell id="YN-KZAdW_p6ZLURU5EoO-34" style="edgeStyle=orthogonalEdgeStyle;rounded=0;orthogonalLoop=1;jettySize=auto;html=1;exitX=0;exitY=1;exitDx=0;exitDy=0;entryX=0.5;entryY=0;entryDx=0;entryDy=0;" edge="1" parent="YN-KZAdW_p6ZLURU5EoO-1" source="YN-KZAdW_p6ZLURU5EoO-36" target="YN-KZAdW_p6ZLURU5EoO-37">
          <mxGeometry relative="1" as="geometry" />
        </mxCell>
        <mxCell id="YN-KZAdW_p6ZLURU5EoO-35" style="edgeStyle=orthogonalEdgeStyle;rounded=0;orthogonalLoop=1;jettySize=auto;html=1;exitX=1;exitY=1;exitDx=0;exitDy=0;" edge="1" parent="YN-KZAdW_p6ZLURU5EoO-1" source="YN-KZAdW_p6ZLURU5EoO-36" target="YN-KZAdW_p6ZLURU5EoO-38">
          <mxGeometry relative="1" as="geometry" />
        </mxCell>
        <mxCell id="YN-KZAdW_p6ZLURU5EoO-36" value="85" style="ellipse;whiteSpace=wrap;html=1;aspect=fixed;fillColor=#dae8fc;strokeColor=#6c8ebf;" vertex="1" parent="YN-KZAdW_p6ZLURU5EoO-1">
          <mxGeometry x="300" y="420" width="60" height="60" as="geometry" />
        </mxCell>
        <mxCell id="YN-KZAdW_p6ZLURU5EoO-37" value="44" style="ellipse;whiteSpace=wrap;html=1;aspect=fixed;" vertex="1" parent="YN-KZAdW_p6ZLURU5EoO-1">
          <mxGeometry x="220" y="490" width="60" height="60" as="geometry" />
        </mxCell>
        <mxCell id="YN-KZAdW_p6ZLURU5EoO-38" value="16" style="ellipse;whiteSpace=wrap;html=1;aspect=fixed;fillColor=#dae8fc;strokeColor=#6c8ebf;" vertex="1" parent="YN-KZAdW_p6ZLURU5EoO-1">
          <mxGeometry x="380" y="490" width="60" height="60" as="geometry" />
        </mxCell>
        <mxCell id="YN-KZAdW_p6ZLURU5EoO-39" style="edgeStyle=orthogonalEdgeStyle;rounded=0;orthogonalLoop=1;jettySize=auto;html=1;exitX=0;exitY=1;exitDx=0;exitDy=0;entryX=0.5;entryY=0;entryDx=0;entryDy=0;" edge="1" parent="YN-KZAdW_p6ZLURU5EoO-1" source="YN-KZAdW_p6ZLURU5EoO-41" target="YN-KZAdW_p6ZLURU5EoO-42">
          <mxGeometry relative="1" as="geometry" />
        </mxCell>
        <mxCell id="YN-KZAdW_p6ZLURU5EoO-40" style="edgeStyle=orthogonalEdgeStyle;rounded=0;orthogonalLoop=1;jettySize=auto;html=1;exitX=1;exitY=1;exitDx=0;exitDy=0;" edge="1" parent="YN-KZAdW_p6ZLURU5EoO-1" source="YN-KZAdW_p6ZLURU5EoO-41" target="YN-KZAdW_p6ZLURU5EoO-43">
          <mxGeometry relative="1" as="geometry" />
        </mxCell>
        <mxCell id="YN-KZAdW_p6ZLURU5EoO-41" value="34" style="ellipse;whiteSpace=wrap;html=1;aspect=fixed;" vertex="1" parent="YN-KZAdW_p6ZLURU5EoO-1">
          <mxGeometry x="570" y="430" width="60" height="60" as="geometry" />
        </mxCell>
        <mxCell id="YN-KZAdW_p6ZLURU5EoO-42" value="23" style="ellipse;whiteSpace=wrap;html=1;aspect=fixed;" vertex="1" parent="YN-KZAdW_p6ZLURU5EoO-1">
          <mxGeometry x="500" y="500" width="60" height="60" as="geometry" />
        </mxCell>
        <mxCell id="YN-KZAdW_p6ZLURU5EoO-43" value="14" style="ellipse;whiteSpace=wrap;html=1;aspect=fixed;" vertex="1" parent="YN-KZAdW_p6ZLURU5EoO-1">
          <mxGeometry x="650" y="510" width="60" height="60" as="geometry" />
        </mxCell>
        <mxCell id="YN-KZAdW_p6ZLURU5EoO-44" value="21 Elementos" style="text;html=1;align=center;verticalAlign=middle;resizable=0;points=[];autosize=1;strokeColor=none;fillColor=none;" vertex="1" parent="YN-KZAdW_p6ZLURU5EoO-1">
          <mxGeometry x="280" y="50" width="100" height="30" as="geometry" />
        </mxCell>
      </root>
    </mxGraphModel>
  </diagram>
  <diagram name="7" id="ryXuCIOixyEScXFh3QJJ">
    <mxGraphModel dx="2639" dy="1136" grid="1" gridSize="10" guides="1" tooltips="1" connect="1" arrows="1" fold="1" page="1" pageScale="1" pageWidth="850" pageHeight="1100" math="0" shadow="0">
      <root>
        <mxCell id="5QJIh5ydHkYh7Ftyfq4Z-0" />
        <mxCell id="5QJIh5ydHkYh7Ftyfq4Z-1" parent="5QJIh5ydHkYh7Ftyfq4Z-0" />
        <mxCell id="5QJIh5ydHkYh7Ftyfq4Z-2" value="&lt;font style=&quot;font-size: 16px;&quot;&gt;18 31 10 75 100 16 14 17 29 32 42 44 85 23 34 85 95 77 88 28 101&lt;/font&gt;" style="rounded=1;whiteSpace=wrap;html=1;" vertex="1" parent="5QJIh5ydHkYh7Ftyfq4Z-1">
          <mxGeometry x="-140" y="80" width="520" height="40" as="geometry" />
        </mxCell>
        <mxCell id="5QJIh5ydHkYh7Ftyfq4Z-3" style="edgeStyle=orthogonalEdgeStyle;rounded=0;orthogonalLoop=1;jettySize=auto;html=1;exitX=0;exitY=1;exitDx=0;exitDy=0;entryX=0.5;entryY=0;entryDx=0;entryDy=0;" edge="1" parent="5QJIh5ydHkYh7Ftyfq4Z-1" source="5QJIh5ydHkYh7Ftyfq4Z-5" target="5QJIh5ydHkYh7Ftyfq4Z-8">
          <mxGeometry relative="1" as="geometry" />
        </mxCell>
        <mxCell id="5QJIh5ydHkYh7Ftyfq4Z-4" style="edgeStyle=orthogonalEdgeStyle;rounded=0;orthogonalLoop=1;jettySize=auto;html=1;exitX=1;exitY=1;exitDx=0;exitDy=0;entryX=0.5;entryY=0;entryDx=0;entryDy=0;" edge="1" parent="5QJIh5ydHkYh7Ftyfq4Z-1" source="5QJIh5ydHkYh7Ftyfq4Z-5" target="5QJIh5ydHkYh7Ftyfq4Z-33">
          <mxGeometry relative="1" as="geometry" />
        </mxCell>
        <mxCell id="5QJIh5ydHkYh7Ftyfq4Z-5" value="18" style="ellipse;whiteSpace=wrap;html=1;aspect=fixed;" vertex="1" parent="5QJIh5ydHkYh7Ftyfq4Z-1">
          <mxGeometry x="90" y="160" width="60" height="60" as="geometry" />
        </mxCell>
        <mxCell id="5QJIh5ydHkYh7Ftyfq4Z-6" style="edgeStyle=orthogonalEdgeStyle;rounded=0;orthogonalLoop=1;jettySize=auto;html=1;exitX=0;exitY=1;exitDx=0;exitDy=0;entryX=0.5;entryY=0;entryDx=0;entryDy=0;" edge="1" parent="5QJIh5ydHkYh7Ftyfq4Z-1" source="5QJIh5ydHkYh7Ftyfq4Z-8" target="5QJIh5ydHkYh7Ftyfq4Z-11">
          <mxGeometry relative="1" as="geometry" />
        </mxCell>
        <mxCell id="5QJIh5ydHkYh7Ftyfq4Z-7" style="edgeStyle=orthogonalEdgeStyle;rounded=0;orthogonalLoop=1;jettySize=auto;html=1;exitX=1;exitY=1;exitDx=0;exitDy=0;entryX=0.5;entryY=0;entryDx=0;entryDy=0;" edge="1" parent="5QJIh5ydHkYh7Ftyfq4Z-1" source="5QJIh5ydHkYh7Ftyfq4Z-8" target="5QJIh5ydHkYh7Ftyfq4Z-24">
          <mxGeometry relative="1" as="geometry" />
        </mxCell>
        <mxCell id="5QJIh5ydHkYh7Ftyfq4Z-8" value="31" style="ellipse;whiteSpace=wrap;html=1;aspect=fixed;" vertex="1" parent="5QJIh5ydHkYh7Ftyfq4Z-1">
          <mxGeometry x="-280" y="320" width="60" height="60" as="geometry" />
        </mxCell>
        <mxCell id="5QJIh5ydHkYh7Ftyfq4Z-9" style="edgeStyle=orthogonalEdgeStyle;rounded=0;orthogonalLoop=1;jettySize=auto;html=1;exitX=0;exitY=1;exitDx=0;exitDy=0;entryX=0.5;entryY=0;entryDx=0;entryDy=0;" edge="1" parent="5QJIh5ydHkYh7Ftyfq4Z-1" source="5QJIh5ydHkYh7Ftyfq4Z-11" target="5QJIh5ydHkYh7Ftyfq4Z-14">
          <mxGeometry relative="1" as="geometry" />
        </mxCell>
        <mxCell id="5QJIh5ydHkYh7Ftyfq4Z-10" style="edgeStyle=orthogonalEdgeStyle;rounded=0;orthogonalLoop=1;jettySize=auto;html=1;exitX=1;exitY=1;exitDx=0;exitDy=0;" edge="1" parent="5QJIh5ydHkYh7Ftyfq4Z-1" source="5QJIh5ydHkYh7Ftyfq4Z-11" target="5QJIh5ydHkYh7Ftyfq4Z-18">
          <mxGeometry relative="1" as="geometry" />
        </mxCell>
        <mxCell id="5QJIh5ydHkYh7Ftyfq4Z-11" value="75" style="ellipse;whiteSpace=wrap;html=1;aspect=fixed;" vertex="1" parent="5QJIh5ydHkYh7Ftyfq4Z-1">
          <mxGeometry x="-520" y="410" width="60" height="60" as="geometry" />
        </mxCell>
        <mxCell id="5QJIh5ydHkYh7Ftyfq4Z-12" style="edgeStyle=orthogonalEdgeStyle;rounded=0;orthogonalLoop=1;jettySize=auto;html=1;exitX=1;exitY=1;exitDx=0;exitDy=0;entryX=0.5;entryY=0;entryDx=0;entryDy=0;" edge="1" parent="5QJIh5ydHkYh7Ftyfq4Z-1" source="5QJIh5ydHkYh7Ftyfq4Z-14" target="5QJIh5ydHkYh7Ftyfq4Z-15">
          <mxGeometry relative="1" as="geometry" />
        </mxCell>
        <mxCell id="5QJIh5ydHkYh7Ftyfq4Z-13" style="edgeStyle=orthogonalEdgeStyle;rounded=0;orthogonalLoop=1;jettySize=auto;html=1;exitX=0;exitY=1;exitDx=0;exitDy=0;entryX=0.5;entryY=0;entryDx=0;entryDy=0;" edge="1" parent="5QJIh5ydHkYh7Ftyfq4Z-1" source="5QJIh5ydHkYh7Ftyfq4Z-14" target="5QJIh5ydHkYh7Ftyfq4Z-21">
          <mxGeometry relative="1" as="geometry" />
        </mxCell>
        <mxCell id="5QJIh5ydHkYh7Ftyfq4Z-14" value="95" style="ellipse;whiteSpace=wrap;html=1;aspect=fixed;" vertex="1" parent="5QJIh5ydHkYh7Ftyfq4Z-1">
          <mxGeometry x="-650" y="490" width="60" height="60" as="geometry" />
        </mxCell>
        <mxCell id="5QJIh5ydHkYh7Ftyfq4Z-15" value="17" style="ellipse;whiteSpace=wrap;html=1;aspect=fixed;" vertex="1" parent="5QJIh5ydHkYh7Ftyfq4Z-1">
          <mxGeometry x="-560" y="570" width="60" height="60" as="geometry" />
        </mxCell>
        <mxCell id="5QJIh5ydHkYh7Ftyfq4Z-16" style="edgeStyle=orthogonalEdgeStyle;rounded=0;orthogonalLoop=1;jettySize=auto;html=1;exitX=1;exitY=1;exitDx=0;exitDy=0;entryX=0.5;entryY=0;entryDx=0;entryDy=0;" edge="1" parent="5QJIh5ydHkYh7Ftyfq4Z-1" source="5QJIh5ydHkYh7Ftyfq4Z-18" target="5QJIh5ydHkYh7Ftyfq4Z-19">
          <mxGeometry relative="1" as="geometry" />
        </mxCell>
        <mxCell id="5QJIh5ydHkYh7Ftyfq4Z-17" style="edgeStyle=orthogonalEdgeStyle;rounded=0;orthogonalLoop=1;jettySize=auto;html=1;exitX=0;exitY=1;exitDx=0;exitDy=0;entryX=0.5;entryY=0;entryDx=0;entryDy=0;" edge="1" parent="5QJIh5ydHkYh7Ftyfq4Z-1" source="5QJIh5ydHkYh7Ftyfq4Z-18" target="5QJIh5ydHkYh7Ftyfq4Z-20">
          <mxGeometry relative="1" as="geometry" />
        </mxCell>
        <mxCell id="5QJIh5ydHkYh7Ftyfq4Z-18" value="88" style="ellipse;whiteSpace=wrap;html=1;aspect=fixed;" vertex="1" parent="5QJIh5ydHkYh7Ftyfq4Z-1">
          <mxGeometry x="-385" y="490" width="60" height="60" as="geometry" />
        </mxCell>
        <mxCell id="5QJIh5ydHkYh7Ftyfq4Z-19" value="29" style="ellipse;whiteSpace=wrap;html=1;aspect=fixed;" vertex="1" parent="5QJIh5ydHkYh7Ftyfq4Z-1">
          <mxGeometry x="-315" y="570" width="60" height="60" as="geometry" />
        </mxCell>
        <mxCell id="5QJIh5ydHkYh7Ftyfq4Z-20" value="77" style="ellipse;whiteSpace=wrap;html=1;aspect=fixed;" vertex="1" parent="5QJIh5ydHkYh7Ftyfq4Z-1">
          <mxGeometry x="-455" y="570" width="60" height="60" as="geometry" />
        </mxCell>
        <mxCell id="5QJIh5ydHkYh7Ftyfq4Z-21" value="85" style="ellipse;whiteSpace=wrap;html=1;aspect=fixed;" vertex="1" parent="5QJIh5ydHkYh7Ftyfq4Z-1">
          <mxGeometry x="-740" y="570" width="60" height="60" as="geometry" />
        </mxCell>
        <mxCell id="5QJIh5ydHkYh7Ftyfq4Z-22" style="edgeStyle=orthogonalEdgeStyle;rounded=0;orthogonalLoop=1;jettySize=auto;html=1;exitX=0;exitY=1;exitDx=0;exitDy=0;entryX=0.5;entryY=0;entryDx=0;entryDy=0;" edge="1" parent="5QJIh5ydHkYh7Ftyfq4Z-1" source="5QJIh5ydHkYh7Ftyfq4Z-24" target="5QJIh5ydHkYh7Ftyfq4Z-27">
          <mxGeometry relative="1" as="geometry" />
        </mxCell>
        <mxCell id="5QJIh5ydHkYh7Ftyfq4Z-23" style="edgeStyle=orthogonalEdgeStyle;rounded=0;orthogonalLoop=1;jettySize=auto;html=1;exitX=1;exitY=1;exitDx=0;exitDy=0;" edge="1" parent="5QJIh5ydHkYh7Ftyfq4Z-1" source="5QJIh5ydHkYh7Ftyfq4Z-24" target="5QJIh5ydHkYh7Ftyfq4Z-29">
          <mxGeometry relative="1" as="geometry" />
        </mxCell>
        <mxCell id="5QJIh5ydHkYh7Ftyfq4Z-24" value="101" style="ellipse;whiteSpace=wrap;html=1;aspect=fixed;fillColor=#dae8fc;strokeColor=#6c8ebf;" vertex="1" parent="5QJIh5ydHkYh7Ftyfq4Z-1">
          <mxGeometry x="-20" y="410" width="60" height="60" as="geometry" />
        </mxCell>
        <mxCell id="5QJIh5ydHkYh7Ftyfq4Z-25" style="edgeStyle=orthogonalEdgeStyle;rounded=0;orthogonalLoop=1;jettySize=auto;html=1;exitX=1;exitY=1;exitDx=0;exitDy=0;entryX=0.5;entryY=0;entryDx=0;entryDy=0;" edge="1" parent="5QJIh5ydHkYh7Ftyfq4Z-1" source="5QJIh5ydHkYh7Ftyfq4Z-27" target="5QJIh5ydHkYh7Ftyfq4Z-28">
          <mxGeometry relative="1" as="geometry" />
        </mxCell>
        <mxCell id="5QJIh5ydHkYh7Ftyfq4Z-26" style="edgeStyle=orthogonalEdgeStyle;rounded=0;orthogonalLoop=1;jettySize=auto;html=1;exitX=0;exitY=1;exitDx=0;exitDy=0;entryX=0.5;entryY=0;entryDx=0;entryDy=0;" edge="1" parent="5QJIh5ydHkYh7Ftyfq4Z-1" source="5QJIh5ydHkYh7Ftyfq4Z-27" target="5QJIh5ydHkYh7Ftyfq4Z-30">
          <mxGeometry relative="1" as="geometry" />
        </mxCell>
        <mxCell id="5QJIh5ydHkYh7Ftyfq4Z-27" value="100" style="ellipse;whiteSpace=wrap;html=1;aspect=fixed;fillColor=#dae8fc;strokeColor=#6c8ebf;" vertex="1" parent="5QJIh5ydHkYh7Ftyfq4Z-1">
          <mxGeometry x="-150" y="490" width="60" height="60" as="geometry" />
        </mxCell>
        <mxCell id="5QJIh5ydHkYh7Ftyfq4Z-28" value="32" style="ellipse;whiteSpace=wrap;html=1;aspect=fixed;" vertex="1" parent="5QJIh5ydHkYh7Ftyfq4Z-1">
          <mxGeometry x="-60" y="570" width="60" height="60" as="geometry" />
        </mxCell>
        <mxCell id="5QJIh5ydHkYh7Ftyfq4Z-29" value="42" style="ellipse;whiteSpace=wrap;html=1;aspect=fixed;" vertex="1" parent="5QJIh5ydHkYh7Ftyfq4Z-1">
          <mxGeometry x="115" y="490" width="60" height="60" as="geometry" />
        </mxCell>
        <mxCell id="5QJIh5ydHkYh7Ftyfq4Z-30" value="28" style="ellipse;whiteSpace=wrap;html=1;aspect=fixed;" vertex="1" parent="5QJIh5ydHkYh7Ftyfq4Z-1">
          <mxGeometry x="-240" y="570" width="60" height="60" as="geometry" />
        </mxCell>
        <mxCell id="5QJIh5ydHkYh7Ftyfq4Z-31" style="edgeStyle=orthogonalEdgeStyle;rounded=0;orthogonalLoop=1;jettySize=auto;html=1;exitX=0;exitY=1;exitDx=0;exitDy=0;entryX=0.5;entryY=0;entryDx=0;entryDy=0;" edge="1" parent="5QJIh5ydHkYh7Ftyfq4Z-1" source="5QJIh5ydHkYh7Ftyfq4Z-33" target="5QJIh5ydHkYh7Ftyfq4Z-36">
          <mxGeometry relative="1" as="geometry" />
        </mxCell>
        <mxCell id="5QJIh5ydHkYh7Ftyfq4Z-32" style="edgeStyle=orthogonalEdgeStyle;rounded=0;orthogonalLoop=1;jettySize=auto;html=1;exitX=1;exitY=1;exitDx=0;exitDy=0;entryX=0.5;entryY=0;entryDx=0;entryDy=0;" edge="1" parent="5QJIh5ydHkYh7Ftyfq4Z-1" source="5QJIh5ydHkYh7Ftyfq4Z-33" target="5QJIh5ydHkYh7Ftyfq4Z-41">
          <mxGeometry relative="1" as="geometry" />
        </mxCell>
        <mxCell id="5QJIh5ydHkYh7Ftyfq4Z-33" value="10" style="ellipse;whiteSpace=wrap;html=1;aspect=fixed;" vertex="1" parent="5QJIh5ydHkYh7Ftyfq4Z-1">
          <mxGeometry x="430" y="320" width="60" height="60" as="geometry" />
        </mxCell>
        <mxCell id="5QJIh5ydHkYh7Ftyfq4Z-34" style="edgeStyle=orthogonalEdgeStyle;rounded=0;orthogonalLoop=1;jettySize=auto;html=1;exitX=0;exitY=1;exitDx=0;exitDy=0;entryX=0.5;entryY=0;entryDx=0;entryDy=0;" edge="1" parent="5QJIh5ydHkYh7Ftyfq4Z-1" source="5QJIh5ydHkYh7Ftyfq4Z-36" target="5QJIh5ydHkYh7Ftyfq4Z-37">
          <mxGeometry relative="1" as="geometry" />
        </mxCell>
        <mxCell id="5QJIh5ydHkYh7Ftyfq4Z-35" style="edgeStyle=orthogonalEdgeStyle;rounded=0;orthogonalLoop=1;jettySize=auto;html=1;exitX=1;exitY=1;exitDx=0;exitDy=0;" edge="1" parent="5QJIh5ydHkYh7Ftyfq4Z-1" source="5QJIh5ydHkYh7Ftyfq4Z-36" target="5QJIh5ydHkYh7Ftyfq4Z-38">
          <mxGeometry relative="1" as="geometry" />
        </mxCell>
        <mxCell id="5QJIh5ydHkYh7Ftyfq4Z-36" value="85" style="ellipse;whiteSpace=wrap;html=1;aspect=fixed;" vertex="1" parent="5QJIh5ydHkYh7Ftyfq4Z-1">
          <mxGeometry x="300" y="420" width="60" height="60" as="geometry" />
        </mxCell>
        <mxCell id="5QJIh5ydHkYh7Ftyfq4Z-37" value="44" style="ellipse;whiteSpace=wrap;html=1;aspect=fixed;" vertex="1" parent="5QJIh5ydHkYh7Ftyfq4Z-1">
          <mxGeometry x="220" y="490" width="60" height="60" as="geometry" />
        </mxCell>
        <mxCell id="5QJIh5ydHkYh7Ftyfq4Z-38" value="16" style="ellipse;whiteSpace=wrap;html=1;aspect=fixed;" vertex="1" parent="5QJIh5ydHkYh7Ftyfq4Z-1">
          <mxGeometry x="380" y="490" width="60" height="60" as="geometry" />
        </mxCell>
        <mxCell id="5QJIh5ydHkYh7Ftyfq4Z-39" style="edgeStyle=orthogonalEdgeStyle;rounded=0;orthogonalLoop=1;jettySize=auto;html=1;exitX=0;exitY=1;exitDx=0;exitDy=0;entryX=0.5;entryY=0;entryDx=0;entryDy=0;" edge="1" parent="5QJIh5ydHkYh7Ftyfq4Z-1" source="5QJIh5ydHkYh7Ftyfq4Z-41" target="5QJIh5ydHkYh7Ftyfq4Z-42">
          <mxGeometry relative="1" as="geometry" />
        </mxCell>
        <mxCell id="5QJIh5ydHkYh7Ftyfq4Z-40" style="edgeStyle=orthogonalEdgeStyle;rounded=0;orthogonalLoop=1;jettySize=auto;html=1;exitX=1;exitY=1;exitDx=0;exitDy=0;" edge="1" parent="5QJIh5ydHkYh7Ftyfq4Z-1" source="5QJIh5ydHkYh7Ftyfq4Z-41" target="5QJIh5ydHkYh7Ftyfq4Z-43">
          <mxGeometry relative="1" as="geometry" />
        </mxCell>
        <mxCell id="5QJIh5ydHkYh7Ftyfq4Z-41" value="34" style="ellipse;whiteSpace=wrap;html=1;aspect=fixed;" vertex="1" parent="5QJIh5ydHkYh7Ftyfq4Z-1">
          <mxGeometry x="570" y="430" width="60" height="60" as="geometry" />
        </mxCell>
        <mxCell id="5QJIh5ydHkYh7Ftyfq4Z-42" value="23" style="ellipse;whiteSpace=wrap;html=1;aspect=fixed;" vertex="1" parent="5QJIh5ydHkYh7Ftyfq4Z-1">
          <mxGeometry x="500" y="500" width="60" height="60" as="geometry" />
        </mxCell>
        <mxCell id="5QJIh5ydHkYh7Ftyfq4Z-43" value="14" style="ellipse;whiteSpace=wrap;html=1;aspect=fixed;" vertex="1" parent="5QJIh5ydHkYh7Ftyfq4Z-1">
          <mxGeometry x="650" y="510" width="60" height="60" as="geometry" />
        </mxCell>
        <mxCell id="5QJIh5ydHkYh7Ftyfq4Z-44" value="21 Elementos" style="text;html=1;align=center;verticalAlign=middle;resizable=0;points=[];autosize=1;strokeColor=none;fillColor=none;" vertex="1" parent="5QJIh5ydHkYh7Ftyfq4Z-1">
          <mxGeometry x="280" y="50" width="100" height="30" as="geometry" />
        </mxCell>
      </root>
    </mxGraphModel>
  </diagram>
  <diagram name="8" id="jZHpSZ77YDBz50jNkoq3">
    <mxGraphModel dx="2639" dy="1136" grid="1" gridSize="10" guides="1" tooltips="1" connect="1" arrows="1" fold="1" page="1" pageScale="1" pageWidth="850" pageHeight="1100" math="0" shadow="0">
      <root>
        <mxCell id="VMa86CsUGFE3nFp9-qTs-0" />
        <mxCell id="VMa86CsUGFE3nFp9-qTs-1" parent="VMa86CsUGFE3nFp9-qTs-0" />
        <mxCell id="VMa86CsUGFE3nFp9-qTs-2" value="&lt;font style=&quot;font-size: 16px;&quot;&gt;18 31 10 75 100 16 14 17 29 32 42 44 85 23 34 85 95 77 88 28 101&lt;/font&gt;" style="rounded=1;whiteSpace=wrap;html=1;" vertex="1" parent="VMa86CsUGFE3nFp9-qTs-1">
          <mxGeometry x="-140" y="80" width="520" height="40" as="geometry" />
        </mxCell>
        <mxCell id="VMa86CsUGFE3nFp9-qTs-3" style="edgeStyle=orthogonalEdgeStyle;rounded=0;orthogonalLoop=1;jettySize=auto;html=1;exitX=0;exitY=1;exitDx=0;exitDy=0;entryX=0.5;entryY=0;entryDx=0;entryDy=0;" edge="1" parent="VMa86CsUGFE3nFp9-qTs-1" source="VMa86CsUGFE3nFp9-qTs-5" target="VMa86CsUGFE3nFp9-qTs-8">
          <mxGeometry relative="1" as="geometry" />
        </mxCell>
        <mxCell id="VMa86CsUGFE3nFp9-qTs-4" style="edgeStyle=orthogonalEdgeStyle;rounded=0;orthogonalLoop=1;jettySize=auto;html=1;exitX=1;exitY=1;exitDx=0;exitDy=0;entryX=0.5;entryY=0;entryDx=0;entryDy=0;" edge="1" parent="VMa86CsUGFE3nFp9-qTs-1" source="VMa86CsUGFE3nFp9-qTs-5" target="VMa86CsUGFE3nFp9-qTs-33">
          <mxGeometry relative="1" as="geometry" />
        </mxCell>
        <mxCell id="VMa86CsUGFE3nFp9-qTs-5" value="18" style="ellipse;whiteSpace=wrap;html=1;aspect=fixed;" vertex="1" parent="VMa86CsUGFE3nFp9-qTs-1">
          <mxGeometry x="90" y="160" width="60" height="60" as="geometry" />
        </mxCell>
        <mxCell id="VMa86CsUGFE3nFp9-qTs-6" style="edgeStyle=orthogonalEdgeStyle;rounded=0;orthogonalLoop=1;jettySize=auto;html=1;exitX=0;exitY=1;exitDx=0;exitDy=0;entryX=0.5;entryY=0;entryDx=0;entryDy=0;" edge="1" parent="VMa86CsUGFE3nFp9-qTs-1" source="VMa86CsUGFE3nFp9-qTs-8" target="VMa86CsUGFE3nFp9-qTs-11">
          <mxGeometry relative="1" as="geometry" />
        </mxCell>
        <mxCell id="VMa86CsUGFE3nFp9-qTs-7" style="edgeStyle=orthogonalEdgeStyle;rounded=0;orthogonalLoop=1;jettySize=auto;html=1;exitX=1;exitY=1;exitDx=0;exitDy=0;entryX=0.5;entryY=0;entryDx=0;entryDy=0;" edge="1" parent="VMa86CsUGFE3nFp9-qTs-1" source="VMa86CsUGFE3nFp9-qTs-8" target="VMa86CsUGFE3nFp9-qTs-24">
          <mxGeometry relative="1" as="geometry" />
        </mxCell>
        <mxCell id="VMa86CsUGFE3nFp9-qTs-8" value="31" style="ellipse;whiteSpace=wrap;html=1;aspect=fixed;" vertex="1" parent="VMa86CsUGFE3nFp9-qTs-1">
          <mxGeometry x="-280" y="320" width="60" height="60" as="geometry" />
        </mxCell>
        <mxCell id="VMa86CsUGFE3nFp9-qTs-9" style="edgeStyle=orthogonalEdgeStyle;rounded=0;orthogonalLoop=1;jettySize=auto;html=1;exitX=0;exitY=1;exitDx=0;exitDy=0;entryX=0.5;entryY=0;entryDx=0;entryDy=0;" edge="1" parent="VMa86CsUGFE3nFp9-qTs-1" source="VMa86CsUGFE3nFp9-qTs-11" target="VMa86CsUGFE3nFp9-qTs-14">
          <mxGeometry relative="1" as="geometry" />
        </mxCell>
        <mxCell id="VMa86CsUGFE3nFp9-qTs-10" style="edgeStyle=orthogonalEdgeStyle;rounded=0;orthogonalLoop=1;jettySize=auto;html=1;exitX=1;exitY=1;exitDx=0;exitDy=0;" edge="1" parent="VMa86CsUGFE3nFp9-qTs-1" source="VMa86CsUGFE3nFp9-qTs-11" target="VMa86CsUGFE3nFp9-qTs-18">
          <mxGeometry relative="1" as="geometry" />
        </mxCell>
        <mxCell id="VMa86CsUGFE3nFp9-qTs-11" value="95" style="ellipse;whiteSpace=wrap;html=1;aspect=fixed;fillColor=#dae8fc;strokeColor=#6c8ebf;" vertex="1" parent="VMa86CsUGFE3nFp9-qTs-1">
          <mxGeometry x="-520" y="410" width="60" height="60" as="geometry" />
        </mxCell>
        <mxCell id="VMa86CsUGFE3nFp9-qTs-12" style="edgeStyle=orthogonalEdgeStyle;rounded=0;orthogonalLoop=1;jettySize=auto;html=1;exitX=1;exitY=1;exitDx=0;exitDy=0;entryX=0.5;entryY=0;entryDx=0;entryDy=0;" edge="1" parent="VMa86CsUGFE3nFp9-qTs-1" source="VMa86CsUGFE3nFp9-qTs-14" target="VMa86CsUGFE3nFp9-qTs-15">
          <mxGeometry relative="1" as="geometry" />
        </mxCell>
        <mxCell id="VMa86CsUGFE3nFp9-qTs-13" style="edgeStyle=orthogonalEdgeStyle;rounded=0;orthogonalLoop=1;jettySize=auto;html=1;exitX=0;exitY=1;exitDx=0;exitDy=0;entryX=0.5;entryY=0;entryDx=0;entryDy=0;" edge="1" parent="VMa86CsUGFE3nFp9-qTs-1" source="VMa86CsUGFE3nFp9-qTs-14" target="VMa86CsUGFE3nFp9-qTs-21">
          <mxGeometry relative="1" as="geometry" />
        </mxCell>
        <mxCell id="VMa86CsUGFE3nFp9-qTs-14" value="75" style="ellipse;whiteSpace=wrap;html=1;aspect=fixed;fillColor=#dae8fc;strokeColor=#6c8ebf;" vertex="1" parent="VMa86CsUGFE3nFp9-qTs-1">
          <mxGeometry x="-650" y="490" width="60" height="60" as="geometry" />
        </mxCell>
        <mxCell id="VMa86CsUGFE3nFp9-qTs-15" value="17" style="ellipse;whiteSpace=wrap;html=1;aspect=fixed;" vertex="1" parent="VMa86CsUGFE3nFp9-qTs-1">
          <mxGeometry x="-560" y="570" width="60" height="60" as="geometry" />
        </mxCell>
        <mxCell id="VMa86CsUGFE3nFp9-qTs-16" style="edgeStyle=orthogonalEdgeStyle;rounded=0;orthogonalLoop=1;jettySize=auto;html=1;exitX=1;exitY=1;exitDx=0;exitDy=0;entryX=0.5;entryY=0;entryDx=0;entryDy=0;" edge="1" parent="VMa86CsUGFE3nFp9-qTs-1" source="VMa86CsUGFE3nFp9-qTs-18" target="VMa86CsUGFE3nFp9-qTs-19">
          <mxGeometry relative="1" as="geometry" />
        </mxCell>
        <mxCell id="VMa86CsUGFE3nFp9-qTs-17" style="edgeStyle=orthogonalEdgeStyle;rounded=0;orthogonalLoop=1;jettySize=auto;html=1;exitX=0;exitY=1;exitDx=0;exitDy=0;entryX=0.5;entryY=0;entryDx=0;entryDy=0;" edge="1" parent="VMa86CsUGFE3nFp9-qTs-1" source="VMa86CsUGFE3nFp9-qTs-18" target="VMa86CsUGFE3nFp9-qTs-20">
          <mxGeometry relative="1" as="geometry" />
        </mxCell>
        <mxCell id="VMa86CsUGFE3nFp9-qTs-18" value="88" style="ellipse;whiteSpace=wrap;html=1;aspect=fixed;" vertex="1" parent="VMa86CsUGFE3nFp9-qTs-1">
          <mxGeometry x="-385" y="490" width="60" height="60" as="geometry" />
        </mxCell>
        <mxCell id="VMa86CsUGFE3nFp9-qTs-19" value="29" style="ellipse;whiteSpace=wrap;html=1;aspect=fixed;" vertex="1" parent="VMa86CsUGFE3nFp9-qTs-1">
          <mxGeometry x="-315" y="570" width="60" height="60" as="geometry" />
        </mxCell>
        <mxCell id="VMa86CsUGFE3nFp9-qTs-20" value="77" style="ellipse;whiteSpace=wrap;html=1;aspect=fixed;" vertex="1" parent="VMa86CsUGFE3nFp9-qTs-1">
          <mxGeometry x="-455" y="570" width="60" height="60" as="geometry" />
        </mxCell>
        <mxCell id="VMa86CsUGFE3nFp9-qTs-21" value="85" style="ellipse;whiteSpace=wrap;html=1;aspect=fixed;" vertex="1" parent="VMa86CsUGFE3nFp9-qTs-1">
          <mxGeometry x="-740" y="570" width="60" height="60" as="geometry" />
        </mxCell>
        <mxCell id="VMa86CsUGFE3nFp9-qTs-22" style="edgeStyle=orthogonalEdgeStyle;rounded=0;orthogonalLoop=1;jettySize=auto;html=1;exitX=0;exitY=1;exitDx=0;exitDy=0;entryX=0.5;entryY=0;entryDx=0;entryDy=0;" edge="1" parent="VMa86CsUGFE3nFp9-qTs-1" source="VMa86CsUGFE3nFp9-qTs-24" target="VMa86CsUGFE3nFp9-qTs-27">
          <mxGeometry relative="1" as="geometry" />
        </mxCell>
        <mxCell id="VMa86CsUGFE3nFp9-qTs-23" style="edgeStyle=orthogonalEdgeStyle;rounded=0;orthogonalLoop=1;jettySize=auto;html=1;exitX=1;exitY=1;exitDx=0;exitDy=0;" edge="1" parent="VMa86CsUGFE3nFp9-qTs-1" source="VMa86CsUGFE3nFp9-qTs-24" target="VMa86CsUGFE3nFp9-qTs-29">
          <mxGeometry relative="1" as="geometry" />
        </mxCell>
        <mxCell id="VMa86CsUGFE3nFp9-qTs-24" value="101" style="ellipse;whiteSpace=wrap;html=1;aspect=fixed;" vertex="1" parent="VMa86CsUGFE3nFp9-qTs-1">
          <mxGeometry x="-20" y="410" width="60" height="60" as="geometry" />
        </mxCell>
        <mxCell id="VMa86CsUGFE3nFp9-qTs-25" style="edgeStyle=orthogonalEdgeStyle;rounded=0;orthogonalLoop=1;jettySize=auto;html=1;exitX=1;exitY=1;exitDx=0;exitDy=0;entryX=0.5;entryY=0;entryDx=0;entryDy=0;" edge="1" parent="VMa86CsUGFE3nFp9-qTs-1" source="VMa86CsUGFE3nFp9-qTs-27" target="VMa86CsUGFE3nFp9-qTs-28">
          <mxGeometry relative="1" as="geometry" />
        </mxCell>
        <mxCell id="VMa86CsUGFE3nFp9-qTs-26" style="edgeStyle=orthogonalEdgeStyle;rounded=0;orthogonalLoop=1;jettySize=auto;html=1;exitX=0;exitY=1;exitDx=0;exitDy=0;entryX=0.5;entryY=0;entryDx=0;entryDy=0;" edge="1" parent="VMa86CsUGFE3nFp9-qTs-1" source="VMa86CsUGFE3nFp9-qTs-27" target="VMa86CsUGFE3nFp9-qTs-30">
          <mxGeometry relative="1" as="geometry" />
        </mxCell>
        <mxCell id="VMa86CsUGFE3nFp9-qTs-27" value="100" style="ellipse;whiteSpace=wrap;html=1;aspect=fixed;" vertex="1" parent="VMa86CsUGFE3nFp9-qTs-1">
          <mxGeometry x="-150" y="490" width="60" height="60" as="geometry" />
        </mxCell>
        <mxCell id="VMa86CsUGFE3nFp9-qTs-28" value="32" style="ellipse;whiteSpace=wrap;html=1;aspect=fixed;" vertex="1" parent="VMa86CsUGFE3nFp9-qTs-1">
          <mxGeometry x="-60" y="570" width="60" height="60" as="geometry" />
        </mxCell>
        <mxCell id="VMa86CsUGFE3nFp9-qTs-29" value="42" style="ellipse;whiteSpace=wrap;html=1;aspect=fixed;" vertex="1" parent="VMa86CsUGFE3nFp9-qTs-1">
          <mxGeometry x="115" y="490" width="60" height="60" as="geometry" />
        </mxCell>
        <mxCell id="VMa86CsUGFE3nFp9-qTs-30" value="28" style="ellipse;whiteSpace=wrap;html=1;aspect=fixed;" vertex="1" parent="VMa86CsUGFE3nFp9-qTs-1">
          <mxGeometry x="-240" y="570" width="60" height="60" as="geometry" />
        </mxCell>
        <mxCell id="VMa86CsUGFE3nFp9-qTs-31" style="edgeStyle=orthogonalEdgeStyle;rounded=0;orthogonalLoop=1;jettySize=auto;html=1;exitX=0;exitY=1;exitDx=0;exitDy=0;entryX=0.5;entryY=0;entryDx=0;entryDy=0;" edge="1" parent="VMa86CsUGFE3nFp9-qTs-1" source="VMa86CsUGFE3nFp9-qTs-33" target="VMa86CsUGFE3nFp9-qTs-36">
          <mxGeometry relative="1" as="geometry" />
        </mxCell>
        <mxCell id="VMa86CsUGFE3nFp9-qTs-32" style="edgeStyle=orthogonalEdgeStyle;rounded=0;orthogonalLoop=1;jettySize=auto;html=1;exitX=1;exitY=1;exitDx=0;exitDy=0;entryX=0.5;entryY=0;entryDx=0;entryDy=0;" edge="1" parent="VMa86CsUGFE3nFp9-qTs-1" source="VMa86CsUGFE3nFp9-qTs-33" target="VMa86CsUGFE3nFp9-qTs-41">
          <mxGeometry relative="1" as="geometry" />
        </mxCell>
        <mxCell id="VMa86CsUGFE3nFp9-qTs-33" value="10" style="ellipse;whiteSpace=wrap;html=1;aspect=fixed;" vertex="1" parent="VMa86CsUGFE3nFp9-qTs-1">
          <mxGeometry x="430" y="320" width="60" height="60" as="geometry" />
        </mxCell>
        <mxCell id="VMa86CsUGFE3nFp9-qTs-34" style="edgeStyle=orthogonalEdgeStyle;rounded=0;orthogonalLoop=1;jettySize=auto;html=1;exitX=0;exitY=1;exitDx=0;exitDy=0;entryX=0.5;entryY=0;entryDx=0;entryDy=0;" edge="1" parent="VMa86CsUGFE3nFp9-qTs-1" source="VMa86CsUGFE3nFp9-qTs-36" target="VMa86CsUGFE3nFp9-qTs-37">
          <mxGeometry relative="1" as="geometry" />
        </mxCell>
        <mxCell id="VMa86CsUGFE3nFp9-qTs-35" style="edgeStyle=orthogonalEdgeStyle;rounded=0;orthogonalLoop=1;jettySize=auto;html=1;exitX=1;exitY=1;exitDx=0;exitDy=0;" edge="1" parent="VMa86CsUGFE3nFp9-qTs-1" source="VMa86CsUGFE3nFp9-qTs-36" target="VMa86CsUGFE3nFp9-qTs-38">
          <mxGeometry relative="1" as="geometry" />
        </mxCell>
        <mxCell id="VMa86CsUGFE3nFp9-qTs-36" value="85" style="ellipse;whiteSpace=wrap;html=1;aspect=fixed;" vertex="1" parent="VMa86CsUGFE3nFp9-qTs-1">
          <mxGeometry x="300" y="420" width="60" height="60" as="geometry" />
        </mxCell>
        <mxCell id="VMa86CsUGFE3nFp9-qTs-37" value="44" style="ellipse;whiteSpace=wrap;html=1;aspect=fixed;" vertex="1" parent="VMa86CsUGFE3nFp9-qTs-1">
          <mxGeometry x="220" y="490" width="60" height="60" as="geometry" />
        </mxCell>
        <mxCell id="VMa86CsUGFE3nFp9-qTs-38" value="16" style="ellipse;whiteSpace=wrap;html=1;aspect=fixed;" vertex="1" parent="VMa86CsUGFE3nFp9-qTs-1">
          <mxGeometry x="380" y="490" width="60" height="60" as="geometry" />
        </mxCell>
        <mxCell id="VMa86CsUGFE3nFp9-qTs-39" style="edgeStyle=orthogonalEdgeStyle;rounded=0;orthogonalLoop=1;jettySize=auto;html=1;exitX=0;exitY=1;exitDx=0;exitDy=0;entryX=0.5;entryY=0;entryDx=0;entryDy=0;" edge="1" parent="VMa86CsUGFE3nFp9-qTs-1" source="VMa86CsUGFE3nFp9-qTs-41" target="VMa86CsUGFE3nFp9-qTs-42">
          <mxGeometry relative="1" as="geometry" />
        </mxCell>
        <mxCell id="VMa86CsUGFE3nFp9-qTs-40" style="edgeStyle=orthogonalEdgeStyle;rounded=0;orthogonalLoop=1;jettySize=auto;html=1;exitX=1;exitY=1;exitDx=0;exitDy=0;" edge="1" parent="VMa86CsUGFE3nFp9-qTs-1" source="VMa86CsUGFE3nFp9-qTs-41" target="VMa86CsUGFE3nFp9-qTs-43">
          <mxGeometry relative="1" as="geometry" />
        </mxCell>
        <mxCell id="VMa86CsUGFE3nFp9-qTs-41" value="34" style="ellipse;whiteSpace=wrap;html=1;aspect=fixed;" vertex="1" parent="VMa86CsUGFE3nFp9-qTs-1">
          <mxGeometry x="570" y="430" width="60" height="60" as="geometry" />
        </mxCell>
        <mxCell id="VMa86CsUGFE3nFp9-qTs-42" value="23" style="ellipse;whiteSpace=wrap;html=1;aspect=fixed;" vertex="1" parent="VMa86CsUGFE3nFp9-qTs-1">
          <mxGeometry x="500" y="500" width="60" height="60" as="geometry" />
        </mxCell>
        <mxCell id="VMa86CsUGFE3nFp9-qTs-43" value="14" style="ellipse;whiteSpace=wrap;html=1;aspect=fixed;" vertex="1" parent="VMa86CsUGFE3nFp9-qTs-1">
          <mxGeometry x="650" y="510" width="60" height="60" as="geometry" />
        </mxCell>
        <mxCell id="VMa86CsUGFE3nFp9-qTs-44" value="21 Elementos" style="text;html=1;align=center;verticalAlign=middle;resizable=0;points=[];autosize=1;strokeColor=none;fillColor=none;" vertex="1" parent="VMa86CsUGFE3nFp9-qTs-1">
          <mxGeometry x="280" y="50" width="100" height="30" as="geometry" />
        </mxCell>
      </root>
    </mxGraphModel>
  </diagram>
  <diagram name="9" id="w7ZdxqSB45jZlksUcEOG">
    <mxGraphModel dx="2639" dy="1136" grid="1" gridSize="10" guides="1" tooltips="1" connect="1" arrows="1" fold="1" page="1" pageScale="1" pageWidth="850" pageHeight="1100" math="0" shadow="0">
      <root>
        <mxCell id="7uRBN16wsy2Zh7ZJmaoV-0" />
        <mxCell id="7uRBN16wsy2Zh7ZJmaoV-1" parent="7uRBN16wsy2Zh7ZJmaoV-0" />
        <mxCell id="7uRBN16wsy2Zh7ZJmaoV-2" value="&lt;font style=&quot;font-size: 16px;&quot;&gt;18 31 10 75 100 16 14 17 29 32 42 44 85 23 34 85 95 77 88 28 101&lt;/font&gt;" style="rounded=1;whiteSpace=wrap;html=1;" vertex="1" parent="7uRBN16wsy2Zh7ZJmaoV-1">
          <mxGeometry x="-140" y="80" width="520" height="40" as="geometry" />
        </mxCell>
        <mxCell id="7uRBN16wsy2Zh7ZJmaoV-3" style="edgeStyle=orthogonalEdgeStyle;rounded=0;orthogonalLoop=1;jettySize=auto;html=1;exitX=0;exitY=1;exitDx=0;exitDy=0;entryX=0.5;entryY=0;entryDx=0;entryDy=0;" edge="1" parent="7uRBN16wsy2Zh7ZJmaoV-1" source="7uRBN16wsy2Zh7ZJmaoV-5" target="7uRBN16wsy2Zh7ZJmaoV-8">
          <mxGeometry relative="1" as="geometry" />
        </mxCell>
        <mxCell id="7uRBN16wsy2Zh7ZJmaoV-4" style="edgeStyle=orthogonalEdgeStyle;rounded=0;orthogonalLoop=1;jettySize=auto;html=1;exitX=1;exitY=1;exitDx=0;exitDy=0;entryX=0.5;entryY=0;entryDx=0;entryDy=0;" edge="1" parent="7uRBN16wsy2Zh7ZJmaoV-1" source="7uRBN16wsy2Zh7ZJmaoV-5" target="7uRBN16wsy2Zh7ZJmaoV-33">
          <mxGeometry relative="1" as="geometry" />
        </mxCell>
        <mxCell id="7uRBN16wsy2Zh7ZJmaoV-5" value="18" style="ellipse;whiteSpace=wrap;html=1;aspect=fixed;" vertex="1" parent="7uRBN16wsy2Zh7ZJmaoV-1">
          <mxGeometry x="90" y="160" width="60" height="60" as="geometry" />
        </mxCell>
        <mxCell id="7uRBN16wsy2Zh7ZJmaoV-6" style="edgeStyle=orthogonalEdgeStyle;rounded=0;orthogonalLoop=1;jettySize=auto;html=1;exitX=0;exitY=1;exitDx=0;exitDy=0;entryX=0.5;entryY=0;entryDx=0;entryDy=0;" edge="1" parent="7uRBN16wsy2Zh7ZJmaoV-1" source="7uRBN16wsy2Zh7ZJmaoV-8" target="7uRBN16wsy2Zh7ZJmaoV-11">
          <mxGeometry relative="1" as="geometry" />
        </mxCell>
        <mxCell id="7uRBN16wsy2Zh7ZJmaoV-7" style="edgeStyle=orthogonalEdgeStyle;rounded=0;orthogonalLoop=1;jettySize=auto;html=1;exitX=1;exitY=1;exitDx=0;exitDy=0;entryX=0.5;entryY=0;entryDx=0;entryDy=0;" edge="1" parent="7uRBN16wsy2Zh7ZJmaoV-1" source="7uRBN16wsy2Zh7ZJmaoV-8" target="7uRBN16wsy2Zh7ZJmaoV-24">
          <mxGeometry relative="1" as="geometry" />
        </mxCell>
        <mxCell id="7uRBN16wsy2Zh7ZJmaoV-8" value="31" style="ellipse;whiteSpace=wrap;html=1;aspect=fixed;" vertex="1" parent="7uRBN16wsy2Zh7ZJmaoV-1">
          <mxGeometry x="-280" y="320" width="60" height="60" as="geometry" />
        </mxCell>
        <mxCell id="7uRBN16wsy2Zh7ZJmaoV-9" style="edgeStyle=orthogonalEdgeStyle;rounded=0;orthogonalLoop=1;jettySize=auto;html=1;exitX=0;exitY=1;exitDx=0;exitDy=0;entryX=0.5;entryY=0;entryDx=0;entryDy=0;" edge="1" parent="7uRBN16wsy2Zh7ZJmaoV-1" source="7uRBN16wsy2Zh7ZJmaoV-11" target="7uRBN16wsy2Zh7ZJmaoV-14">
          <mxGeometry relative="1" as="geometry" />
        </mxCell>
        <mxCell id="7uRBN16wsy2Zh7ZJmaoV-10" style="edgeStyle=orthogonalEdgeStyle;rounded=0;orthogonalLoop=1;jettySize=auto;html=1;exitX=1;exitY=1;exitDx=0;exitDy=0;" edge="1" parent="7uRBN16wsy2Zh7ZJmaoV-1" source="7uRBN16wsy2Zh7ZJmaoV-11" target="7uRBN16wsy2Zh7ZJmaoV-18">
          <mxGeometry relative="1" as="geometry" />
        </mxCell>
        <mxCell id="7uRBN16wsy2Zh7ZJmaoV-11" value="95" style="ellipse;whiteSpace=wrap;html=1;aspect=fixed;" vertex="1" parent="7uRBN16wsy2Zh7ZJmaoV-1">
          <mxGeometry x="-520" y="410" width="60" height="60" as="geometry" />
        </mxCell>
        <mxCell id="7uRBN16wsy2Zh7ZJmaoV-12" style="edgeStyle=orthogonalEdgeStyle;rounded=0;orthogonalLoop=1;jettySize=auto;html=1;exitX=1;exitY=1;exitDx=0;exitDy=0;entryX=0.5;entryY=0;entryDx=0;entryDy=0;" edge="1" parent="7uRBN16wsy2Zh7ZJmaoV-1" source="7uRBN16wsy2Zh7ZJmaoV-14" target="7uRBN16wsy2Zh7ZJmaoV-15">
          <mxGeometry relative="1" as="geometry" />
        </mxCell>
        <mxCell id="7uRBN16wsy2Zh7ZJmaoV-13" style="edgeStyle=orthogonalEdgeStyle;rounded=0;orthogonalLoop=1;jettySize=auto;html=1;exitX=0;exitY=1;exitDx=0;exitDy=0;entryX=0.5;entryY=0;entryDx=0;entryDy=0;" edge="1" parent="7uRBN16wsy2Zh7ZJmaoV-1" source="7uRBN16wsy2Zh7ZJmaoV-14" target="7uRBN16wsy2Zh7ZJmaoV-21">
          <mxGeometry relative="1" as="geometry" />
        </mxCell>
        <mxCell id="7uRBN16wsy2Zh7ZJmaoV-14" value="85" style="ellipse;whiteSpace=wrap;html=1;aspect=fixed;fillColor=#dae8fc;strokeColor=#6c8ebf;" vertex="1" parent="7uRBN16wsy2Zh7ZJmaoV-1">
          <mxGeometry x="-650" y="490" width="60" height="60" as="geometry" />
        </mxCell>
        <mxCell id="7uRBN16wsy2Zh7ZJmaoV-15" value="17" style="ellipse;whiteSpace=wrap;html=1;aspect=fixed;" vertex="1" parent="7uRBN16wsy2Zh7ZJmaoV-1">
          <mxGeometry x="-560" y="570" width="60" height="60" as="geometry" />
        </mxCell>
        <mxCell id="7uRBN16wsy2Zh7ZJmaoV-16" style="edgeStyle=orthogonalEdgeStyle;rounded=0;orthogonalLoop=1;jettySize=auto;html=1;exitX=1;exitY=1;exitDx=0;exitDy=0;entryX=0.5;entryY=0;entryDx=0;entryDy=0;" edge="1" parent="7uRBN16wsy2Zh7ZJmaoV-1" source="7uRBN16wsy2Zh7ZJmaoV-18" target="7uRBN16wsy2Zh7ZJmaoV-19">
          <mxGeometry relative="1" as="geometry" />
        </mxCell>
        <mxCell id="7uRBN16wsy2Zh7ZJmaoV-17" style="edgeStyle=orthogonalEdgeStyle;rounded=0;orthogonalLoop=1;jettySize=auto;html=1;exitX=0;exitY=1;exitDx=0;exitDy=0;entryX=0.5;entryY=0;entryDx=0;entryDy=0;" edge="1" parent="7uRBN16wsy2Zh7ZJmaoV-1" source="7uRBN16wsy2Zh7ZJmaoV-18" target="7uRBN16wsy2Zh7ZJmaoV-20">
          <mxGeometry relative="1" as="geometry" />
        </mxCell>
        <mxCell id="7uRBN16wsy2Zh7ZJmaoV-18" value="88" style="ellipse;whiteSpace=wrap;html=1;aspect=fixed;" vertex="1" parent="7uRBN16wsy2Zh7ZJmaoV-1">
          <mxGeometry x="-385" y="490" width="60" height="60" as="geometry" />
        </mxCell>
        <mxCell id="7uRBN16wsy2Zh7ZJmaoV-19" value="29" style="ellipse;whiteSpace=wrap;html=1;aspect=fixed;" vertex="1" parent="7uRBN16wsy2Zh7ZJmaoV-1">
          <mxGeometry x="-315" y="570" width="60" height="60" as="geometry" />
        </mxCell>
        <mxCell id="7uRBN16wsy2Zh7ZJmaoV-20" value="77" style="ellipse;whiteSpace=wrap;html=1;aspect=fixed;" vertex="1" parent="7uRBN16wsy2Zh7ZJmaoV-1">
          <mxGeometry x="-455" y="570" width="60" height="60" as="geometry" />
        </mxCell>
        <mxCell id="7uRBN16wsy2Zh7ZJmaoV-21" value="75" style="ellipse;whiteSpace=wrap;html=1;aspect=fixed;fillColor=#dae8fc;strokeColor=#6c8ebf;" vertex="1" parent="7uRBN16wsy2Zh7ZJmaoV-1">
          <mxGeometry x="-740" y="570" width="60" height="60" as="geometry" />
        </mxCell>
        <mxCell id="7uRBN16wsy2Zh7ZJmaoV-22" style="edgeStyle=orthogonalEdgeStyle;rounded=0;orthogonalLoop=1;jettySize=auto;html=1;exitX=0;exitY=1;exitDx=0;exitDy=0;entryX=0.5;entryY=0;entryDx=0;entryDy=0;" edge="1" parent="7uRBN16wsy2Zh7ZJmaoV-1" source="7uRBN16wsy2Zh7ZJmaoV-24" target="7uRBN16wsy2Zh7ZJmaoV-27">
          <mxGeometry relative="1" as="geometry" />
        </mxCell>
        <mxCell id="7uRBN16wsy2Zh7ZJmaoV-23" style="edgeStyle=orthogonalEdgeStyle;rounded=0;orthogonalLoop=1;jettySize=auto;html=1;exitX=1;exitY=1;exitDx=0;exitDy=0;" edge="1" parent="7uRBN16wsy2Zh7ZJmaoV-1" source="7uRBN16wsy2Zh7ZJmaoV-24" target="7uRBN16wsy2Zh7ZJmaoV-29">
          <mxGeometry relative="1" as="geometry" />
        </mxCell>
        <mxCell id="7uRBN16wsy2Zh7ZJmaoV-24" value="101" style="ellipse;whiteSpace=wrap;html=1;aspect=fixed;" vertex="1" parent="7uRBN16wsy2Zh7ZJmaoV-1">
          <mxGeometry x="-20" y="410" width="60" height="60" as="geometry" />
        </mxCell>
        <mxCell id="7uRBN16wsy2Zh7ZJmaoV-25" style="edgeStyle=orthogonalEdgeStyle;rounded=0;orthogonalLoop=1;jettySize=auto;html=1;exitX=1;exitY=1;exitDx=0;exitDy=0;entryX=0.5;entryY=0;entryDx=0;entryDy=0;" edge="1" parent="7uRBN16wsy2Zh7ZJmaoV-1" source="7uRBN16wsy2Zh7ZJmaoV-27" target="7uRBN16wsy2Zh7ZJmaoV-28">
          <mxGeometry relative="1" as="geometry" />
        </mxCell>
        <mxCell id="7uRBN16wsy2Zh7ZJmaoV-26" style="edgeStyle=orthogonalEdgeStyle;rounded=0;orthogonalLoop=1;jettySize=auto;html=1;exitX=0;exitY=1;exitDx=0;exitDy=0;entryX=0.5;entryY=0;entryDx=0;entryDy=0;" edge="1" parent="7uRBN16wsy2Zh7ZJmaoV-1" source="7uRBN16wsy2Zh7ZJmaoV-27" target="7uRBN16wsy2Zh7ZJmaoV-30">
          <mxGeometry relative="1" as="geometry" />
        </mxCell>
        <mxCell id="7uRBN16wsy2Zh7ZJmaoV-27" value="100" style="ellipse;whiteSpace=wrap;html=1;aspect=fixed;" vertex="1" parent="7uRBN16wsy2Zh7ZJmaoV-1">
          <mxGeometry x="-150" y="490" width="60" height="60" as="geometry" />
        </mxCell>
        <mxCell id="7uRBN16wsy2Zh7ZJmaoV-28" value="32" style="ellipse;whiteSpace=wrap;html=1;aspect=fixed;" vertex="1" parent="7uRBN16wsy2Zh7ZJmaoV-1">
          <mxGeometry x="-60" y="570" width="60" height="60" as="geometry" />
        </mxCell>
        <mxCell id="7uRBN16wsy2Zh7ZJmaoV-29" value="42" style="ellipse;whiteSpace=wrap;html=1;aspect=fixed;" vertex="1" parent="7uRBN16wsy2Zh7ZJmaoV-1">
          <mxGeometry x="115" y="490" width="60" height="60" as="geometry" />
        </mxCell>
        <mxCell id="7uRBN16wsy2Zh7ZJmaoV-30" value="28" style="ellipse;whiteSpace=wrap;html=1;aspect=fixed;" vertex="1" parent="7uRBN16wsy2Zh7ZJmaoV-1">
          <mxGeometry x="-240" y="570" width="60" height="60" as="geometry" />
        </mxCell>
        <mxCell id="7uRBN16wsy2Zh7ZJmaoV-31" style="edgeStyle=orthogonalEdgeStyle;rounded=0;orthogonalLoop=1;jettySize=auto;html=1;exitX=0;exitY=1;exitDx=0;exitDy=0;entryX=0.5;entryY=0;entryDx=0;entryDy=0;" edge="1" parent="7uRBN16wsy2Zh7ZJmaoV-1" source="7uRBN16wsy2Zh7ZJmaoV-33" target="7uRBN16wsy2Zh7ZJmaoV-36">
          <mxGeometry relative="1" as="geometry" />
        </mxCell>
        <mxCell id="7uRBN16wsy2Zh7ZJmaoV-32" style="edgeStyle=orthogonalEdgeStyle;rounded=0;orthogonalLoop=1;jettySize=auto;html=1;exitX=1;exitY=1;exitDx=0;exitDy=0;entryX=0.5;entryY=0;entryDx=0;entryDy=0;" edge="1" parent="7uRBN16wsy2Zh7ZJmaoV-1" source="7uRBN16wsy2Zh7ZJmaoV-33" target="7uRBN16wsy2Zh7ZJmaoV-41">
          <mxGeometry relative="1" as="geometry" />
        </mxCell>
        <mxCell id="7uRBN16wsy2Zh7ZJmaoV-33" value="10" style="ellipse;whiteSpace=wrap;html=1;aspect=fixed;" vertex="1" parent="7uRBN16wsy2Zh7ZJmaoV-1">
          <mxGeometry x="430" y="320" width="60" height="60" as="geometry" />
        </mxCell>
        <mxCell id="7uRBN16wsy2Zh7ZJmaoV-34" style="edgeStyle=orthogonalEdgeStyle;rounded=0;orthogonalLoop=1;jettySize=auto;html=1;exitX=0;exitY=1;exitDx=0;exitDy=0;entryX=0.5;entryY=0;entryDx=0;entryDy=0;" edge="1" parent="7uRBN16wsy2Zh7ZJmaoV-1" source="7uRBN16wsy2Zh7ZJmaoV-36" target="7uRBN16wsy2Zh7ZJmaoV-37">
          <mxGeometry relative="1" as="geometry" />
        </mxCell>
        <mxCell id="7uRBN16wsy2Zh7ZJmaoV-35" style="edgeStyle=orthogonalEdgeStyle;rounded=0;orthogonalLoop=1;jettySize=auto;html=1;exitX=1;exitY=1;exitDx=0;exitDy=0;" edge="1" parent="7uRBN16wsy2Zh7ZJmaoV-1" source="7uRBN16wsy2Zh7ZJmaoV-36" target="7uRBN16wsy2Zh7ZJmaoV-38">
          <mxGeometry relative="1" as="geometry" />
        </mxCell>
        <mxCell id="7uRBN16wsy2Zh7ZJmaoV-36" value="85" style="ellipse;whiteSpace=wrap;html=1;aspect=fixed;" vertex="1" parent="7uRBN16wsy2Zh7ZJmaoV-1">
          <mxGeometry x="300" y="420" width="60" height="60" as="geometry" />
        </mxCell>
        <mxCell id="7uRBN16wsy2Zh7ZJmaoV-37" value="44" style="ellipse;whiteSpace=wrap;html=1;aspect=fixed;" vertex="1" parent="7uRBN16wsy2Zh7ZJmaoV-1">
          <mxGeometry x="220" y="490" width="60" height="60" as="geometry" />
        </mxCell>
        <mxCell id="7uRBN16wsy2Zh7ZJmaoV-38" value="16" style="ellipse;whiteSpace=wrap;html=1;aspect=fixed;" vertex="1" parent="7uRBN16wsy2Zh7ZJmaoV-1">
          <mxGeometry x="380" y="490" width="60" height="60" as="geometry" />
        </mxCell>
        <mxCell id="7uRBN16wsy2Zh7ZJmaoV-39" style="edgeStyle=orthogonalEdgeStyle;rounded=0;orthogonalLoop=1;jettySize=auto;html=1;exitX=0;exitY=1;exitDx=0;exitDy=0;entryX=0.5;entryY=0;entryDx=0;entryDy=0;" edge="1" parent="7uRBN16wsy2Zh7ZJmaoV-1" source="7uRBN16wsy2Zh7ZJmaoV-41" target="7uRBN16wsy2Zh7ZJmaoV-42">
          <mxGeometry relative="1" as="geometry" />
        </mxCell>
        <mxCell id="7uRBN16wsy2Zh7ZJmaoV-40" style="edgeStyle=orthogonalEdgeStyle;rounded=0;orthogonalLoop=1;jettySize=auto;html=1;exitX=1;exitY=1;exitDx=0;exitDy=0;" edge="1" parent="7uRBN16wsy2Zh7ZJmaoV-1" source="7uRBN16wsy2Zh7ZJmaoV-41" target="7uRBN16wsy2Zh7ZJmaoV-43">
          <mxGeometry relative="1" as="geometry" />
        </mxCell>
        <mxCell id="7uRBN16wsy2Zh7ZJmaoV-41" value="34" style="ellipse;whiteSpace=wrap;html=1;aspect=fixed;" vertex="1" parent="7uRBN16wsy2Zh7ZJmaoV-1">
          <mxGeometry x="570" y="430" width="60" height="60" as="geometry" />
        </mxCell>
        <mxCell id="7uRBN16wsy2Zh7ZJmaoV-42" value="23" style="ellipse;whiteSpace=wrap;html=1;aspect=fixed;" vertex="1" parent="7uRBN16wsy2Zh7ZJmaoV-1">
          <mxGeometry x="500" y="500" width="60" height="60" as="geometry" />
        </mxCell>
        <mxCell id="7uRBN16wsy2Zh7ZJmaoV-43" value="14" style="ellipse;whiteSpace=wrap;html=1;aspect=fixed;" vertex="1" parent="7uRBN16wsy2Zh7ZJmaoV-1">
          <mxGeometry x="650" y="510" width="60" height="60" as="geometry" />
        </mxCell>
        <mxCell id="7uRBN16wsy2Zh7ZJmaoV-44" value="21 Elementos" style="text;html=1;align=center;verticalAlign=middle;resizable=0;points=[];autosize=1;strokeColor=none;fillColor=none;" vertex="1" parent="7uRBN16wsy2Zh7ZJmaoV-1">
          <mxGeometry x="280" y="50" width="100" height="30" as="geometry" />
        </mxCell>
        <mxCell id="hOeT6J3bZWfDBT-ZKvVA-0" value="continua aplicando o corrige descendo" style="text;html=1;align=center;verticalAlign=middle;resizable=0;points=[];autosize=1;strokeColor=none;fillColor=none;" vertex="1" parent="7uRBN16wsy2Zh7ZJmaoV-1">
          <mxGeometry x="-850" y="460" width="230" height="30" as="geometry" />
        </mxCell>
      </root>
    </mxGraphModel>
  </diagram>
  <diagram name="10" id="wpK1PErg3ehX2pZ965Oa">
    <mxGraphModel dx="2639" dy="1136" grid="1" gridSize="10" guides="1" tooltips="1" connect="1" arrows="1" fold="1" page="1" pageScale="1" pageWidth="850" pageHeight="1100" math="0" shadow="0">
      <root>
        <mxCell id="V-IYgI_By9yLqRQG7HRk-0" />
        <mxCell id="V-IYgI_By9yLqRQG7HRk-1" parent="V-IYgI_By9yLqRQG7HRk-0" />
        <mxCell id="V-IYgI_By9yLqRQG7HRk-2" value="&lt;font style=&quot;font-size: 16px;&quot;&gt;18 31 10 75 100 16 14 17 29 32 42 44 85 23 34 85 95 77 88 28 101&lt;/font&gt;" style="rounded=1;whiteSpace=wrap;html=1;" vertex="1" parent="V-IYgI_By9yLqRQG7HRk-1">
          <mxGeometry x="-140" y="80" width="520" height="40" as="geometry" />
        </mxCell>
        <mxCell id="V-IYgI_By9yLqRQG7HRk-3" style="edgeStyle=orthogonalEdgeStyle;rounded=0;orthogonalLoop=1;jettySize=auto;html=1;exitX=0;exitY=1;exitDx=0;exitDy=0;entryX=0.5;entryY=0;entryDx=0;entryDy=0;" edge="1" parent="V-IYgI_By9yLqRQG7HRk-1" source="V-IYgI_By9yLqRQG7HRk-5" target="V-IYgI_By9yLqRQG7HRk-8">
          <mxGeometry relative="1" as="geometry" />
        </mxCell>
        <mxCell id="V-IYgI_By9yLqRQG7HRk-4" style="edgeStyle=orthogonalEdgeStyle;rounded=0;orthogonalLoop=1;jettySize=auto;html=1;exitX=1;exitY=1;exitDx=0;exitDy=0;entryX=0.5;entryY=0;entryDx=0;entryDy=0;" edge="1" parent="V-IYgI_By9yLqRQG7HRk-1" source="V-IYgI_By9yLqRQG7HRk-5" target="V-IYgI_By9yLqRQG7HRk-33">
          <mxGeometry relative="1" as="geometry" />
        </mxCell>
        <mxCell id="V-IYgI_By9yLqRQG7HRk-5" value="18" style="ellipse;whiteSpace=wrap;html=1;aspect=fixed;" vertex="1" parent="V-IYgI_By9yLqRQG7HRk-1">
          <mxGeometry x="90" y="160" width="60" height="60" as="geometry" />
        </mxCell>
        <mxCell id="V-IYgI_By9yLqRQG7HRk-6" style="edgeStyle=orthogonalEdgeStyle;rounded=0;orthogonalLoop=1;jettySize=auto;html=1;exitX=0;exitY=1;exitDx=0;exitDy=0;entryX=0.5;entryY=0;entryDx=0;entryDy=0;" edge="1" parent="V-IYgI_By9yLqRQG7HRk-1" source="V-IYgI_By9yLqRQG7HRk-8" target="V-IYgI_By9yLqRQG7HRk-11">
          <mxGeometry relative="1" as="geometry" />
        </mxCell>
        <mxCell id="V-IYgI_By9yLqRQG7HRk-7" style="edgeStyle=orthogonalEdgeStyle;rounded=0;orthogonalLoop=1;jettySize=auto;html=1;exitX=1;exitY=1;exitDx=0;exitDy=0;entryX=0.5;entryY=0;entryDx=0;entryDy=0;" edge="1" parent="V-IYgI_By9yLqRQG7HRk-1" source="V-IYgI_By9yLqRQG7HRk-8" target="V-IYgI_By9yLqRQG7HRk-24">
          <mxGeometry relative="1" as="geometry" />
        </mxCell>
        <mxCell id="V-IYgI_By9yLqRQG7HRk-8" value="31" style="ellipse;whiteSpace=wrap;html=1;aspect=fixed;" vertex="1" parent="V-IYgI_By9yLqRQG7HRk-1">
          <mxGeometry x="-280" y="320" width="60" height="60" as="geometry" />
        </mxCell>
        <mxCell id="V-IYgI_By9yLqRQG7HRk-9" style="edgeStyle=orthogonalEdgeStyle;rounded=0;orthogonalLoop=1;jettySize=auto;html=1;exitX=0;exitY=1;exitDx=0;exitDy=0;entryX=0.5;entryY=0;entryDx=0;entryDy=0;" edge="1" parent="V-IYgI_By9yLqRQG7HRk-1" source="V-IYgI_By9yLqRQG7HRk-11" target="V-IYgI_By9yLqRQG7HRk-14">
          <mxGeometry relative="1" as="geometry" />
        </mxCell>
        <mxCell id="V-IYgI_By9yLqRQG7HRk-10" style="edgeStyle=orthogonalEdgeStyle;rounded=0;orthogonalLoop=1;jettySize=auto;html=1;exitX=1;exitY=1;exitDx=0;exitDy=0;" edge="1" parent="V-IYgI_By9yLqRQG7HRk-1" source="V-IYgI_By9yLqRQG7HRk-11" target="V-IYgI_By9yLqRQG7HRk-18">
          <mxGeometry relative="1" as="geometry" />
        </mxCell>
        <mxCell id="V-IYgI_By9yLqRQG7HRk-11" value="95" style="ellipse;whiteSpace=wrap;html=1;aspect=fixed;" vertex="1" parent="V-IYgI_By9yLqRQG7HRk-1">
          <mxGeometry x="-520" y="410" width="60" height="60" as="geometry" />
        </mxCell>
        <mxCell id="V-IYgI_By9yLqRQG7HRk-12" style="edgeStyle=orthogonalEdgeStyle;rounded=0;orthogonalLoop=1;jettySize=auto;html=1;exitX=1;exitY=1;exitDx=0;exitDy=0;entryX=0.5;entryY=0;entryDx=0;entryDy=0;" edge="1" parent="V-IYgI_By9yLqRQG7HRk-1" source="V-IYgI_By9yLqRQG7HRk-14" target="V-IYgI_By9yLqRQG7HRk-15">
          <mxGeometry relative="1" as="geometry" />
        </mxCell>
        <mxCell id="V-IYgI_By9yLqRQG7HRk-13" style="edgeStyle=orthogonalEdgeStyle;rounded=0;orthogonalLoop=1;jettySize=auto;html=1;exitX=0;exitY=1;exitDx=0;exitDy=0;entryX=0.5;entryY=0;entryDx=0;entryDy=0;" edge="1" parent="V-IYgI_By9yLqRQG7HRk-1" source="V-IYgI_By9yLqRQG7HRk-14" target="V-IYgI_By9yLqRQG7HRk-21">
          <mxGeometry relative="1" as="geometry" />
        </mxCell>
        <mxCell id="V-IYgI_By9yLqRQG7HRk-14" value="85" style="ellipse;whiteSpace=wrap;html=1;aspect=fixed;" vertex="1" parent="V-IYgI_By9yLqRQG7HRk-1">
          <mxGeometry x="-650" y="490" width="60" height="60" as="geometry" />
        </mxCell>
        <mxCell id="V-IYgI_By9yLqRQG7HRk-15" value="17" style="ellipse;whiteSpace=wrap;html=1;aspect=fixed;" vertex="1" parent="V-IYgI_By9yLqRQG7HRk-1">
          <mxGeometry x="-560" y="570" width="60" height="60" as="geometry" />
        </mxCell>
        <mxCell id="V-IYgI_By9yLqRQG7HRk-16" style="edgeStyle=orthogonalEdgeStyle;rounded=0;orthogonalLoop=1;jettySize=auto;html=1;exitX=1;exitY=1;exitDx=0;exitDy=0;entryX=0.5;entryY=0;entryDx=0;entryDy=0;" edge="1" parent="V-IYgI_By9yLqRQG7HRk-1" source="V-IYgI_By9yLqRQG7HRk-18" target="V-IYgI_By9yLqRQG7HRk-19">
          <mxGeometry relative="1" as="geometry" />
        </mxCell>
        <mxCell id="V-IYgI_By9yLqRQG7HRk-17" style="edgeStyle=orthogonalEdgeStyle;rounded=0;orthogonalLoop=1;jettySize=auto;html=1;exitX=0;exitY=1;exitDx=0;exitDy=0;entryX=0.5;entryY=0;entryDx=0;entryDy=0;" edge="1" parent="V-IYgI_By9yLqRQG7HRk-1" source="V-IYgI_By9yLqRQG7HRk-18" target="V-IYgI_By9yLqRQG7HRk-20">
          <mxGeometry relative="1" as="geometry" />
        </mxCell>
        <mxCell id="V-IYgI_By9yLqRQG7HRk-18" value="88" style="ellipse;whiteSpace=wrap;html=1;aspect=fixed;" vertex="1" parent="V-IYgI_By9yLqRQG7HRk-1">
          <mxGeometry x="-385" y="490" width="60" height="60" as="geometry" />
        </mxCell>
        <mxCell id="V-IYgI_By9yLqRQG7HRk-19" value="29" style="ellipse;whiteSpace=wrap;html=1;aspect=fixed;" vertex="1" parent="V-IYgI_By9yLqRQG7HRk-1">
          <mxGeometry x="-315" y="570" width="60" height="60" as="geometry" />
        </mxCell>
        <mxCell id="V-IYgI_By9yLqRQG7HRk-20" value="77" style="ellipse;whiteSpace=wrap;html=1;aspect=fixed;" vertex="1" parent="V-IYgI_By9yLqRQG7HRk-1">
          <mxGeometry x="-455" y="570" width="60" height="60" as="geometry" />
        </mxCell>
        <mxCell id="V-IYgI_By9yLqRQG7HRk-21" value="75" style="ellipse;whiteSpace=wrap;html=1;aspect=fixed;" vertex="1" parent="V-IYgI_By9yLqRQG7HRk-1">
          <mxGeometry x="-740" y="570" width="60" height="60" as="geometry" />
        </mxCell>
        <mxCell id="V-IYgI_By9yLqRQG7HRk-22" style="edgeStyle=orthogonalEdgeStyle;rounded=0;orthogonalLoop=1;jettySize=auto;html=1;exitX=0;exitY=1;exitDx=0;exitDy=0;entryX=0.5;entryY=0;entryDx=0;entryDy=0;" edge="1" parent="V-IYgI_By9yLqRQG7HRk-1" source="V-IYgI_By9yLqRQG7HRk-24" target="V-IYgI_By9yLqRQG7HRk-27">
          <mxGeometry relative="1" as="geometry" />
        </mxCell>
        <mxCell id="V-IYgI_By9yLqRQG7HRk-23" style="edgeStyle=orthogonalEdgeStyle;rounded=0;orthogonalLoop=1;jettySize=auto;html=1;exitX=1;exitY=1;exitDx=0;exitDy=0;" edge="1" parent="V-IYgI_By9yLqRQG7HRk-1" source="V-IYgI_By9yLqRQG7HRk-24" target="V-IYgI_By9yLqRQG7HRk-29">
          <mxGeometry relative="1" as="geometry" />
        </mxCell>
        <mxCell id="V-IYgI_By9yLqRQG7HRk-24" value="101" style="ellipse;whiteSpace=wrap;html=1;aspect=fixed;" vertex="1" parent="V-IYgI_By9yLqRQG7HRk-1">
          <mxGeometry x="-20" y="410" width="60" height="60" as="geometry" />
        </mxCell>
        <mxCell id="V-IYgI_By9yLqRQG7HRk-25" style="edgeStyle=orthogonalEdgeStyle;rounded=0;orthogonalLoop=1;jettySize=auto;html=1;exitX=1;exitY=1;exitDx=0;exitDy=0;entryX=0.5;entryY=0;entryDx=0;entryDy=0;" edge="1" parent="V-IYgI_By9yLqRQG7HRk-1" source="V-IYgI_By9yLqRQG7HRk-27" target="V-IYgI_By9yLqRQG7HRk-28">
          <mxGeometry relative="1" as="geometry" />
        </mxCell>
        <mxCell id="V-IYgI_By9yLqRQG7HRk-26" style="edgeStyle=orthogonalEdgeStyle;rounded=0;orthogonalLoop=1;jettySize=auto;html=1;exitX=0;exitY=1;exitDx=0;exitDy=0;entryX=0.5;entryY=0;entryDx=0;entryDy=0;" edge="1" parent="V-IYgI_By9yLqRQG7HRk-1" source="V-IYgI_By9yLqRQG7HRk-27" target="V-IYgI_By9yLqRQG7HRk-30">
          <mxGeometry relative="1" as="geometry" />
        </mxCell>
        <mxCell id="V-IYgI_By9yLqRQG7HRk-27" value="100" style="ellipse;whiteSpace=wrap;html=1;aspect=fixed;" vertex="1" parent="V-IYgI_By9yLqRQG7HRk-1">
          <mxGeometry x="-150" y="490" width="60" height="60" as="geometry" />
        </mxCell>
        <mxCell id="V-IYgI_By9yLqRQG7HRk-28" value="32" style="ellipse;whiteSpace=wrap;html=1;aspect=fixed;" vertex="1" parent="V-IYgI_By9yLqRQG7HRk-1">
          <mxGeometry x="-60" y="570" width="60" height="60" as="geometry" />
        </mxCell>
        <mxCell id="V-IYgI_By9yLqRQG7HRk-29" value="42" style="ellipse;whiteSpace=wrap;html=1;aspect=fixed;" vertex="1" parent="V-IYgI_By9yLqRQG7HRk-1">
          <mxGeometry x="115" y="490" width="60" height="60" as="geometry" />
        </mxCell>
        <mxCell id="V-IYgI_By9yLqRQG7HRk-30" value="28" style="ellipse;whiteSpace=wrap;html=1;aspect=fixed;" vertex="1" parent="V-IYgI_By9yLqRQG7HRk-1">
          <mxGeometry x="-240" y="570" width="60" height="60" as="geometry" />
        </mxCell>
        <mxCell id="V-IYgI_By9yLqRQG7HRk-31" style="edgeStyle=orthogonalEdgeStyle;rounded=0;orthogonalLoop=1;jettySize=auto;html=1;exitX=0;exitY=1;exitDx=0;exitDy=0;entryX=0.5;entryY=0;entryDx=0;entryDy=0;" edge="1" parent="V-IYgI_By9yLqRQG7HRk-1" source="V-IYgI_By9yLqRQG7HRk-33" target="V-IYgI_By9yLqRQG7HRk-36">
          <mxGeometry relative="1" as="geometry" />
        </mxCell>
        <mxCell id="V-IYgI_By9yLqRQG7HRk-32" style="edgeStyle=orthogonalEdgeStyle;rounded=0;orthogonalLoop=1;jettySize=auto;html=1;exitX=1;exitY=1;exitDx=0;exitDy=0;entryX=0.5;entryY=0;entryDx=0;entryDy=0;" edge="1" parent="V-IYgI_By9yLqRQG7HRk-1" source="V-IYgI_By9yLqRQG7HRk-33" target="V-IYgI_By9yLqRQG7HRk-41">
          <mxGeometry relative="1" as="geometry" />
        </mxCell>
        <mxCell id="V-IYgI_By9yLqRQG7HRk-33" value="85" style="ellipse;whiteSpace=wrap;html=1;aspect=fixed;fillColor=#dae8fc;strokeColor=#6c8ebf;" vertex="1" parent="V-IYgI_By9yLqRQG7HRk-1">
          <mxGeometry x="430" y="320" width="60" height="60" as="geometry" />
        </mxCell>
        <mxCell id="V-IYgI_By9yLqRQG7HRk-34" style="edgeStyle=orthogonalEdgeStyle;rounded=0;orthogonalLoop=1;jettySize=auto;html=1;exitX=0;exitY=1;exitDx=0;exitDy=0;entryX=0.5;entryY=0;entryDx=0;entryDy=0;" edge="1" parent="V-IYgI_By9yLqRQG7HRk-1" source="V-IYgI_By9yLqRQG7HRk-36" target="V-IYgI_By9yLqRQG7HRk-37">
          <mxGeometry relative="1" as="geometry" />
        </mxCell>
        <mxCell id="V-IYgI_By9yLqRQG7HRk-35" style="edgeStyle=orthogonalEdgeStyle;rounded=0;orthogonalLoop=1;jettySize=auto;html=1;exitX=1;exitY=1;exitDx=0;exitDy=0;" edge="1" parent="V-IYgI_By9yLqRQG7HRk-1" source="V-IYgI_By9yLqRQG7HRk-36" target="V-IYgI_By9yLqRQG7HRk-38">
          <mxGeometry relative="1" as="geometry" />
        </mxCell>
        <mxCell id="V-IYgI_By9yLqRQG7HRk-36" value="44" style="ellipse;whiteSpace=wrap;html=1;aspect=fixed;fillColor=#dae8fc;strokeColor=#6c8ebf;" vertex="1" parent="V-IYgI_By9yLqRQG7HRk-1">
          <mxGeometry x="300" y="420" width="60" height="60" as="geometry" />
        </mxCell>
        <mxCell id="V-IYgI_By9yLqRQG7HRk-37" value="10" style="ellipse;whiteSpace=wrap;html=1;aspect=fixed;fillColor=#dae8fc;strokeColor=#6c8ebf;" vertex="1" parent="V-IYgI_By9yLqRQG7HRk-1">
          <mxGeometry x="220" y="490" width="60" height="60" as="geometry" />
        </mxCell>
        <mxCell id="V-IYgI_By9yLqRQG7HRk-38" value="16" style="ellipse;whiteSpace=wrap;html=1;aspect=fixed;" vertex="1" parent="V-IYgI_By9yLqRQG7HRk-1">
          <mxGeometry x="380" y="490" width="60" height="60" as="geometry" />
        </mxCell>
        <mxCell id="V-IYgI_By9yLqRQG7HRk-39" style="edgeStyle=orthogonalEdgeStyle;rounded=0;orthogonalLoop=1;jettySize=auto;html=1;exitX=0;exitY=1;exitDx=0;exitDy=0;entryX=0.5;entryY=0;entryDx=0;entryDy=0;" edge="1" parent="V-IYgI_By9yLqRQG7HRk-1" source="V-IYgI_By9yLqRQG7HRk-41" target="V-IYgI_By9yLqRQG7HRk-42">
          <mxGeometry relative="1" as="geometry" />
        </mxCell>
        <mxCell id="V-IYgI_By9yLqRQG7HRk-40" style="edgeStyle=orthogonalEdgeStyle;rounded=0;orthogonalLoop=1;jettySize=auto;html=1;exitX=1;exitY=1;exitDx=0;exitDy=0;" edge="1" parent="V-IYgI_By9yLqRQG7HRk-1" source="V-IYgI_By9yLqRQG7HRk-41" target="V-IYgI_By9yLqRQG7HRk-43">
          <mxGeometry relative="1" as="geometry" />
        </mxCell>
        <mxCell id="V-IYgI_By9yLqRQG7HRk-41" value="34" style="ellipse;whiteSpace=wrap;html=1;aspect=fixed;" vertex="1" parent="V-IYgI_By9yLqRQG7HRk-1">
          <mxGeometry x="570" y="430" width="60" height="60" as="geometry" />
        </mxCell>
        <mxCell id="V-IYgI_By9yLqRQG7HRk-42" value="23" style="ellipse;whiteSpace=wrap;html=1;aspect=fixed;" vertex="1" parent="V-IYgI_By9yLqRQG7HRk-1">
          <mxGeometry x="500" y="500" width="60" height="60" as="geometry" />
        </mxCell>
        <mxCell id="V-IYgI_By9yLqRQG7HRk-43" value="14" style="ellipse;whiteSpace=wrap;html=1;aspect=fixed;" vertex="1" parent="V-IYgI_By9yLqRQG7HRk-1">
          <mxGeometry x="650" y="510" width="60" height="60" as="geometry" />
        </mxCell>
        <mxCell id="V-IYgI_By9yLqRQG7HRk-44" value="21 Elementos" style="text;html=1;align=center;verticalAlign=middle;resizable=0;points=[];autosize=1;strokeColor=none;fillColor=none;" vertex="1" parent="V-IYgI_By9yLqRQG7HRk-1">
          <mxGeometry x="280" y="50" width="100" height="30" as="geometry" />
        </mxCell>
      </root>
    </mxGraphModel>
  </diagram>
  <diagram name="11" id="752HNBtJzHqx0Qu70Y9q">
    <mxGraphModel dx="2162" dy="833" grid="1" gridSize="10" guides="1" tooltips="1" connect="1" arrows="1" fold="1" page="1" pageScale="1" pageWidth="850" pageHeight="1100" math="0" shadow="0">
      <root>
        <mxCell id="iYn5AzETV0SMqAzlxgXY-0" />
        <mxCell id="iYn5AzETV0SMqAzlxgXY-1" parent="iYn5AzETV0SMqAzlxgXY-0" />
        <mxCell id="iYn5AzETV0SMqAzlxgXY-2" value="&lt;font style=&quot;font-size: 16px;&quot;&gt;18 31 10 75 100 16 14 17 29 32 42 44 85 23 34 85 95 77 88 28 101&lt;/font&gt;" style="rounded=1;whiteSpace=wrap;html=1;" vertex="1" parent="iYn5AzETV0SMqAzlxgXY-1">
          <mxGeometry x="-140" y="80" width="520" height="40" as="geometry" />
        </mxCell>
        <mxCell id="iYn5AzETV0SMqAzlxgXY-3" style="edgeStyle=orthogonalEdgeStyle;rounded=0;orthogonalLoop=1;jettySize=auto;html=1;exitX=0;exitY=1;exitDx=0;exitDy=0;entryX=0.5;entryY=0;entryDx=0;entryDy=0;" edge="1" parent="iYn5AzETV0SMqAzlxgXY-1" source="iYn5AzETV0SMqAzlxgXY-5" target="iYn5AzETV0SMqAzlxgXY-8">
          <mxGeometry relative="1" as="geometry" />
        </mxCell>
        <mxCell id="iYn5AzETV0SMqAzlxgXY-4" style="edgeStyle=orthogonalEdgeStyle;rounded=0;orthogonalLoop=1;jettySize=auto;html=1;exitX=1;exitY=1;exitDx=0;exitDy=0;entryX=0.5;entryY=0;entryDx=0;entryDy=0;" edge="1" parent="iYn5AzETV0SMqAzlxgXY-1" source="iYn5AzETV0SMqAzlxgXY-5" target="iYn5AzETV0SMqAzlxgXY-33">
          <mxGeometry relative="1" as="geometry" />
        </mxCell>
        <mxCell id="iYn5AzETV0SMqAzlxgXY-5" value="18" style="ellipse;whiteSpace=wrap;html=1;aspect=fixed;" vertex="1" parent="iYn5AzETV0SMqAzlxgXY-1">
          <mxGeometry x="90" y="160" width="60" height="60" as="geometry" />
        </mxCell>
        <mxCell id="iYn5AzETV0SMqAzlxgXY-6" style="edgeStyle=orthogonalEdgeStyle;rounded=0;orthogonalLoop=1;jettySize=auto;html=1;exitX=0;exitY=1;exitDx=0;exitDy=0;entryX=0.5;entryY=0;entryDx=0;entryDy=0;" edge="1" parent="iYn5AzETV0SMqAzlxgXY-1" source="iYn5AzETV0SMqAzlxgXY-8" target="iYn5AzETV0SMqAzlxgXY-11">
          <mxGeometry relative="1" as="geometry" />
        </mxCell>
        <mxCell id="iYn5AzETV0SMqAzlxgXY-7" style="edgeStyle=orthogonalEdgeStyle;rounded=0;orthogonalLoop=1;jettySize=auto;html=1;exitX=1;exitY=1;exitDx=0;exitDy=0;entryX=0.5;entryY=0;entryDx=0;entryDy=0;" edge="1" parent="iYn5AzETV0SMqAzlxgXY-1" source="iYn5AzETV0SMqAzlxgXY-8" target="iYn5AzETV0SMqAzlxgXY-24">
          <mxGeometry relative="1" as="geometry" />
        </mxCell>
        <mxCell id="iYn5AzETV0SMqAzlxgXY-8" value="101" style="ellipse;whiteSpace=wrap;html=1;aspect=fixed;fillColor=#dae8fc;strokeColor=#6c8ebf;" vertex="1" parent="iYn5AzETV0SMqAzlxgXY-1">
          <mxGeometry x="-280" y="320" width="60" height="60" as="geometry" />
        </mxCell>
        <mxCell id="iYn5AzETV0SMqAzlxgXY-9" style="edgeStyle=orthogonalEdgeStyle;rounded=0;orthogonalLoop=1;jettySize=auto;html=1;exitX=0;exitY=1;exitDx=0;exitDy=0;entryX=0.5;entryY=0;entryDx=0;entryDy=0;" edge="1" parent="iYn5AzETV0SMqAzlxgXY-1" source="iYn5AzETV0SMqAzlxgXY-11" target="iYn5AzETV0SMqAzlxgXY-14">
          <mxGeometry relative="1" as="geometry" />
        </mxCell>
        <mxCell id="iYn5AzETV0SMqAzlxgXY-10" style="edgeStyle=orthogonalEdgeStyle;rounded=0;orthogonalLoop=1;jettySize=auto;html=1;exitX=1;exitY=1;exitDx=0;exitDy=0;" edge="1" parent="iYn5AzETV0SMqAzlxgXY-1" source="iYn5AzETV0SMqAzlxgXY-11" target="iYn5AzETV0SMqAzlxgXY-18">
          <mxGeometry relative="1" as="geometry" />
        </mxCell>
        <mxCell id="iYn5AzETV0SMqAzlxgXY-11" value="95" style="ellipse;whiteSpace=wrap;html=1;aspect=fixed;" vertex="1" parent="iYn5AzETV0SMqAzlxgXY-1">
          <mxGeometry x="-520" y="410" width="60" height="60" as="geometry" />
        </mxCell>
        <mxCell id="iYn5AzETV0SMqAzlxgXY-12" style="edgeStyle=orthogonalEdgeStyle;rounded=0;orthogonalLoop=1;jettySize=auto;html=1;exitX=1;exitY=1;exitDx=0;exitDy=0;entryX=0.5;entryY=0;entryDx=0;entryDy=0;" edge="1" parent="iYn5AzETV0SMqAzlxgXY-1" source="iYn5AzETV0SMqAzlxgXY-14" target="iYn5AzETV0SMqAzlxgXY-15">
          <mxGeometry relative="1" as="geometry" />
        </mxCell>
        <mxCell id="iYn5AzETV0SMqAzlxgXY-13" style="edgeStyle=orthogonalEdgeStyle;rounded=0;orthogonalLoop=1;jettySize=auto;html=1;exitX=0;exitY=1;exitDx=0;exitDy=0;entryX=0.5;entryY=0;entryDx=0;entryDy=0;" edge="1" parent="iYn5AzETV0SMqAzlxgXY-1" source="iYn5AzETV0SMqAzlxgXY-14" target="iYn5AzETV0SMqAzlxgXY-21">
          <mxGeometry relative="1" as="geometry" />
        </mxCell>
        <mxCell id="iYn5AzETV0SMqAzlxgXY-14" value="85" style="ellipse;whiteSpace=wrap;html=1;aspect=fixed;" vertex="1" parent="iYn5AzETV0SMqAzlxgXY-1">
          <mxGeometry x="-650" y="490" width="60" height="60" as="geometry" />
        </mxCell>
        <mxCell id="iYn5AzETV0SMqAzlxgXY-15" value="17" style="ellipse;whiteSpace=wrap;html=1;aspect=fixed;" vertex="1" parent="iYn5AzETV0SMqAzlxgXY-1">
          <mxGeometry x="-560" y="570" width="60" height="60" as="geometry" />
        </mxCell>
        <mxCell id="iYn5AzETV0SMqAzlxgXY-16" style="edgeStyle=orthogonalEdgeStyle;rounded=0;orthogonalLoop=1;jettySize=auto;html=1;exitX=1;exitY=1;exitDx=0;exitDy=0;entryX=0.5;entryY=0;entryDx=0;entryDy=0;" edge="1" parent="iYn5AzETV0SMqAzlxgXY-1" source="iYn5AzETV0SMqAzlxgXY-18" target="iYn5AzETV0SMqAzlxgXY-19">
          <mxGeometry relative="1" as="geometry" />
        </mxCell>
        <mxCell id="iYn5AzETV0SMqAzlxgXY-17" style="edgeStyle=orthogonalEdgeStyle;rounded=0;orthogonalLoop=1;jettySize=auto;html=1;exitX=0;exitY=1;exitDx=0;exitDy=0;entryX=0.5;entryY=0;entryDx=0;entryDy=0;" edge="1" parent="iYn5AzETV0SMqAzlxgXY-1" source="iYn5AzETV0SMqAzlxgXY-18" target="iYn5AzETV0SMqAzlxgXY-20">
          <mxGeometry relative="1" as="geometry" />
        </mxCell>
        <mxCell id="iYn5AzETV0SMqAzlxgXY-18" value="88" style="ellipse;whiteSpace=wrap;html=1;aspect=fixed;" vertex="1" parent="iYn5AzETV0SMqAzlxgXY-1">
          <mxGeometry x="-385" y="490" width="60" height="60" as="geometry" />
        </mxCell>
        <mxCell id="iYn5AzETV0SMqAzlxgXY-19" value="29" style="ellipse;whiteSpace=wrap;html=1;aspect=fixed;" vertex="1" parent="iYn5AzETV0SMqAzlxgXY-1">
          <mxGeometry x="-315" y="570" width="60" height="60" as="geometry" />
        </mxCell>
        <mxCell id="iYn5AzETV0SMqAzlxgXY-20" value="77" style="ellipse;whiteSpace=wrap;html=1;aspect=fixed;" vertex="1" parent="iYn5AzETV0SMqAzlxgXY-1">
          <mxGeometry x="-455" y="570" width="60" height="60" as="geometry" />
        </mxCell>
        <mxCell id="iYn5AzETV0SMqAzlxgXY-21" value="75" style="ellipse;whiteSpace=wrap;html=1;aspect=fixed;" vertex="1" parent="iYn5AzETV0SMqAzlxgXY-1">
          <mxGeometry x="-740" y="570" width="60" height="60" as="geometry" />
        </mxCell>
        <mxCell id="iYn5AzETV0SMqAzlxgXY-22" style="edgeStyle=orthogonalEdgeStyle;rounded=0;orthogonalLoop=1;jettySize=auto;html=1;exitX=0;exitY=1;exitDx=0;exitDy=0;entryX=0.5;entryY=0;entryDx=0;entryDy=0;" edge="1" parent="iYn5AzETV0SMqAzlxgXY-1" source="iYn5AzETV0SMqAzlxgXY-24" target="iYn5AzETV0SMqAzlxgXY-27">
          <mxGeometry relative="1" as="geometry" />
        </mxCell>
        <mxCell id="iYn5AzETV0SMqAzlxgXY-23" style="edgeStyle=orthogonalEdgeStyle;rounded=0;orthogonalLoop=1;jettySize=auto;html=1;exitX=1;exitY=1;exitDx=0;exitDy=0;" edge="1" parent="iYn5AzETV0SMqAzlxgXY-1" source="iYn5AzETV0SMqAzlxgXY-24" target="iYn5AzETV0SMqAzlxgXY-29">
          <mxGeometry relative="1" as="geometry" />
        </mxCell>
        <mxCell id="iYn5AzETV0SMqAzlxgXY-24" value="100" style="ellipse;whiteSpace=wrap;html=1;aspect=fixed;fillColor=#dae8fc;strokeColor=#6c8ebf;" vertex="1" parent="iYn5AzETV0SMqAzlxgXY-1">
          <mxGeometry x="-20" y="410" width="60" height="60" as="geometry" />
        </mxCell>
        <mxCell id="iYn5AzETV0SMqAzlxgXY-25" style="edgeStyle=orthogonalEdgeStyle;rounded=0;orthogonalLoop=1;jettySize=auto;html=1;exitX=1;exitY=1;exitDx=0;exitDy=0;entryX=0.5;entryY=0;entryDx=0;entryDy=0;" edge="1" parent="iYn5AzETV0SMqAzlxgXY-1" source="iYn5AzETV0SMqAzlxgXY-27" target="iYn5AzETV0SMqAzlxgXY-28">
          <mxGeometry relative="1" as="geometry" />
        </mxCell>
        <mxCell id="iYn5AzETV0SMqAzlxgXY-26" style="edgeStyle=orthogonalEdgeStyle;rounded=0;orthogonalLoop=1;jettySize=auto;html=1;exitX=0;exitY=1;exitDx=0;exitDy=0;entryX=0.5;entryY=0;entryDx=0;entryDy=0;" edge="1" parent="iYn5AzETV0SMqAzlxgXY-1" source="iYn5AzETV0SMqAzlxgXY-27" target="iYn5AzETV0SMqAzlxgXY-30">
          <mxGeometry relative="1" as="geometry" />
        </mxCell>
        <mxCell id="iYn5AzETV0SMqAzlxgXY-27" value="32" style="ellipse;whiteSpace=wrap;html=1;aspect=fixed;fillColor=#dae8fc;strokeColor=#6c8ebf;" vertex="1" parent="iYn5AzETV0SMqAzlxgXY-1">
          <mxGeometry x="-150" y="490" width="60" height="60" as="geometry" />
        </mxCell>
        <mxCell id="iYn5AzETV0SMqAzlxgXY-28" value="31" style="ellipse;whiteSpace=wrap;html=1;aspect=fixed;fillColor=#dae8fc;strokeColor=#6c8ebf;" vertex="1" parent="iYn5AzETV0SMqAzlxgXY-1">
          <mxGeometry x="-60" y="570" width="60" height="60" as="geometry" />
        </mxCell>
        <mxCell id="iYn5AzETV0SMqAzlxgXY-29" value="42" style="ellipse;whiteSpace=wrap;html=1;aspect=fixed;" vertex="1" parent="iYn5AzETV0SMqAzlxgXY-1">
          <mxGeometry x="115" y="490" width="60" height="60" as="geometry" />
        </mxCell>
        <mxCell id="iYn5AzETV0SMqAzlxgXY-30" value="28" style="ellipse;whiteSpace=wrap;html=1;aspect=fixed;" vertex="1" parent="iYn5AzETV0SMqAzlxgXY-1">
          <mxGeometry x="-240" y="570" width="60" height="60" as="geometry" />
        </mxCell>
        <mxCell id="iYn5AzETV0SMqAzlxgXY-31" style="edgeStyle=orthogonalEdgeStyle;rounded=0;orthogonalLoop=1;jettySize=auto;html=1;exitX=0;exitY=1;exitDx=0;exitDy=0;entryX=0.5;entryY=0;entryDx=0;entryDy=0;" edge="1" parent="iYn5AzETV0SMqAzlxgXY-1" source="iYn5AzETV0SMqAzlxgXY-33" target="iYn5AzETV0SMqAzlxgXY-36">
          <mxGeometry relative="1" as="geometry" />
        </mxCell>
        <mxCell id="iYn5AzETV0SMqAzlxgXY-32" style="edgeStyle=orthogonalEdgeStyle;rounded=0;orthogonalLoop=1;jettySize=auto;html=1;exitX=1;exitY=1;exitDx=0;exitDy=0;entryX=0.5;entryY=0;entryDx=0;entryDy=0;" edge="1" parent="iYn5AzETV0SMqAzlxgXY-1" source="iYn5AzETV0SMqAzlxgXY-33" target="iYn5AzETV0SMqAzlxgXY-41">
          <mxGeometry relative="1" as="geometry" />
        </mxCell>
        <mxCell id="iYn5AzETV0SMqAzlxgXY-33" value="85" style="ellipse;whiteSpace=wrap;html=1;aspect=fixed;" vertex="1" parent="iYn5AzETV0SMqAzlxgXY-1">
          <mxGeometry x="430" y="320" width="60" height="60" as="geometry" />
        </mxCell>
        <mxCell id="iYn5AzETV0SMqAzlxgXY-34" style="edgeStyle=orthogonalEdgeStyle;rounded=0;orthogonalLoop=1;jettySize=auto;html=1;exitX=0;exitY=1;exitDx=0;exitDy=0;entryX=0.5;entryY=0;entryDx=0;entryDy=0;" edge="1" parent="iYn5AzETV0SMqAzlxgXY-1" source="iYn5AzETV0SMqAzlxgXY-36" target="iYn5AzETV0SMqAzlxgXY-37">
          <mxGeometry relative="1" as="geometry" />
        </mxCell>
        <mxCell id="iYn5AzETV0SMqAzlxgXY-35" style="edgeStyle=orthogonalEdgeStyle;rounded=0;orthogonalLoop=1;jettySize=auto;html=1;exitX=1;exitY=1;exitDx=0;exitDy=0;" edge="1" parent="iYn5AzETV0SMqAzlxgXY-1" source="iYn5AzETV0SMqAzlxgXY-36" target="iYn5AzETV0SMqAzlxgXY-38">
          <mxGeometry relative="1" as="geometry" />
        </mxCell>
        <mxCell id="iYn5AzETV0SMqAzlxgXY-36" value="44" style="ellipse;whiteSpace=wrap;html=1;aspect=fixed;" vertex="1" parent="iYn5AzETV0SMqAzlxgXY-1">
          <mxGeometry x="300" y="420" width="60" height="60" as="geometry" />
        </mxCell>
        <mxCell id="iYn5AzETV0SMqAzlxgXY-37" value="10" style="ellipse;whiteSpace=wrap;html=1;aspect=fixed;direction=south;" vertex="1" parent="iYn5AzETV0SMqAzlxgXY-1">
          <mxGeometry x="220" y="490" width="60" height="60" as="geometry" />
        </mxCell>
        <mxCell id="iYn5AzETV0SMqAzlxgXY-38" value="16" style="ellipse;whiteSpace=wrap;html=1;aspect=fixed;" vertex="1" parent="iYn5AzETV0SMqAzlxgXY-1">
          <mxGeometry x="380" y="490" width="60" height="60" as="geometry" />
        </mxCell>
        <mxCell id="iYn5AzETV0SMqAzlxgXY-39" style="edgeStyle=orthogonalEdgeStyle;rounded=0;orthogonalLoop=1;jettySize=auto;html=1;exitX=0;exitY=1;exitDx=0;exitDy=0;entryX=0.5;entryY=0;entryDx=0;entryDy=0;" edge="1" parent="iYn5AzETV0SMqAzlxgXY-1" source="iYn5AzETV0SMqAzlxgXY-41" target="iYn5AzETV0SMqAzlxgXY-42">
          <mxGeometry relative="1" as="geometry" />
        </mxCell>
        <mxCell id="iYn5AzETV0SMqAzlxgXY-40" style="edgeStyle=orthogonalEdgeStyle;rounded=0;orthogonalLoop=1;jettySize=auto;html=1;exitX=1;exitY=1;exitDx=0;exitDy=0;" edge="1" parent="iYn5AzETV0SMqAzlxgXY-1" source="iYn5AzETV0SMqAzlxgXY-41" target="iYn5AzETV0SMqAzlxgXY-43">
          <mxGeometry relative="1" as="geometry" />
        </mxCell>
        <mxCell id="iYn5AzETV0SMqAzlxgXY-41" value="34" style="ellipse;whiteSpace=wrap;html=1;aspect=fixed;" vertex="1" parent="iYn5AzETV0SMqAzlxgXY-1">
          <mxGeometry x="570" y="430" width="60" height="60" as="geometry" />
        </mxCell>
        <mxCell id="iYn5AzETV0SMqAzlxgXY-42" value="23" style="ellipse;whiteSpace=wrap;html=1;aspect=fixed;" vertex="1" parent="iYn5AzETV0SMqAzlxgXY-1">
          <mxGeometry x="500" y="500" width="60" height="60" as="geometry" />
        </mxCell>
        <mxCell id="iYn5AzETV0SMqAzlxgXY-43" value="14" style="ellipse;whiteSpace=wrap;html=1;aspect=fixed;" vertex="1" parent="iYn5AzETV0SMqAzlxgXY-1">
          <mxGeometry x="650" y="510" width="60" height="60" as="geometry" />
        </mxCell>
        <mxCell id="iYn5AzETV0SMqAzlxgXY-44" value="21 Elementos" style="text;html=1;align=center;verticalAlign=middle;resizable=0;points=[];autosize=1;strokeColor=none;fillColor=none;" vertex="1" parent="iYn5AzETV0SMqAzlxgXY-1">
          <mxGeometry x="280" y="50" width="100" height="30" as="geometry" />
        </mxCell>
      </root>
    </mxGraphModel>
  </diagram>
  <diagram name="12" id="ofkfqbXsuv_IyZTzkTW8">
    <mxGraphModel dx="1834" dy="625" grid="1" gridSize="10" guides="1" tooltips="1" connect="1" arrows="1" fold="1" page="1" pageScale="1" pageWidth="850" pageHeight="1100" math="0" shadow="0">
      <root>
        <mxCell id="hlAEIoGaPdaEAk8g_W2E-0" />
        <mxCell id="hlAEIoGaPdaEAk8g_W2E-1" parent="hlAEIoGaPdaEAk8g_W2E-0" />
        <mxCell id="hlAEIoGaPdaEAk8g_W2E-2" value="&lt;font style=&quot;font-size: 16px;&quot;&gt;18 31 10 75 100 16 14 17 29 32 42 44 85 23 34 85 95 77 88 28 101&lt;/font&gt;" style="rounded=1;whiteSpace=wrap;html=1;" vertex="1" parent="hlAEIoGaPdaEAk8g_W2E-1">
          <mxGeometry x="-140" y="80" width="520" height="40" as="geometry" />
        </mxCell>
        <mxCell id="hlAEIoGaPdaEAk8g_W2E-3" style="edgeStyle=orthogonalEdgeStyle;rounded=0;orthogonalLoop=1;jettySize=auto;html=1;exitX=0;exitY=1;exitDx=0;exitDy=0;entryX=0.5;entryY=0;entryDx=0;entryDy=0;" edge="1" parent="hlAEIoGaPdaEAk8g_W2E-1" source="hlAEIoGaPdaEAk8g_W2E-5" target="hlAEIoGaPdaEAk8g_W2E-8">
          <mxGeometry relative="1" as="geometry" />
        </mxCell>
        <mxCell id="hlAEIoGaPdaEAk8g_W2E-4" style="edgeStyle=orthogonalEdgeStyle;rounded=0;orthogonalLoop=1;jettySize=auto;html=1;exitX=1;exitY=1;exitDx=0;exitDy=0;entryX=0.5;entryY=0;entryDx=0;entryDy=0;" edge="1" parent="hlAEIoGaPdaEAk8g_W2E-1" source="hlAEIoGaPdaEAk8g_W2E-5" target="hlAEIoGaPdaEAk8g_W2E-33">
          <mxGeometry relative="1" as="geometry" />
        </mxCell>
        <mxCell id="hlAEIoGaPdaEAk8g_W2E-5" value="101" style="ellipse;whiteSpace=wrap;html=1;aspect=fixed;fillColor=#dae8fc;strokeColor=#6c8ebf;" vertex="1" parent="hlAEIoGaPdaEAk8g_W2E-1">
          <mxGeometry x="90" y="160" width="60" height="60" as="geometry" />
        </mxCell>
        <mxCell id="hlAEIoGaPdaEAk8g_W2E-6" style="edgeStyle=orthogonalEdgeStyle;rounded=0;orthogonalLoop=1;jettySize=auto;html=1;exitX=0;exitY=1;exitDx=0;exitDy=0;entryX=0.5;entryY=0;entryDx=0;entryDy=0;" edge="1" parent="hlAEIoGaPdaEAk8g_W2E-1" source="hlAEIoGaPdaEAk8g_W2E-8" target="hlAEIoGaPdaEAk8g_W2E-11">
          <mxGeometry relative="1" as="geometry" />
        </mxCell>
        <mxCell id="hlAEIoGaPdaEAk8g_W2E-7" style="edgeStyle=orthogonalEdgeStyle;rounded=0;orthogonalLoop=1;jettySize=auto;html=1;exitX=1;exitY=1;exitDx=0;exitDy=0;entryX=0.5;entryY=0;entryDx=0;entryDy=0;" edge="1" parent="hlAEIoGaPdaEAk8g_W2E-1" source="hlAEIoGaPdaEAk8g_W2E-8" target="hlAEIoGaPdaEAk8g_W2E-24">
          <mxGeometry relative="1" as="geometry" />
        </mxCell>
        <mxCell id="hlAEIoGaPdaEAk8g_W2E-8" value="100" style="ellipse;whiteSpace=wrap;html=1;aspect=fixed;fillColor=#dae8fc;strokeColor=#6c8ebf;" vertex="1" parent="hlAEIoGaPdaEAk8g_W2E-1">
          <mxGeometry x="-280" y="320" width="60" height="60" as="geometry" />
        </mxCell>
        <mxCell id="hlAEIoGaPdaEAk8g_W2E-9" style="edgeStyle=orthogonalEdgeStyle;rounded=0;orthogonalLoop=1;jettySize=auto;html=1;exitX=0;exitY=1;exitDx=0;exitDy=0;entryX=0.5;entryY=0;entryDx=0;entryDy=0;" edge="1" parent="hlAEIoGaPdaEAk8g_W2E-1" source="hlAEIoGaPdaEAk8g_W2E-11" target="hlAEIoGaPdaEAk8g_W2E-14">
          <mxGeometry relative="1" as="geometry" />
        </mxCell>
        <mxCell id="hlAEIoGaPdaEAk8g_W2E-10" style="edgeStyle=orthogonalEdgeStyle;rounded=0;orthogonalLoop=1;jettySize=auto;html=1;exitX=1;exitY=1;exitDx=0;exitDy=0;" edge="1" parent="hlAEIoGaPdaEAk8g_W2E-1" source="hlAEIoGaPdaEAk8g_W2E-11" target="hlAEIoGaPdaEAk8g_W2E-18">
          <mxGeometry relative="1" as="geometry" />
        </mxCell>
        <mxCell id="hlAEIoGaPdaEAk8g_W2E-11" value="95" style="ellipse;whiteSpace=wrap;html=1;aspect=fixed;" vertex="1" parent="hlAEIoGaPdaEAk8g_W2E-1">
          <mxGeometry x="-520" y="410" width="60" height="60" as="geometry" />
        </mxCell>
        <mxCell id="hlAEIoGaPdaEAk8g_W2E-12" style="edgeStyle=orthogonalEdgeStyle;rounded=0;orthogonalLoop=1;jettySize=auto;html=1;exitX=1;exitY=1;exitDx=0;exitDy=0;entryX=0.5;entryY=0;entryDx=0;entryDy=0;" edge="1" parent="hlAEIoGaPdaEAk8g_W2E-1" source="hlAEIoGaPdaEAk8g_W2E-14" target="hlAEIoGaPdaEAk8g_W2E-15">
          <mxGeometry relative="1" as="geometry" />
        </mxCell>
        <mxCell id="hlAEIoGaPdaEAk8g_W2E-13" style="edgeStyle=orthogonalEdgeStyle;rounded=0;orthogonalLoop=1;jettySize=auto;html=1;exitX=0;exitY=1;exitDx=0;exitDy=0;entryX=0.5;entryY=0;entryDx=0;entryDy=0;" edge="1" parent="hlAEIoGaPdaEAk8g_W2E-1" source="hlAEIoGaPdaEAk8g_W2E-14" target="hlAEIoGaPdaEAk8g_W2E-21">
          <mxGeometry relative="1" as="geometry" />
        </mxCell>
        <mxCell id="hlAEIoGaPdaEAk8g_W2E-14" value="85" style="ellipse;whiteSpace=wrap;html=1;aspect=fixed;" vertex="1" parent="hlAEIoGaPdaEAk8g_W2E-1">
          <mxGeometry x="-650" y="490" width="60" height="60" as="geometry" />
        </mxCell>
        <mxCell id="hlAEIoGaPdaEAk8g_W2E-15" value="17" style="ellipse;whiteSpace=wrap;html=1;aspect=fixed;" vertex="1" parent="hlAEIoGaPdaEAk8g_W2E-1">
          <mxGeometry x="-560" y="570" width="60" height="60" as="geometry" />
        </mxCell>
        <mxCell id="hlAEIoGaPdaEAk8g_W2E-16" style="edgeStyle=orthogonalEdgeStyle;rounded=0;orthogonalLoop=1;jettySize=auto;html=1;exitX=1;exitY=1;exitDx=0;exitDy=0;entryX=0.5;entryY=0;entryDx=0;entryDy=0;" edge="1" parent="hlAEIoGaPdaEAk8g_W2E-1" source="hlAEIoGaPdaEAk8g_W2E-18" target="hlAEIoGaPdaEAk8g_W2E-19">
          <mxGeometry relative="1" as="geometry" />
        </mxCell>
        <mxCell id="hlAEIoGaPdaEAk8g_W2E-17" style="edgeStyle=orthogonalEdgeStyle;rounded=0;orthogonalLoop=1;jettySize=auto;html=1;exitX=0;exitY=1;exitDx=0;exitDy=0;entryX=0.5;entryY=0;entryDx=0;entryDy=0;" edge="1" parent="hlAEIoGaPdaEAk8g_W2E-1" source="hlAEIoGaPdaEAk8g_W2E-18" target="hlAEIoGaPdaEAk8g_W2E-20">
          <mxGeometry relative="1" as="geometry" />
        </mxCell>
        <mxCell id="hlAEIoGaPdaEAk8g_W2E-18" value="88" style="ellipse;whiteSpace=wrap;html=1;aspect=fixed;" vertex="1" parent="hlAEIoGaPdaEAk8g_W2E-1">
          <mxGeometry x="-385" y="490" width="60" height="60" as="geometry" />
        </mxCell>
        <mxCell id="hlAEIoGaPdaEAk8g_W2E-19" value="29" style="ellipse;whiteSpace=wrap;html=1;aspect=fixed;" vertex="1" parent="hlAEIoGaPdaEAk8g_W2E-1">
          <mxGeometry x="-315" y="570" width="60" height="60" as="geometry" />
        </mxCell>
        <mxCell id="hlAEIoGaPdaEAk8g_W2E-20" value="77" style="ellipse;whiteSpace=wrap;html=1;aspect=fixed;" vertex="1" parent="hlAEIoGaPdaEAk8g_W2E-1">
          <mxGeometry x="-455" y="570" width="60" height="60" as="geometry" />
        </mxCell>
        <mxCell id="hlAEIoGaPdaEAk8g_W2E-21" value="75" style="ellipse;whiteSpace=wrap;html=1;aspect=fixed;" vertex="1" parent="hlAEIoGaPdaEAk8g_W2E-1">
          <mxGeometry x="-740" y="570" width="60" height="60" as="geometry" />
        </mxCell>
        <mxCell id="hlAEIoGaPdaEAk8g_W2E-22" style="edgeStyle=orthogonalEdgeStyle;rounded=0;orthogonalLoop=1;jettySize=auto;html=1;exitX=0;exitY=1;exitDx=0;exitDy=0;entryX=0.5;entryY=0;entryDx=0;entryDy=0;" edge="1" parent="hlAEIoGaPdaEAk8g_W2E-1" source="hlAEIoGaPdaEAk8g_W2E-24" target="hlAEIoGaPdaEAk8g_W2E-27">
          <mxGeometry relative="1" as="geometry" />
        </mxCell>
        <mxCell id="hlAEIoGaPdaEAk8g_W2E-23" style="edgeStyle=orthogonalEdgeStyle;rounded=0;orthogonalLoop=1;jettySize=auto;html=1;exitX=1;exitY=1;exitDx=0;exitDy=0;" edge="1" parent="hlAEIoGaPdaEAk8g_W2E-1" source="hlAEIoGaPdaEAk8g_W2E-24" target="hlAEIoGaPdaEAk8g_W2E-29">
          <mxGeometry relative="1" as="geometry" />
        </mxCell>
        <mxCell id="hlAEIoGaPdaEAk8g_W2E-24" value="32" style="ellipse;whiteSpace=wrap;html=1;aspect=fixed;fillColor=#dae8fc;strokeColor=#6c8ebf;" vertex="1" parent="hlAEIoGaPdaEAk8g_W2E-1">
          <mxGeometry x="-20" y="410" width="60" height="60" as="geometry" />
        </mxCell>
        <mxCell id="hlAEIoGaPdaEAk8g_W2E-25" style="edgeStyle=orthogonalEdgeStyle;rounded=0;orthogonalLoop=1;jettySize=auto;html=1;exitX=1;exitY=1;exitDx=0;exitDy=0;entryX=0.5;entryY=0;entryDx=0;entryDy=0;" edge="1" parent="hlAEIoGaPdaEAk8g_W2E-1" source="hlAEIoGaPdaEAk8g_W2E-27" target="hlAEIoGaPdaEAk8g_W2E-28">
          <mxGeometry relative="1" as="geometry" />
        </mxCell>
        <mxCell id="hlAEIoGaPdaEAk8g_W2E-26" style="edgeStyle=orthogonalEdgeStyle;rounded=0;orthogonalLoop=1;jettySize=auto;html=1;exitX=0;exitY=1;exitDx=0;exitDy=0;entryX=0.5;entryY=0;entryDx=0;entryDy=0;" edge="1" parent="hlAEIoGaPdaEAk8g_W2E-1" source="hlAEIoGaPdaEAk8g_W2E-27" target="hlAEIoGaPdaEAk8g_W2E-30">
          <mxGeometry relative="1" as="geometry" />
        </mxCell>
        <mxCell id="hlAEIoGaPdaEAk8g_W2E-27" value="31" style="ellipse;whiteSpace=wrap;html=1;aspect=fixed;fillColor=#dae8fc;strokeColor=#6c8ebf;" vertex="1" parent="hlAEIoGaPdaEAk8g_W2E-1">
          <mxGeometry x="-150" y="490" width="60" height="60" as="geometry" />
        </mxCell>
        <mxCell id="hlAEIoGaPdaEAk8g_W2E-28" value="18" style="ellipse;whiteSpace=wrap;html=1;aspect=fixed;fillColor=#dae8fc;strokeColor=#6c8ebf;" vertex="1" parent="hlAEIoGaPdaEAk8g_W2E-1">
          <mxGeometry x="-60" y="570" width="60" height="60" as="geometry" />
        </mxCell>
        <mxCell id="hlAEIoGaPdaEAk8g_W2E-29" value="42" style="ellipse;whiteSpace=wrap;html=1;aspect=fixed;" vertex="1" parent="hlAEIoGaPdaEAk8g_W2E-1">
          <mxGeometry x="115" y="490" width="60" height="60" as="geometry" />
        </mxCell>
        <mxCell id="hlAEIoGaPdaEAk8g_W2E-30" value="28" style="ellipse;whiteSpace=wrap;html=1;aspect=fixed;" vertex="1" parent="hlAEIoGaPdaEAk8g_W2E-1">
          <mxGeometry x="-240" y="570" width="60" height="60" as="geometry" />
        </mxCell>
        <mxCell id="hlAEIoGaPdaEAk8g_W2E-31" style="edgeStyle=orthogonalEdgeStyle;rounded=0;orthogonalLoop=1;jettySize=auto;html=1;exitX=0;exitY=1;exitDx=0;exitDy=0;entryX=0.5;entryY=0;entryDx=0;entryDy=0;" edge="1" parent="hlAEIoGaPdaEAk8g_W2E-1" source="hlAEIoGaPdaEAk8g_W2E-33" target="hlAEIoGaPdaEAk8g_W2E-36">
          <mxGeometry relative="1" as="geometry" />
        </mxCell>
        <mxCell id="hlAEIoGaPdaEAk8g_W2E-32" style="edgeStyle=orthogonalEdgeStyle;rounded=0;orthogonalLoop=1;jettySize=auto;html=1;exitX=1;exitY=1;exitDx=0;exitDy=0;entryX=0.5;entryY=0;entryDx=0;entryDy=0;" edge="1" parent="hlAEIoGaPdaEAk8g_W2E-1" source="hlAEIoGaPdaEAk8g_W2E-33" target="hlAEIoGaPdaEAk8g_W2E-41">
          <mxGeometry relative="1" as="geometry" />
        </mxCell>
        <mxCell id="hlAEIoGaPdaEAk8g_W2E-33" value="85" style="ellipse;whiteSpace=wrap;html=1;aspect=fixed;" vertex="1" parent="hlAEIoGaPdaEAk8g_W2E-1">
          <mxGeometry x="430" y="320" width="60" height="60" as="geometry" />
        </mxCell>
        <mxCell id="hlAEIoGaPdaEAk8g_W2E-34" style="edgeStyle=orthogonalEdgeStyle;rounded=0;orthogonalLoop=1;jettySize=auto;html=1;exitX=0;exitY=1;exitDx=0;exitDy=0;entryX=0.5;entryY=0;entryDx=0;entryDy=0;" edge="1" parent="hlAEIoGaPdaEAk8g_W2E-1" source="hlAEIoGaPdaEAk8g_W2E-36" target="hlAEIoGaPdaEAk8g_W2E-37">
          <mxGeometry relative="1" as="geometry" />
        </mxCell>
        <mxCell id="hlAEIoGaPdaEAk8g_W2E-35" style="edgeStyle=orthogonalEdgeStyle;rounded=0;orthogonalLoop=1;jettySize=auto;html=1;exitX=1;exitY=1;exitDx=0;exitDy=0;" edge="1" parent="hlAEIoGaPdaEAk8g_W2E-1" source="hlAEIoGaPdaEAk8g_W2E-36" target="hlAEIoGaPdaEAk8g_W2E-38">
          <mxGeometry relative="1" as="geometry" />
        </mxCell>
        <mxCell id="hlAEIoGaPdaEAk8g_W2E-36" value="44" style="ellipse;whiteSpace=wrap;html=1;aspect=fixed;" vertex="1" parent="hlAEIoGaPdaEAk8g_W2E-1">
          <mxGeometry x="300" y="420" width="60" height="60" as="geometry" />
        </mxCell>
        <mxCell id="hlAEIoGaPdaEAk8g_W2E-37" value="10" style="ellipse;whiteSpace=wrap;html=1;aspect=fixed;direction=south;" vertex="1" parent="hlAEIoGaPdaEAk8g_W2E-1">
          <mxGeometry x="220" y="490" width="60" height="60" as="geometry" />
        </mxCell>
        <mxCell id="hlAEIoGaPdaEAk8g_W2E-38" value="16" style="ellipse;whiteSpace=wrap;html=1;aspect=fixed;" vertex="1" parent="hlAEIoGaPdaEAk8g_W2E-1">
          <mxGeometry x="380" y="490" width="60" height="60" as="geometry" />
        </mxCell>
        <mxCell id="hlAEIoGaPdaEAk8g_W2E-39" style="edgeStyle=orthogonalEdgeStyle;rounded=0;orthogonalLoop=1;jettySize=auto;html=1;exitX=0;exitY=1;exitDx=0;exitDy=0;entryX=0.5;entryY=0;entryDx=0;entryDy=0;" edge="1" parent="hlAEIoGaPdaEAk8g_W2E-1" source="hlAEIoGaPdaEAk8g_W2E-41" target="hlAEIoGaPdaEAk8g_W2E-42">
          <mxGeometry relative="1" as="geometry" />
        </mxCell>
        <mxCell id="hlAEIoGaPdaEAk8g_W2E-40" style="edgeStyle=orthogonalEdgeStyle;rounded=0;orthogonalLoop=1;jettySize=auto;html=1;exitX=1;exitY=1;exitDx=0;exitDy=0;" edge="1" parent="hlAEIoGaPdaEAk8g_W2E-1" source="hlAEIoGaPdaEAk8g_W2E-41" target="hlAEIoGaPdaEAk8g_W2E-43">
          <mxGeometry relative="1" as="geometry" />
        </mxCell>
        <mxCell id="hlAEIoGaPdaEAk8g_W2E-41" value="34" style="ellipse;whiteSpace=wrap;html=1;aspect=fixed;" vertex="1" parent="hlAEIoGaPdaEAk8g_W2E-1">
          <mxGeometry x="570" y="430" width="60" height="60" as="geometry" />
        </mxCell>
        <mxCell id="hlAEIoGaPdaEAk8g_W2E-42" value="23" style="ellipse;whiteSpace=wrap;html=1;aspect=fixed;" vertex="1" parent="hlAEIoGaPdaEAk8g_W2E-1">
          <mxGeometry x="500" y="500" width="60" height="60" as="geometry" />
        </mxCell>
        <mxCell id="hlAEIoGaPdaEAk8g_W2E-43" value="14" style="ellipse;whiteSpace=wrap;html=1;aspect=fixed;" vertex="1" parent="hlAEIoGaPdaEAk8g_W2E-1">
          <mxGeometry x="650" y="510" width="60" height="60" as="geometry" />
        </mxCell>
        <mxCell id="hlAEIoGaPdaEAk8g_W2E-44" value="21 Elementos" style="text;html=1;align=center;verticalAlign=middle;resizable=0;points=[];autosize=1;strokeColor=none;fillColor=none;" vertex="1" parent="hlAEIoGaPdaEAk8g_W2E-1">
          <mxGeometry x="280" y="50" width="100" height="30" as="geometry" />
        </mxCell>
      </root>
    </mxGraphModel>
  </diagram>
</mxfile>
